<?xml version="1.0" standalone="yes"?>

<svg version="1.1" viewBox="0.0 0.0 643.0 386.0" fill="none" stroke="none" stroke-linecap="square" stroke-miterlimit="10" xmlns="http://www.w3.org/2000/svg" xmlns:xlink="http://www.w3.org/1999/xlink"><clipPath id="p.0"><path d="m0 0l643.0 0l0 386.0l-643.0 0l0 -386.0z" clip-rule="nonzero"></path></clipPath><g clip-path="url(#p.0)"><path fill="#000000" fill-opacity="0.0" d="m0 0l643.5171 0l0 386.11023l-643.5171 0z" fill-rule="nonzero"></path><path fill="#cfe2f3" d="m187.93439 247.56955l9.29921 4.102371" fill-rule="nonzero"></path><path fill="#f6b26b" d="m560.8858 303.37796l47.49872 -4.4986877l22.0 46.0z" fill-rule="nonzero"></path><path fill="#f6b26b" d="m254.13516 203.6273l48.0 -0.49868774l27.498688 23.498688l-57.24933 2.2519684z" fill-rule="nonzero"></path><path fill="#f6b26b" d="m313.63385 276.6273l68.75067 -6.2493286l41.501312 35.0l-79.75067 6.5013123z" fill-rule="nonzero"></path><path fill="#f6b26b" d="m318.13516 202.87927l57.24936 0l29.249329 19.498688l-61.0 2.5013123z" fill-rule="nonzero"></path><path fill="#f6b26b" d="m399.88583 269.6273l73.24933 -6.0l53.75064 32.75067l-84.75064 7.2493286z" fill-rule="nonzero"></path><path fill="#f6b26b" d="m398.38452 202.6273l59.0 -0.7480316l36.0 17.0l-64.0 2.7480316z" fill-rule="nonzero"></path><path fill="#f6b26b" d="m492.38452 260.87927l85.0 -7.2519684l10.0 3.7506561l17.0 31.501312l-55.0 5.4986877z" fill-rule="nonzero"></path><path fill="#f6b26b" d="m482.38452 201.12862l66.50128 -1.2493439l10.498718 15.498688l-38.49872 2.0z" fill-rule="nonzero"></path><path fill="#f6b26b" d="m453.63385 312.87927l87.50134 -8.251984l86.24933 51.75067l-34.49872 14.501312l-9.501282 -4.0l-68.49872 -1.7506714z" fill-rule="nonzero"></path><path fill="#f6b26b" d="m282.13516 238.12862l60.0 -2.0l31.498688 26.999985l-64.74802 5.0z" fill-rule="nonzero"></path><path fill="#f6b26b" d="m359.38452 234.87927l62.24933 -3.0l37.501312 23.0l-67.50131 6.0z" fill-rule="nonzero"></path><path fill="#f6b26b" d="m442.88583 229.87927l65.24933 -3.7506561l48.75064 20.249344l-76.99997 7.0z" fill-rule="nonzero"></path><path fill="#f6b26b" d="m533.3845 222.87927l30.0 -2.0l14.501282 21.498688z" fill-rule="nonzero"></path><path fill="#f6b26b" d="m394.93307 133.7664l28.293945 -2.2729645l-24.758514 -4.800522l-23.241486 0.2545929z" fill-rule="nonzero"></path><path fill="#f6b26b" d="m354.00656 134.021l-22.737549 -5.81102l26.020996 -0.25196838l21.979004 4.7978973z" fill-rule="nonzero"></path><path fill="#f6b26b" d="m315.85696 124.16798l-17.682434 -7.0734863l18.692932 1.010498l17.685028 5.3044586z" fill-rule="nonzero"></path><path fill="#f6b26b" d="m284.5315 114.062996l-13.136475 -5.3070908l28.293945 4.800522z" fill-rule="nonzero"></path><path fill="#f6b26b" d="m333.55774 140.12862l16.960632 5.1968384l23.524933 -0.54592896l-18.055115 -6.0183716z" fill-rule="nonzero"></path><path fill="#f6b26b" d="m333.0118 134.6588l-15.86615 -5.745407l-19.149597 -1.6430511l15.317596 7.6614227z" fill-rule="nonzero"></path><path fill="#f6b26b" d="m154.10367 19.490814l9.301834 -11.490814l1.0944977 8.20735l-7.3858337 10.396324z" fill-rule="nonzero"></path><path fill="#f6b26b" d="m158.48163 29.884514l3.556427 6.2939644l5.745407 -10.396326l-2.18898 -6.0183735z" fill-rule="nonzero"></path><path fill="#f6b26b" d="m164.77296 40.280838l4.1049805 6.29134l3.8294067 -9.847767l-2.734909 -6.29134z" fill-rule="nonzero"></path><path fill="#f6b26b" d="m174.62073 40.82677l4.1049957 6.0183754l-1.0944977 8.755905l-5.4724426 -5.4724426z" fill-rule="nonzero"></path><path fill="#f6b26b" d="m270.9147 115.78215l13.950134 1.09449l12.309692 5.745407l-17.233582 -0.54855347z" fill-rule="nonzero"></path><path fill="#f6b26b" d="m265.9882 110.03674l-12.034119 -6.0183716l-9.028885 -3.0078735l7.934387 6.0183716z" fill-rule="nonzero"></path><path fill="#f6b26b" d="m243.28477 97.727036l-16.414703 -9.847771l6.291336 5.4724426z" fill-rule="nonzero"></path><path fill="#f6b26b" d="m225.77559 89.519684l-6.837265 -6.5643005l-6.5669403 -4.6509247l5.199478 7.934387z" fill-rule="nonzero"></path><path fill="#f6b26b" d="m210.18503 80.49344l-4.923874 -7.385826l-5.4724426 -4.3779526l3.0078735 8.207344z" fill-rule="nonzero"></path><path fill="#f6b26b" d="m181.18765 50.401573l5.1968536 5.4724426l1.3674622 9.574806l-6.564316 -6.293968z" fill-rule="nonzero"></path><path fill="#f6b26b" d="m189.66797 59.97638l1.9133911 9.02887l7.1128693 4.1023636l-3.2834778 -7.934387z" fill-rule="nonzero"></path><path fill="#f6b26b" d="m11.035429 142.31758l20.790026 -15.59317l21.61155 1.3674469l-16.687664 14.225723z" fill-rule="nonzero"></path><path fill="#f6b26b" d="m53.70997 142.04462l14.225723 -13.679794l22.157478 1.9160156l-10.942253 11.763779z" fill-rule="nonzero"></path><path fill="#f6b26b" d="m87.9042 111.67979l12.582672 -12.858261l15.047249 3.8293915l-10.669296 11.490814z" fill-rule="nonzero"></path><path fill="#f6b26b" d="m139.88057 56.692913l8.480316 -12.034119l5.7427826 5.4698143l-6.015747 10.942257z" fill-rule="nonzero"></path><path fill="#f6b26b" d="m152.19029 63.805775l5.469803 -9.574802l6.5669403 4.650917l-3.8294067 10.942261z" fill-rule="nonzero"></path><path fill="#f6b26b" d="m95.01706 142.59055l10.120735 -12.309708l22.706032 1.9160156l-6.291336 10.942261z" fill-rule="nonzero"></path><path fill="#f6b26b" d="m137.41862 142.86351l4.6509247 -10.9422455l22.97638 1.6430359l-1.6404266 10.120743z" fill-rule="nonzero"></path><path fill="#f6b26b" d="m178.99869 143.13911l0 -9.301849l24.34645 1.0944977l2.18898 9.026245z" fill-rule="nonzero"></path><path fill="#f6b26b" d="m217.29527 135.47769l24.62204 0.82151794l6.0183716 7.1128693l-25.989487 -0.27296448z" fill-rule="nonzero"></path><path fill="#f6b26b" d="m256.1404 137.12073l24.346466 0.8189087l9.301819 5.4724426l-26.53543 0.81889343z" fill-rule="nonzero"></path><path fill="#f6b26b" d="m294.98557 138.48819l22.979004 0l14.225708 5.469818l-26.262451 0.27296448z" fill-rule="nonzero"></path><path fill="#f6b26b" d="m136.5971 89.519684l6.291336 -10.666664l11.215225 3.8293915l-4.923889 10.393707z" fill-rule="nonzero"></path><path fill="#f6b26b" d="m165.32152 72.83465l3.0078735 -10.1233635l7.934387 4.9238853l-1.6430511 10.12336z" fill-rule="nonzero"></path><path fill="#f6b26b" d="m161.76509 86.238846l11.48819 3.0078735l-1.6404266 10.12336l-14.225723 -3.2834625z" fill-rule="nonzero"></path><path fill="#f6b26b" d="m180.6391 81.03937l-0.54592896 -9.847763l9.29921 4.9238815l1.0944977 8.755905z" fill-rule="nonzero"></path><path fill="#f6b26b" d="m118.55249 116.8399l6.5695496 -12.125984l17.178482 3.0314941l-5.5590515 10.611549z" fill-rule="nonzero"></path><path fill="#f6b26b" d="m148.61548 118.86089l3.7900238 -10.608925l17.178482 3.535431l-2.020996 9.349083z" fill-rule="nonzero"></path><path fill="#f6b26b" d="m179.68898 121.38845l-0.25198364 -7.8320236l18.94751 2.272972l1.5170593 8.338577z" fill-rule="nonzero"></path><path fill="#f6b26b" d="m370.17453 138.56693l19.451447 6.821533l30.821533 -0.25196838l-26.524933 -7.3280945z" fill-rule="nonzero"></path><path fill="#f6b26b" d="m465.16403 145.13649l-26.77951 -9.349091l-30.821533 1.265091l25.769043 8.084z" fill-rule="nonzero"></path><path fill="#f6b26b" d="m180.69948 92.08399l-0.75590515 8.842514l14.398941 3.2834702l-1.5170593 -8.590553z" fill-rule="nonzero"></path><path fill="#f6b26b" d="m194.59448 79.45145l2.020996 8.590546l10.359589 3.0315018l-3.5380707 -7.073494z" fill-rule="nonzero"></path><path fill="#f6b26b" d="m210.00656 87.031494l9.850388 4.293968l6.317581 6.821518l-11.370071 -3.286087z" fill-rule="nonzero"></path><path fill="#f6b26b" d="m226.17453 94.35696l10.104996 3.5380554l8.842514 6.3149643l-12.380569 -3.2834702z" fill-rule="nonzero"></path><path fill="#f6b26b" d="m200.91206 98.39895l13.13649 3.5380554l4.2939606 7.3254623l-14.905518 -2.7795258z" fill-rule="nonzero"></path><path fill="#f6b26b" d="m222.89107 104.71391l13.388458 2.7795258l7.577423 6.3149567l-15.157471 -2.2729645z" fill-rule="nonzero"></path><path fill="#f6b26b" d="m245.12204 110.272964l14.146973 2.2729645l10.608948 6.062996l-16.67192 -2.2729645z" fill-rule="nonzero"></path><path fill="#f6b26b" d="m268.86746 124.926506l16.67453 1.5144424l12.380585 5.5590515l-20.716553 -1.265091z" fill-rule="nonzero"></path><path fill="#f6b26b" d="m238.55249 121.13648l17.937012 2.020996l9.346466 6.3149643l-21.724426 -1.5144348z" fill-rule="nonzero"></path><path fill="#f6b26b" d="m208.99606 117.34646l17.178467 1.7690277l6.5669403 7.5774307l-20.461945 -1.5144424z" fill-rule="nonzero"></path><path fill="#f6b26b" d="m129.21129 47.3937l6.291336 5.19685l9.847763 -11.215221l-4.102356 -6.29134z" fill-rule="nonzero"></path><path fill="#f6b26b" d="m358.38452 323.87927l75.0 -7.5013123l56.0 45.501312z" fill-rule="nonzero"></path><path fill="#783f04" d="m445.88583 324.87927l-24.501312 2.0l12.0 12.498688l47.0 14.501312z" fill-rule="nonzero"></path><path fill="#783f04" d="m470.88583 326.37796l26.0 3.0l11.0 11.501312l-9.501312 11.498688z" fill-rule="nonzero"></path><path fill="#783f04" d="m230.88582 205.37796l15.0 -0.24934387l13.498703 23.750656l-23.000015 0z" fill-rule="nonzero"></path><path fill="#783f04" d="m264.88583 239.87927l-28.000015 1.0l5.4986877 33.498688l41.501328 -4.0z" fill-rule="nonzero"></path><path fill="#783f04" d="m289.88583 279.37796l-61.000015 37.0l12.0 -30.0z" fill-rule="nonzero"></path><path fill="#783f04" d="m383.6141 122.58858l-22.887695 0.79148865l-6.7311707 -9.226692l17.502197 -0.26290894z" fill-rule="nonzero"></path><path fill="#783f04" d="m394.13556 122.37799l17.49936 -0.74998474l-20.213318 -8.00071l-11.8480835 0z" fill-rule="nonzero"></path><path fill="#783f04" d="m373.11166 108.88137l12.925201 -0.13006592l-9.558197 -8.039452l-11.175262 -1.320076z" fill-rule="nonzero"></path><path fill="#783f04" d="m366.1119 108.35556l-7.271118 -10.281097l-14.270874 -2.371704l5.6540833 12.6528015z" fill-rule="nonzero"></path><path fill="#783f04" d="m348.87833 76.19498l-1.0771179 -9.223923l-11.579529 -6.592079l1.6170654 11.598404z" fill-rule="nonzero"></path><path fill="#783f04" d="m338.91586 78.30377l11.8480835 4.2176056l3.2312927 9.4895935l-12.119476 -2.371704z" fill-rule="nonzero"></path><path fill="#783f04" d="m359.64932 92.53956l11.308136 2.634613l-3.2312927 -5.7978134l-11.175262 -4.087532z" fill-rule="nonzero"></path><path fill="#783f04" d="m355.07236 78.83236l10.499603 4.480507l-2.1542053 -7.1178894l-9.693909 -5.797821z" fill-rule="nonzero"></path><path fill="#783f04" d="m392.63516 108.48563l11.443817 0.13284302l-9.021057 -5.009094l-12.25235 -1.8431244z" fill-rule="nonzero"></path><path fill="#783f04" d="m369.6118 80.149666l1.8856506 5.800583l12.925201 5.534912z" fill-rule="nonzero"></path><path fill="#783f04" d="m373.65225 91.22309l3.7684326 5.139168l12.212769 3.0165253l-4.2490234 -5.0007935z" fill-rule="nonzero"></path><path fill="#783f04" d="m398.63385 113.12861l9.750671 0l13.249329 7.4986877l-4.7480164 -0.24934387z" fill-rule="nonzero"></path><path fill="#ffffff" d="m514.7598 153.00262l13.24939 0.12599182l-0.123413086 15.624664l7.748047 0l16.876648 -16.249344l19.748047 0l-24.498718 21.62468l26.624695 22.249344l-20.498718 0l-18.627258 -16.62468l-7.123352 0.24934387l0.12335205 16.501312l-13.874023 -0.12597656z" fill-rule="nonzero"></path><path fill="#ffffff" d="m130.88582 153.00262l48.249344 0.12599182l-0.12597656 10.0l-35.0 -0.24934387l-0.24934387 6.4986877l33.87401 0l-0.37532043 9.501312l-33.74803 -0.25196838l0.49868774 7.750656l35.37532 -0.49868774l-0.12597656 10.249344l-48.37271 0.24934387z" fill-rule="nonzero"></path><path fill="#ffffff" d="m247.63385 152.87927l24.501312 -0.12599182l12.375336 28.62468l12.874023 -28.498688l24.375305 0l-0.12597656 43.74803l-13.249329 -0.12336731l0.24932861 -32.37532l-2.123352 0l-16.125977 32.498688l-11.498688 -0.12336731l-16.0 -32.37532l-1.876648 0.24934387l-0.12335205 32.501312l-13.125992 -0.50131226z" fill-rule="nonzero"></path><path fill="#ffffff" d="m327.75983 153.00262l14.249359 -0.12335205l0 15.372696l29.249329 -0.12335205l0 -15.249344l14.375336 0l0 43.74803l-14.748016 -0.12336731l-0.12600708 -15.750656l-28.501312 0l-0.12335205 15.874023l-14.375336 0z" fill-rule="nonzero"></path><path fill="#ffffff" d="m495.5105 168.50394l13.624664 0.24934387l-0.24932861 -7.3753204l-1.6273193 -4.750656l-3.873993 -2.8740234l-7.8740234 -1.2493439l-25.375336 -0.25196838l-8.125977 1.0l-4.8740234 2.7506561l-2.2493286 4.125992l-0.7506714 6.3753204l0.24935913 17.0l0.50131226 7.249344l3.3726807 3.4986877l7.3753357 2.5013123l31.125977 0l8.498688 -1.6246643l4.2519836 -5.125992l0.49868774 -10.498688l-13.874023 -0.12597656l0 3.7506561l-1.6246643 2.123352l-2.3753357 0.50131226l-18.75064 0.3753357l-3.2493591 -1.0l-1.5013123 -2.0l-0.74801636 -2.7506561l0.24932861 -12.498688l0.87402344 -2.5013123l2.3753357 -1.1259918l2.2493286 -0.49868774l17.876648 0.12599182l3.0 0.6246643l1.2493286 1.1233673z" fill-rule="nonzero"></path><path fill="#ffffff" d="m9.732284 196.28084l-0.57480335 -43.196854l46.419945 0l7.947506 2.7664032l3.2257233 7.485565l-1.3805771 7.4881897l-3.4566917 3.2257233l-6.4514465 0.5747986l-6.6797867 -3.225708l4.1469803 -2.5328217l-0.8057747 -3.6876526l-4.2624664 -1.265091l-24.766405 0l0.23097038 20.61679z" fill-rule="nonzero"></path><path fill="#ffffff" d="m22.057743 171.28346l37.207348 0l6.448822 6.566925l1.1522293 6.5669403l-2.6482925 6.679779l-5.645672 4.606308l-7.7165337 0.8083954l-41.007874 0l8.293964 -11.981628l30.87139 -0.3438263l4.146984 -2.535431l-0.5774307 -3.800537l-4.2624664 -1.0367432l-27.643044 -0.23097229z" fill-rule="nonzero"></path><path fill="#ffffff" d="m72.10761 196.28084l0.23097229 -43.196854l44.577423 -0.115478516l5.183731 1.0367432l2.994751 3.4566956l1.4960632 5.7585297l-0.5748062 10.251968l-1.4986877 3.9160156l-4.952751 2.3044586l-9.905518 1.2677155l-0.23097229 -6.682419l3.803154 -3.3385773l-0.69291687 -5.183731l-3.916008 -1.9580078l-23.267715 -0.115478516l-0.23097229 10.9422455z" fill-rule="nonzero"></path><path fill="#ffffff" d="m72.10761 196.16536l6.2204742 -22.0l33.28871 0.3438263l8.062988 5.2992096l4.8372726 1.2677155l1.4986877 4.490814l-0.115486145 10.829407l-13.131233 0l0 -7.834656l-1.6115494 -2.301834l-2.1889725 -0.8083954l-23.267715 -0.22834778l0.22834015 11.288712z" fill-rule="nonzero"></path><path fill="#ffffff" d="m202.84514 153.08398l20.388458 -0.115478516l22.692917 43.312332l-15.320221 0.115493774l-16.931747 -33.635178l-2.6509247 0.45932007l-16.585297 33.40419l-14.745407 -0.5747986z" fill-rule="nonzero"></path><path fill="#ffffff" d="m202.03937 178.88715l22.115494 0.3464508l5.2992096 9.905518l-34.094498 -0.23097229z" fill-rule="nonzero"></path><path fill="#ffffff" d="m410.84515 153.08398l20.388428 -0.115478516l22.692932 43.312332l-15.320221 0.115493774l-16.931763 -33.635178l-2.6509094 0.45932007l-16.585297 33.40419l-14.745422 -0.5747986z" fill-rule="nonzero"></path><path fill="#ffffff" d="m410.03937 178.88715l22.115479 0.3464508l5.299225 9.905518l-34.094482 -0.23097229z" fill-rule="nonzero"></path></g></svg>

