<?xml version="1.0" standalone="yes"?>

<svg version="1.1" viewBox="0.0 0.0 509.0 242.0" fill="none" stroke="none" stroke-linecap="square" stroke-miterlimit="10" xmlns="http://www.w3.org/2000/svg" xmlns:xlink="http://www.w3.org/1999/xlink"><clipPath id="p.0"><path d="m0 0l509.0 0l0 242.0l-509.0 0l0 -242.0z" clip-rule="nonzero"></path></clipPath><g clip-path="url(#p.0)"><path fill="#000000" fill-opacity="0.0" d="m0 0l509.7034 0l0 242.37534l-509.7034 0z" fill-rule="nonzero"></path><path fill="#f9cb9c" d="m495.08923 126.055115l-19.73227 21.559052l-8.036743 0.72966003l-42.01837 19.72966l-46.404205 16.076126l-11.32547 0.3674469l-13.8845215 4.0183716l-90.61417 1.826767l-8.40419 -3.2887115l-43.115494 45.67192l3.6535492 -14.614166l3.2887115 -5.480316l-5.8451385 3.653534l-2.5590668 -5.8451385l13.154861 -8.404205l-4.3858337 -2.5590515l-11.325455 6.9422607l-1.4619446 -6.9422607l17.173233 -11.325455l-4.750656 -4.3858337l-14.979004 10.59581l-6.2126007 -2.9212646l15.711288 -13.154861l-1.4619446 -4.383194l-16.80577 8.401566l-5.4829407 -8.401566l11.692917 -8.039368l-12.787399 3.2887115l-33.98163 -38.72966l-11.32547 -1.0971222l-25.577423 6.2126007l-67.22835 34.34384l-13.884514 -1.4619446l50.422573 -23.018372l-47.866142 9.501312l12.790024 -11.3280945l31.055122 -7.6719055l-26.30709 0.72966003l32.519684 -22.65355l-6.577423 -15.711288l38.72966 1.0971146l-40.921265 -4.0183716l-22.288712 -16.443573l19.72966 2.9238892l-32.517063 -13.519684l29.960629 2.5590515l-30.692913 -8.404198l28.866146 2.556427l26.671913 11.692917l34.71129 9.498688l40.556427 -7.671921l30.32808 -12.422569l28.133865 -4.385826l-15.346451 -16.076115l13.884506 -4.0183754l-21.556427 -2.5590515l-12.057739 -18.632547l15.711273 0l37.632553 5.8451443l33.249344 9.501312l57.364838 -0.36745453l43.11548 9.501312l40.556427 22.288715l48.595795 35.07611l11.32547 3.6535492z" fill-rule="nonzero"></path><path stroke="#000000" stroke-width="2.0" stroke-linejoin="round" stroke-linecap="butt" d="m495.08923 126.055115l-19.73227 21.559052l-8.036743 0.72966003l-42.01837 19.72966l-46.404205 16.076126l-11.32547 0.3674469l-13.8845215 4.0183716l-90.61417 1.826767l-8.40419 -3.2887115l-43.115494 45.67192l3.6535492 -14.614166l3.2887115 -5.480316l-5.8451385 3.653534l-2.5590668 -5.8451385l13.154861 -8.404205l-4.3858337 -2.5590515l-11.325455 6.9422607l-1.4619446 -6.9422607l17.173233 -11.325455l-4.750656 -4.3858337l-14.979004 10.59581l-6.2126007 -2.9212646l15.711288 -13.154861l-1.4619446 -4.383194l-16.80577 8.401566l-5.4829407 -8.401566l11.692917 -8.039368l-12.787399 3.2887115l-33.98163 -38.72966l-11.32547 -1.0971222l-25.577423 6.2126007l-67.22835 34.34384l-13.884514 -1.4619446l50.422573 -23.018372l-47.866142 9.501312l12.790024 -11.3280945l31.055122 -7.6719055l-26.30709 0.72966003l32.519684 -22.65355l-6.577423 -15.711288l38.72966 1.0971146l-40.921265 -4.0183716l-22.288712 -16.443573l19.72966 2.9238892l-32.517063 -13.519684l29.960629 2.5590515l-30.692913 -8.404198l28.866146 2.556427l26.671913 11.692917l34.71129 9.498688l40.556427 -7.671921l30.32808 -12.422569l28.133865 -4.385826l-15.346451 -16.076115l13.884506 -4.0183754l-21.556427 -2.5590515l-12.057739 -18.632547l15.711273 0l37.632553 5.8451443l33.249344 9.501312l57.364838 -0.36745453l43.11548 9.501312l40.556427 22.288715l48.595795 35.07611l11.32547 3.6535492z" fill-rule="nonzero"></path><path fill="#ffffff" d="m467.32022 116.732285l0 0c0 -4.9401245 3.1868896 -8.944885 7.118103 -8.944885l0 0c1.8878479 0 3.6983643 0.9424057 5.033264 2.619896c1.3348999 1.6774902 2.0848389 3.9526596 2.0848389 6.3249893l0 0c0 4.9401245 -3.1868896 8.944878 -7.118103 8.944878l0 0c-3.9312134 0 -7.118103 -4.004753 -7.118103 -8.944878z" fill-rule="nonzero"></path><path stroke="#000000" stroke-width="2.0" stroke-linejoin="round" stroke-linecap="butt" d="m467.32022 116.732285l0 0c0 -4.9401245 3.1868896 -8.944885 7.118103 -8.944885l0 0c1.8878479 0 3.6983643 0.9424057 5.033264 2.619896c1.3348999 1.6774902 2.0848389 3.9526596 2.0848389 6.3249893l0 0c0 4.9401245 -3.1868896 8.944878 -7.118103 8.944878l0 0c-3.9312134 0 -7.118103 -4.004753 -7.118103 -8.944878z" fill-rule="nonzero"></path><path fill="#000000" d="m473.89502 118.2014l0 0c0 -2.3222046 1.5511475 -4.2047195 3.464569 -4.2047195l0 0c0.91885376 0 1.8000793 0.44299316 2.4497986 1.2315292c0.64974976 0.7885437 1.0147705 1.8580322 1.0147705 2.9731903l0 0c0 2.3222046 -1.5511475 4.204727 -3.464569 4.204727l0 0c-1.9134216 0 -3.464569 -1.8825226 -3.464569 -4.204727z" fill-rule="nonzero"></path><path stroke="#000000" stroke-width="2.0" stroke-linejoin="round" stroke-linecap="butt" d="m473.89502 118.2014l0 0c0 -2.3222046 1.5511475 -4.2047195 3.464569 -4.2047195l0 0c0.91885376 0 1.8000793 0.44299316 2.4497986 1.2315292c0.64974976 0.7885437 1.0147705 1.8580322 1.0147705 2.9731903l0 0c0 2.3222046 -1.5511475 4.204727 -3.464569 4.204727l0 0c-1.9134216 0 -3.464569 -1.8825226 -3.464569 -4.204727z" fill-rule="nonzero"></path><path fill="#000000" fill-opacity="0.0" d="m494.35696 126.419945l-24.472443 12.409447" fill-rule="nonzero"></path><path stroke="#000000" stroke-width="2.0" stroke-linejoin="round" stroke-linecap="butt" d="m494.35696 126.419945l-24.472443 12.409447" fill-rule="nonzero"></path><path fill="#b45f06" d="m414.70602 143.95801l-29.595795 10.230972l-37.270325 17.905502l-6.2099915 8.769028l27.036743 1.4593201l35.07611 -12.055115z" fill-rule="nonzero"></path><path stroke="#000000" stroke-width="2.0" stroke-linejoin="round" stroke-linecap="butt" d="m414.70602 143.95801l-29.595795 10.230972l-37.270325 17.905502l-6.2099915 8.769028l27.036743 1.4593201l35.07611 -12.055115z" fill-rule="nonzero"></path><path fill="#000000" fill-opacity="0.0" d="m133.72966 86.5958l-14.251968 11.325455l1.0971146 20.826775l14.981621 12.057739" fill-rule="nonzero"></path><path stroke="#000000" stroke-width="2.0" stroke-linejoin="round" stroke-linecap="butt" d="m133.72966 86.5958l-14.251968 11.325455l1.0971146 20.826775l14.981621 12.057739" fill-rule="nonzero"></path><path fill="#000000" fill-opacity="0.0" d="m153.45932 130.44095l13.152222 -2.1942291l46.039383 27.769028l21.19159 18.27034l24.115494 13.152237l-3.2887115 -1.8267822" fill-rule="nonzero"></path><path stroke="#000000" stroke-width="2.0" stroke-linejoin="round" stroke-linecap="butt" d="m153.45932 130.44095l13.152222 -2.1942291l46.039383 27.769028l21.19159 18.27034l24.115494 13.152237l-3.2887115 -1.8267822" fill-rule="nonzero"></path><path fill="#b45f06" d="m133.3622 87.32546l-12.057739 11.328079l0.73228455 20.09449l14.249344 13.154861l-17.902885 3.653534l-68.325455 33.979004l-14.249344 -0.72966003l51.517063 -23.385818l-48.960632 9.501312l13.519684 -12.0577545l31.057747 -6.577423l-24.84777 0l31.42257 -22.288712l-6.942253 -15.711288l38.36483 1.0971146l-40.921265 -4.0183716l-21.1916 -15.711288l19.364834 2.1916046l-32.154858 -13.519684l28.866138 2.191597l-29.595798 -8.036743l29.230968 2.191597l25.94226 12.422577z" fill-rule="nonzero"></path><path stroke="#000000" stroke-width="2.0" stroke-linejoin="round" stroke-linecap="butt" d="m133.3622 87.32546l-12.057739 11.328079l0.73228455 20.09449l14.249344 13.154861l-17.902885 3.653534l-68.325455 33.979004l-14.249344 -0.72966003l51.517063 -23.385818l-48.960632 9.501312l13.519684 -12.0577545l31.057747 -6.577423l-24.84777 0l31.42257 -22.288712l-6.942253 -15.711288l38.36483 1.0971146l-40.921265 -4.0183716l-21.1916 -15.711288l19.364834 2.1916046l-32.154858 -13.519684l28.866138 2.191597l-29.595798 -8.036743l29.230968 2.191597l25.94226 12.422577z" fill-rule="nonzero"></path><path fill="#b45f06" d="m155.65092 130.07611l10.960617 -1.8293915l46.769043 28.13649l19.0 18.267715l23.385818 11.328079l-44.577423 46.40158l7.307083 -19.364838l-6.577423 4.0183716l-2.5564423 -6.5747986l13.8845215 -8.404205l-4.0183716 -2.1942291l-10.963257 6.2126007l-1.826767 -6.9422455l17.173218 -10.59581l-4.750656 -4.0183716l-15.343826 10.230972l-4.750656 -3.2887115l14.979004 -12.422577l-1.826767 -5.1154785l-17.170609 8.769028l-5.4829407 -8.404205l12.425201 -8.40419l-13.8845215 3.653534z" fill-rule="nonzero"></path><path stroke="#000000" stroke-width="2.0" stroke-linejoin="round" stroke-linecap="butt" d="m155.65092 130.07611l10.960617 -1.8293915l46.769043 28.13649l19.0 18.267715l23.385818 11.328079l-44.577423 46.40158l7.307083 -19.364838l-6.577423 4.0183716l-2.5564423 -6.5747986l13.8845215 -8.404205l-4.0183716 -2.1942291l-10.963257 6.2126007l-1.826767 -6.9422455l17.173218 -10.59581l-4.750656 -4.0183716l-15.343826 10.230972l-4.750656 -3.2887115l14.979004 -12.422577l-1.826767 -5.1154785l-17.170609 8.769028l-5.4829407 -8.404205l12.425201 -8.40419l-13.8845215 3.653534z" fill-rule="nonzero"></path><path fill="#b45f06" d="m233.47769 61.01837l50.787415 -24.845142l-31.057755 -9.866142l-39.094498 -5.115486l-14.616791 -0.36483002l13.519684 18.26772l20.097107 1.8267708l-16.078735 2.9238853z" fill-rule="nonzero"></path><path stroke="#000000" stroke-width="2.0" stroke-linejoin="round" stroke-linecap="butt" d="m233.47769 61.01837l50.787415 -24.845142l-31.057755 -9.866142l-39.094498 -5.115486l-14.616791 -0.36483002l13.519684 18.26772l20.097107 1.8267708l-16.078735 2.9238853z" fill-rule="nonzero"></path><path fill="#000000" fill-opacity="0.0" d="m442.1076 93.1706l-11.690277 18.63517l-4.020996 20.826782l21.559052 19.364822" fill-rule="nonzero"></path><path stroke="#000000" stroke-width="2.0" stroke-linejoin="round" stroke-linecap="butt" d="m442.1076 93.1706l-11.690277 18.63517l-4.020996 20.826782l21.559052 19.364822" fill-rule="nonzero"></path><path fill="#000000" fill-opacity="0.0" d="m333.59055 104.13386l-2.9238892 6.209976l4.020996 6.212593" fill-rule="nonzero"></path><path stroke="#000000" stroke-width="1.0" stroke-linejoin="round" stroke-linecap="butt" d="m333.59055 104.13386l-2.9238892 6.209976l4.020996 6.212593" fill-rule="nonzero"></path><path fill="#000000" fill-opacity="0.0" d="m349.59055 112.13386l-2.9238892 6.209976l4.020996 6.212593" fill-rule="nonzero"></path><path stroke="#000000" stroke-width="1.0" stroke-linejoin="round" stroke-linecap="butt" d="m349.59055 112.13386l-2.9238892 6.209976l4.020996 6.212593" fill-rule="nonzero"></path><path fill="#000000" fill-opacity="0.0" d="m329.56955 114.97638l-2.9238892 6.2099686l4.020996 6.2126007" fill-rule="nonzero"></path><path stroke="#000000" stroke-width="1.0" stroke-linejoin="round" stroke-linecap="butt" d="m329.56955 114.97638l-2.9238892 6.2099686l4.020996 6.2126007" fill-rule="nonzero"></path><path fill="#000000" fill-opacity="0.0" d="m370.34122 104.99213l-2.9238892 6.209976l4.020996 6.212593" fill-rule="nonzero"></path><path stroke="#000000" stroke-width="1.0" stroke-linejoin="round" stroke-linecap="butt" d="m370.34122 104.99213l-2.9238892 6.209976l4.020996 6.212593" fill-rule="nonzero"></path><path fill="#000000" fill-opacity="0.0" d="m370.34122 128.99213l-2.9238892 6.209976l4.020996 6.2126007" fill-rule="nonzero"></path><path stroke="#000000" stroke-width="1.0" stroke-linejoin="round" stroke-linecap="butt" d="m370.34122 128.99213l-2.9238892 6.209976l4.020996 6.2126007" fill-rule="nonzero"></path><path fill="#000000" fill-opacity="0.0" d="m350.32022 131.83464l-2.9238892 6.209976l4.020996 6.2126007" fill-rule="nonzero"></path><path stroke="#000000" stroke-width="1.0" stroke-linejoin="round" stroke-linecap="butt" d="m350.32022 131.83464l-2.9238892 6.209976l4.020996 6.2126007" fill-rule="nonzero"></path><path fill="#000000" fill-opacity="0.0" d="m317.54855 136.86613l-2.9238892 6.209976l4.020996 6.2126007" fill-rule="nonzero"></path><path stroke="#000000" stroke-width="1.0" stroke-linejoin="round" stroke-linecap="butt" d="m317.54855 136.86613l-2.9238892 6.209976l4.020996 6.2126007" fill-rule="nonzero"></path><path fill="#000000" fill-opacity="0.0" d="m325.54855 144.86613l-2.9238892 6.209976l4.020996 6.2126007" fill-rule="nonzero"></path><path stroke="#000000" stroke-width="1.0" stroke-linejoin="round" stroke-linecap="butt" d="m325.54855 144.86613l-2.9238892 6.209976l4.020996 6.2126007" fill-rule="nonzero"></path><path fill="#000000" fill-opacity="0.0" d="m305.52756 155.70866l-2.9238892 6.209976l4.020996 6.2126007" fill-rule="nonzero"></path><path stroke="#000000" stroke-width="1.0" stroke-linejoin="round" stroke-linecap="butt" d="m305.52756 155.70866l-2.9238892 6.209976l4.020996 6.2126007" fill-rule="nonzero"></path><path fill="#000000" fill-opacity="0.0" d="m301.59055 64.13386l-2.9238892 6.209976l4.020996 6.212593" fill-rule="nonzero"></path><path stroke="#000000" stroke-width="1.0" stroke-linejoin="round" stroke-linecap="butt" d="m301.59055 64.13386l-2.9238892 6.209976l4.020996 6.212593" fill-rule="nonzero"></path><path fill="#000000" fill-opacity="0.0" d="m317.59055 72.13386l-2.9238892 6.209976l4.020996 6.212593" fill-rule="nonzero"></path><path stroke="#000000" stroke-width="1.0" stroke-linejoin="round" stroke-linecap="butt" d="m317.59055 72.13386l-2.9238892 6.209976l4.020996 6.212593" fill-rule="nonzero"></path><path fill="#000000" fill-opacity="0.0" d="m305.56955 74.97638l-2.9238892 6.2099686l4.020996 6.2126007" fill-rule="nonzero"></path><path stroke="#000000" stroke-width="1.0" stroke-linejoin="round" stroke-linecap="butt" d="m305.56955 74.97638l-2.9238892 6.2099686l4.020996 6.2126007" fill-rule="nonzero"></path><path fill="#000000" fill-opacity="0.0" d="m338.34122 64.99213l-2.9238892 6.209976l4.020996 6.212593" fill-rule="nonzero"></path><path stroke="#000000" stroke-width="1.0" stroke-linejoin="round" stroke-linecap="butt" d="m338.34122 64.99213l-2.9238892 6.209976l4.020996 6.212593" fill-rule="nonzero"></path><path fill="#000000" fill-opacity="0.0" d="m354.34122 72.99213l-2.9238892 6.209976l4.020996 6.212593" fill-rule="nonzero"></path><path stroke="#000000" stroke-width="1.0" stroke-linejoin="round" stroke-linecap="butt" d="m354.34122 72.99213l-2.9238892 6.209976l4.020996 6.212593" fill-rule="nonzero"></path><path fill="#000000" fill-opacity="0.0" d="m326.32022 91.83465l-2.9238892 6.2099686l4.020996 6.2126007" fill-rule="nonzero"></path><path stroke="#000000" stroke-width="1.0" stroke-linejoin="round" stroke-linecap="butt" d="m326.32022 91.83465l-2.9238892 6.2099686l4.020996 6.2126007" fill-rule="nonzero"></path><path fill="#000000" fill-opacity="0.0" d="m293.54855 96.86614l-2.9238892 6.209976l4.020996 6.212593" fill-rule="nonzero"></path><path stroke="#000000" stroke-width="1.0" stroke-linejoin="round" stroke-linecap="butt" d="m293.54855 96.86614l-2.9238892 6.209976l4.020996 6.212593" fill-rule="nonzero"></path><path fill="#000000" fill-opacity="0.0" d="m301.54855 104.86614l-2.9238892 6.209976l4.020996 6.212593" fill-rule="nonzero"></path><path stroke="#000000" stroke-width="1.0" stroke-linejoin="round" stroke-linecap="butt" d="m301.54855 104.86614l-2.9238892 6.209976l4.020996 6.212593" fill-rule="nonzero"></path><path fill="#000000" fill-opacity="0.0" d="m289.52756 107.708664l-2.9238892 6.2099686l4.020996 6.2126007" fill-rule="nonzero"></path><path stroke="#000000" stroke-width="1.0" stroke-linejoin="round" stroke-linecap="butt" d="m289.52756 107.708664l-2.9238892 6.2099686l4.020996 6.2126007" fill-rule="nonzero"></path><path fill="#000000" fill-opacity="0.0" d="m262.20078 83.20473l-2.9238586 6.2099686l4.020996 6.2126007" fill-rule="nonzero"></path><path stroke="#000000" stroke-width="1.0" stroke-linejoin="round" stroke-linecap="butt" d="m262.20078 83.20473l-2.9238586 6.2099686l4.020996 6.2126007" fill-rule="nonzero"></path><path fill="#000000" fill-opacity="0.0" d="m270.20078 115.20473l-2.9238586 6.2099686l4.020996 6.2126007" fill-rule="nonzero"></path><path stroke="#000000" stroke-width="1.0" stroke-linejoin="round" stroke-linecap="butt" d="m270.20078 115.20473l-2.9238586 6.2099686l4.020996 6.2126007" fill-rule="nonzero"></path><path fill="#000000" fill-opacity="0.0" d="m258.17978 118.04724l-2.923874 6.209976l4.0210114 6.2126007" fill-rule="nonzero"></path><path stroke="#000000" stroke-width="1.0" stroke-linejoin="round" stroke-linecap="butt" d="m258.17978 118.04724l-2.923874 6.209976l4.0210114 6.2126007" fill-rule="nonzero"></path><path fill="#000000" fill-opacity="0.0" d="m282.95145 124.062996l-2.9238892 6.2099686l4.020996 6.2126007" fill-rule="nonzero"></path><path stroke="#000000" stroke-width="1.0" stroke-linejoin="round" stroke-linecap="butt" d="m282.95145 124.062996l-2.9238892 6.2099686l4.020996 6.2126007" fill-rule="nonzero"></path><path fill="#000000" fill-opacity="0.0" d="m290.95145 132.06299l-2.9238892 6.209976l4.020996 6.2126007" fill-rule="nonzero"></path><path stroke="#000000" stroke-width="1.0" stroke-linejoin="round" stroke-linecap="butt" d="m290.95145 132.06299l-2.9238892 6.209976l4.020996 6.2126007" fill-rule="nonzero"></path><path fill="#000000" fill-opacity="0.0" d="m262.93045 150.90552l-2.9238892 6.209961l4.020996 6.2126007" fill-rule="nonzero"></path><path stroke="#000000" stroke-width="1.0" stroke-linejoin="round" stroke-linecap="butt" d="m262.93045 150.90552l-2.9238892 6.209961l4.020996 6.2126007" fill-rule="nonzero"></path><path fill="#000000" fill-opacity="0.0" d="m222.1588 115.937004l-2.9238892 6.209976l4.020996 6.212593" fill-rule="nonzero"></path><path stroke="#000000" stroke-width="1.0" stroke-linejoin="round" stroke-linecap="butt" d="m222.1588 115.937004l-2.9238892 6.209976l4.020996 6.212593" fill-rule="nonzero"></path><path fill="#000000" fill-opacity="0.0" d="m230.1588 123.937004l-2.9238892 6.209984l4.020996 6.2125854" fill-rule="nonzero"></path><path stroke="#000000" stroke-width="1.0" stroke-linejoin="round" stroke-linecap="butt" d="m230.1588 123.937004l-2.9238892 6.209984l4.020996 6.2125854" fill-rule="nonzero"></path><path fill="#000000" fill-opacity="0.0" d="m218.1378 126.779526l-2.9238892 6.209976l4.020996 6.2126007" fill-rule="nonzero"></path><path stroke="#000000" stroke-width="1.0" stroke-linejoin="round" stroke-linecap="butt" d="m218.1378 126.779526l-2.9238892 6.209976l4.020996 6.2126007" fill-rule="nonzero"></path></g></svg>

