<?xml version="1.0" standalone="yes"?>

<svg version="1.1" viewBox="0.0 0.0 509.0 242.0" fill="none" stroke="none" stroke-linecap="square" stroke-miterlimit="10" xmlns="http://www.w3.org/2000/svg" xmlns:xlink="http://www.w3.org/1999/xlink"><clipPath id="p.0"><path d="m0 0l509.0 0l0 242.0l-509.0 0l0 -242.0z" clip-rule="nonzero"></path>

</clipPath><g clip-path="url(#p.0)"><path fill="#000000" fill-opacity="0.0" d="m0 0l509.7034 0l0 242.37534l-509.7034 0z" fill-rule="nonzero"></path>
<path fill="#666666" d="m278.47507 134.44882l-0.37008667 50.46457l-7.734894 0.73490906l-6.2624817 -31.67717l4.4199524 -41.992126l-9.207336 0.36745453l-5.157486 53.41207l2.9474945 15.469818l-11.05249 -3.6824188l-5.154846 -24.312332l1.4724426 -43.832024l-9.944885 1.1049881l-0.73753357 45.307083l2.2099762 12.154861l-10.682419 -8.104996l-5.157486 -31.677155l-11.417313 16.207352l-15.839905 -16.207352l75.14436 -55.622047z" fill-rule="nonzero"></path>
<path stroke="#000000" stroke-width="2.0" stroke-linejoin="round" stroke-linecap="butt" d="m278.47507 134.44882l-0.37008667 50.46457l-7.734894 0.73490906l-6.2624817 -31.67717l4.4199524 -41.992126l-9.207336 0.36745453l-5.157486 53.41207l2.9474945 15.469818l-11.05249 -3.6824188l-5.154846 -24.312332l1.4724426 -43.832024l-9.944885 1.1049881l-0.73753357 45.307083l2.2099762 12.154861l-10.682419 -8.104996l-5.157486 -31.677155l-11.417313 16.207352l-15.839905 -16.207352l75.14436 -55.622047z" fill-rule="nonzero"></path>
<path fill="#f9cb9c" d="m134.07874 86.19423l40.887146 -6.9973755l31.679794 -12.892395l26.889755 -4.05249l50.83203 -25.784779l55.989502 -1.8425179l45.307068 11.419949l40.519684 21.364826l48.251984 35.72966l11.419952 3.3149643l9.577423 20.259842l-21.364838 20.994751l-7.734894 -0.36746216l-43.097137 20.994751l-43.097107 15.472443l-12.892395 1.1049957l-13.629913 4.0498657l-91.71915 2.2099762l25.417328 -22.467194l-16.944885 -38.309708l-67.409454 6.6299133l-58.566925 -8.83989l-12.154861 4.419937l-22.469818 -19.154846z" fill-rule="nonzero"></path>
<path stroke="#000000" stroke-width="2.0" stroke-linejoin="round" stroke-linecap="butt" d="m134.07874 86.19423l40.887146 -6.9973755l31.679794 -12.892395l26.889755 -4.05249l50.83203 -25.784779l55.989502 -1.8425179l45.307068 11.419949l40.519684 21.364826l48.251984 35.72966l11.419952 3.3149643l9.577423 20.259842l-21.364838 20.994751l-7.734894 -0.36746216l-43.097137 20.994751l-43.097107 15.472443l-12.892395 1.1049957l-13.629913 4.0498657l-91.71915 2.2099762l25.417328 -22.467194l-16.944885 -38.309708l-67.409454 6.6299133l-58.566925 -8.83989l-12.154861 4.419937l-22.469818 -19.154846z" fill-rule="nonzero"></path>
<path fill="#b45f06" d="m133.3622 87.32546l-12.057739 11.328079l0.73228455 20.09449l14.249344 13.154861l-17.902885 3.653534l-68.325455 33.979004l-14.249344 -0.72966003l51.517063 -23.385818l-48.960632 9.501312l13.519684 -12.0577545l31.057747 -6.577423l-24.84777 0l31.42257 -22.288712l-6.942253 -15.711288l38.36483 1.0971146l-40.921265 -4.0183716l-21.1916 -15.711288l19.364834 2.1916046l-32.154858 -13.519684l28.866138 2.191597l-29.595798 -8.036743l29.230968 2.191597l25.94226 12.422577z" fill-rule="nonzero"></path>
<path stroke="#000000" stroke-width="2.0" stroke-linejoin="round" stroke-linecap="butt" d="m133.3622 87.32546l-12.057739 11.328079l0.73228455 20.09449l14.249344 13.154861l-17.902885 3.653534l-68.325455 33.979004l-14.249344 -0.72966003l51.517063 -23.385818l-48.960632 9.501312l13.519684 -12.0577545l31.057747 -6.577423l-24.84777 0l31.42257 -22.288712l-6.942253 -15.711288l38.36483 1.0971146l-40.921265 -4.0183716l-21.1916 -15.711288l19.364834 2.1916046l-32.154858 -13.519684l28.866138 2.191597l-29.595798 -8.036743l29.230968 2.191597l25.94226 12.422577z" fill-rule="nonzero"></path>
<path fill="#b45f06" d="m233.47769 61.01837l50.787415 -24.845142l-31.057755 -9.866142l-39.094498 -5.115486l-14.616791 -0.36483002l13.519684 18.26772l20.097107 1.8267708l-16.078735 2.9238853z" fill-rule="nonzero"></path>
<path stroke="#000000" stroke-width="2.0" stroke-linejoin="round" stroke-linecap="butt" d="m233.47769 61.01837l50.787415 -24.845142l-31.057755 -9.866142l-39.094498 -5.115486l-14.616791 -0.36483002l13.519684 18.26772l20.097107 1.8267708l-16.078735 2.9238853z" fill-rule="nonzero"></path>
<path fill="#000000" fill-opacity="0.0" d="m333.59055 104.13386l-2.9238892 6.209976l4.020996 6.212593" fill-rule="nonzero"></path>
<path stroke="#000000" stroke-width="1.0" stroke-linejoin="round" stroke-linecap="butt" d="m333.59055 104.13386l-2.9238892 6.209976l4.020996 6.212593" fill-rule="nonzero"></path>
<path fill="#000000" fill-opacity="0.0" d="m349.59055 112.13386l-2.9238892 6.209976l4.020996 6.212593" fill-rule="nonzero"></path>
<path stroke="#000000" stroke-width="1.0" stroke-linejoin="round" stroke-linecap="butt" d="m349.59055 112.13386l-2.9238892 6.209976l4.020996 6.212593" fill-rule="nonzero"></path>
<path fill="#000000" fill-opacity="0.0" d="m329.56955 114.97638l-2.9238892 6.2099686l4.020996 6.2126007" fill-rule="nonzero"></path>
<path stroke="#000000" stroke-width="1.0" stroke-linejoin="round" stroke-linecap="butt" d="m329.56955 114.97638l-2.9238892 6.2099686l4.020996 6.2126007" fill-rule="nonzero"></path>
<path fill="#000000" fill-opacity="0.0" d="m370.34122 104.99213l-2.9238892 6.209976l4.020996 6.212593" fill-rule="nonzero"></path>
<path stroke="#000000" stroke-width="1.0" stroke-linejoin="round" stroke-linecap="butt" d="m370.34122 104.99213l-2.9238892 6.209976l4.020996 6.212593" fill-rule="nonzero"></path>
<path fill="#000000" fill-opacity="0.0" d="m370.34122 128.99213l-2.9238892 6.209976l4.020996 6.2126007" fill-rule="nonzero"></path>
<path stroke="#000000" stroke-width="1.0" stroke-linejoin="round" stroke-linecap="butt" d="m370.34122 128.99213l-2.9238892 6.209976l4.020996 6.2126007" fill-rule="nonzero"></path>
<path fill="#000000" fill-opacity="0.0" d="m350.32022 131.83464l-2.9238892 6.209976l4.020996 6.2126007" fill-rule="nonzero"></path>
<path stroke="#000000" stroke-width="1.0" stroke-linejoin="round" stroke-linecap="butt" d="m350.32022 131.83464l-2.9238892 6.209976l4.020996 6.2126007" fill-rule="nonzero"></path>
<path fill="#000000" fill-opacity="0.0" d="m317.54855 136.86613l-2.9238892 6.209976l4.020996 6.2126007" fill-rule="nonzero"></path>
<path stroke="#000000" stroke-width="1.0" stroke-linejoin="round" stroke-linecap="butt" d="m317.54855 136.86613l-2.9238892 6.209976l4.020996 6.2126007" fill-rule="nonzero"></path>
<path fill="#000000" fill-opacity="0.0" d="m325.54855 144.86613l-2.9238892 6.209976l4.020996 6.2126007" fill-rule="nonzero"></path>
<path stroke="#000000" stroke-width="1.0" stroke-linejoin="round" stroke-linecap="butt" d="m325.54855 144.86613l-2.9238892 6.209976l4.020996 6.2126007" fill-rule="nonzero"></path>
<path fill="#000000" fill-opacity="0.0" d="m305.52756 155.70866l-2.9238892 6.209976l4.020996 6.2126007" fill-rule="nonzero"></path>
<path stroke="#000000" stroke-width="1.0" stroke-linejoin="round" stroke-linecap="butt" d="m305.52756 155.70866l-2.9238892 6.209976l4.020996 6.2126007" fill-rule="nonzero"></path>
<path fill="#000000" fill-opacity="0.0" d="m301.59055 64.13386l-2.9238892 6.209976l4.020996 6.212593" fill-rule="nonzero"></path>
<path stroke="#000000" stroke-width="1.0" stroke-linejoin="round" stroke-linecap="butt" d="m301.59055 64.13386l-2.9238892 6.209976l4.020996 6.212593" fill-rule="nonzero"></path>
<path fill="#000000" fill-opacity="0.0" d="m317.59055 72.13386l-2.9238892 6.209976l4.020996 6.212593" fill-rule="nonzero"></path>
<path stroke="#000000" stroke-width="1.0" stroke-linejoin="round" stroke-linecap="butt" d="m317.59055 72.13386l-2.9238892 6.209976l4.020996 6.212593" fill-rule="nonzero"></path>
<path fill="#000000" fill-opacity="0.0" d="m305.56955 74.97638l-2.9238892 6.2099686l4.020996 6.2126007" fill-rule="nonzero"></path>
<path stroke="#000000" stroke-width="1.0" stroke-linejoin="round" stroke-linecap="butt" d="m305.56955 74.97638l-2.9238892 6.2099686l4.020996 6.2126007" fill-rule="nonzero"></path>
<path fill="#000000" fill-opacity="0.0" d="m338.34122 64.99213l-2.9238892 6.209976l4.020996 6.212593" fill-rule="nonzero"></path>
<path stroke="#000000" stroke-width="1.0" stroke-linejoin="round" stroke-linecap="butt" d="m338.34122 64.99213l-2.9238892 6.209976l4.020996 6.212593" fill-rule="nonzero"></path>
<path fill="#000000" fill-opacity="0.0" d="m354.34122 72.99213l-2.9238892 6.209976l4.020996 6.212593" fill-rule="nonzero"></path>
<path stroke="#000000" stroke-width="1.0" stroke-linejoin="round" stroke-linecap="butt" d="m354.34122 72.99213l-2.9238892 6.209976l4.020996 6.212593" fill-rule="nonzero"></path>
<path fill="#000000" fill-opacity="0.0" d="m326.32022 91.83465l-2.9238892 6.2099686l4.020996 6.2126007" fill-rule="nonzero"></path>
<path stroke="#000000" stroke-width="1.0" stroke-linejoin="round" stroke-linecap="butt" d="m326.32022 91.83465l-2.9238892 6.2099686l4.020996 6.2126007" fill-rule="nonzero"></path>
<path fill="#000000" fill-opacity="0.0" d="m293.54855 96.86614l-2.9238892 6.209976l4.020996 6.212593" fill-rule="nonzero"></path>
<path stroke="#000000" stroke-width="1.0" stroke-linejoin="round" stroke-linecap="butt" d="m293.54855 96.86614l-2.9238892 6.209976l4.020996 6.212593" fill-rule="nonzero"></path>
<path fill="#000000" fill-opacity="0.0" d="m301.54855 104.86614l-2.9238892 6.209976l4.020996 6.212593" fill-rule="nonzero"></path>
<path stroke="#000000" stroke-width="1.0" stroke-linejoin="round" stroke-linecap="butt" d="m301.54855 104.86614l-2.9238892 6.209976l4.020996 6.212593" fill-rule="nonzero"></path>
<path fill="#000000" fill-opacity="0.0" d="m289.52756 107.708664l-2.9238892 6.2099686l4.020996 6.2126007" fill-rule="nonzero"></path>
<path stroke="#000000" stroke-width="1.0" stroke-linejoin="round" stroke-linecap="butt" d="m289.52756 107.708664l-2.9238892 6.2099686l4.020996 6.2126007" fill-rule="nonzero"></path>
<path fill="#000000" fill-opacity="0.0" d="m262.20078 83.20473l-2.9238586 6.2099686l4.020996 6.2126007" fill-rule="nonzero"></path>
<path stroke="#000000" stroke-width="1.0" stroke-linejoin="round" stroke-linecap="butt" d="m262.20078 83.20473l-2.9238586 6.2099686l4.020996 6.2126007" fill-rule="nonzero"></path>
<path fill="#000000" fill-opacity="0.0" d="m278.20078 115.20473l-2.9238586 6.2099686l4.020996 6.2126007" fill-rule="nonzero"></path>
<path stroke="#000000" stroke-width="1.0" stroke-linejoin="round" stroke-linecap="butt" d="m278.20078 115.20473l-2.9238586 6.2099686l4.020996 6.2126007" fill-rule="nonzero"></path>
<path fill="#000000" fill-opacity="0.0" d="m258.17978 102.04724l-2.923874 6.209976l4.0210114 6.2126007" fill-rule="nonzero"></path>
<path stroke="#000000" stroke-width="1.0" stroke-linejoin="round" stroke-linecap="butt" d="m258.17978 102.04724l-2.923874 6.209976l4.0210114 6.2126007" fill-rule="nonzero"></path>
<path fill="#000000" fill-opacity="0.0" d="m282.95145 124.062996l-2.9238892 6.2099686l4.020996 6.2126007" fill-rule="nonzero"></path>
<path stroke="#000000" stroke-width="1.0" stroke-linejoin="round" stroke-linecap="butt" d="m282.95145 124.062996l-2.9238892 6.2099686l4.020996 6.2126007" fill-rule="nonzero"></path>
<path fill="#000000" fill-opacity="0.0" d="m290.95145 132.06299l-2.9238892 6.209976l4.020996 6.2126007" fill-rule="nonzero"></path>
<path stroke="#000000" stroke-width="1.0" stroke-linejoin="round" stroke-linecap="butt" d="m290.95145 132.06299l-2.9238892 6.209976l4.020996 6.2126007" fill-rule="nonzero"></path>
<path fill="#000000" fill-opacity="0.0" d="m222.1588 107.937004l-2.9238892 6.209976l4.020996 6.2126007" fill-rule="nonzero"></path>
<path stroke="#000000" stroke-width="1.0" stroke-linejoin="round" stroke-linecap="butt" d="m222.1588 107.937004l-2.9238892 6.209976l4.020996 6.2126007" fill-rule="nonzero"></path>
<path fill="#b45f06" d="m414.70602 143.95801l-29.595795 10.230972l-37.270325 17.905502l-6.2099915 8.769028l27.036743 1.4593201l35.07611 -12.055115z" fill-rule="nonzero"></path>
<path stroke="#000000" stroke-width="2.0" stroke-linejoin="round" stroke-linecap="butt" d="m414.70602 143.95801l-29.595795 10.230972l-37.270325 17.905502l-6.2099915 8.769028l27.036743 1.4593201l35.07611 -12.055115z" fill-rule="nonzero"></path>
<path fill="#666666" d="m403.34384 170.54593l-34.80841 11.787399l-5.7086487 -0.73490906l28.178467 -11.419937l-3.8687744 -2.026245l-39.228333 12.89238l-4.7874146 -0.73753357l43.280853 -16.574799l1.4724426 -5.157486l-27.440948 9.577438l1.6561584 -4.2362213l41.624664 -14.548569l6.629944 1.8399048z" fill-rule="nonzero"></path>
<path stroke="#000000" stroke-width="2.0" stroke-linejoin="round" stroke-linecap="butt" d="m403.34384 170.54593l-34.80841 11.787399l-5.7086487 -0.73490906l28.178467 -11.419937l-3.8687744 -2.026245l-39.228333 12.89238l-4.7874146 -0.73753357l43.280853 -16.574799l1.4724426 -5.157486l-27.440948 9.577438l1.6561584 -4.2362213l41.624664 -14.548569l6.629944 1.8399048z" fill-rule="nonzero"></path>
<path fill="#990000" d="m282.15747 39.04462l53.041992 6.2624664l-6.9973755 9.209972l-27.994751 -1.8425179l-15.472443 16.574802l7.367462 3.3149643l-42.359573 5.524933l-19.154861 -7.734909l38.677185 -15.102364z" fill-rule="nonzero"></path>
<path stroke="#000000" stroke-width="2.0" stroke-linejoin="round" stroke-linecap="butt" d="m282.15747 39.04462l53.041992 6.2624664l-6.9973755 9.209972l-27.994751 -1.8425179l-15.472443 16.574802l7.367462 3.3149643l-42.359573 5.524933l-19.154861 -7.734909l38.677185 -15.102364z" fill-rule="nonzero"></path>
<path fill="#666666" d="m260.79266 75.879265l6.262451 -19.522308l-17.312332 7.0l-4.05249 12.154854l4.790024 1.1049881z" fill-rule="nonzero"></path>
<path stroke="#000000" stroke-width="2.0" stroke-linejoin="round" stroke-linecap="butt" d="m260.79266 75.879265l6.262451 -19.522308l-17.312332 7.0l-4.05249 12.154854l4.790024 1.1049881z" fill-rule="nonzero"></path>
<path fill="#666666" d="m334.46194 45.307087l-54.146973 -3.682415l-8.839905 11.787403l5.1574707 0.73490524l-3.685028 20.997375l16.944885 -2.5800476l-4.4199524 -4.787407l7.0 -15.10236l38.3071 -1.8425217z" fill-rule="nonzero"></path>
<path stroke="#000000" stroke-width="2.0" stroke-linejoin="round" stroke-linecap="butt" d="m334.46194 45.307087l-54.146973 -3.682415l-8.839905 11.787403l5.1574707 0.73490524l-3.685028 20.997375l16.944885 -2.5800476l-4.4199524 -4.787407l7.0 -15.10236l38.3071 -1.8425217z" fill-rule="nonzero"></path>
<path fill="#ffffff" d="m467.32022 116.732285l0 0c0 -4.9401245 3.1868896 -8.944885 7.118103 -8.944885l0 0c1.8878479 0 3.6983643 0.9424057 5.033264 2.619896c1.3348999 1.6774902 2.0848389 3.9526596 2.0848389 6.3249893l0 0c0 4.9401245 -3.1868896 8.944878 -7.118103 8.944878l0 0c-3.9312134 0 -7.118103 -4.004753 -7.118103 -8.944878z" fill-rule="nonzero"></path>
<path stroke="#000000" stroke-width="2.0" stroke-linejoin="round" stroke-linecap="butt" d="m467.32022 116.732285l0 0c0 -4.9401245 3.1868896 -8.944885 7.118103 -8.944885l0 0c1.8878479 0 3.6983643 0.9424057 5.033264 2.619896c1.3348999 1.6774902 2.0848389 3.9526596 2.0848389 6.3249893l0 0c0 4.9401245 -3.1868896 8.944878 -7.118103 8.944878l0 0c-3.9312134 0 -7.118103 -4.004753 -7.118103 -8.944878z" fill-rule="nonzero"></path>
<path fill="#000000" fill-opacity="0.0" d="m494.35696 126.419945l-24.472443 12.409447" fill-rule="nonzero"></path>
<path stroke="#000000" stroke-width="2.0" stroke-linejoin="round" stroke-linecap="butt" d="m494.35696 126.419945l-24.472443 12.409447" fill-rule="nonzero"></path>
<path fill="#999999" d="m423.60367 65.93438l11.419952 20.627296l-28.362213 1.1049881l-8.842499 25.417328l32.04724 8.472435l-2.9475098 12.522308l24.312317 20.997375l15.839905 -8.472443l34.25461 1.4724426l-21.362213 -9.207352l15.102356 -19.89238l-12.157471 -15.837273l-9.577423 -0.73753357z" fill-rule="nonzero"></path>
<path stroke="#000000" stroke-width="2.0" stroke-linejoin="round" stroke-linecap="butt" d="m423.60367 65.93438l11.419952 20.627296l-28.362213 1.1049881l-8.842499 25.417328l32.04724 8.472435l-2.9475098 12.522308l24.312317 20.997375l15.839905 -8.472443l34.25461 1.4724426l-21.362213 -9.207352l15.102356 -19.89238l-12.157471 -15.837273l-9.577423 -0.73753357z" fill-rule="nonzero"></path>
<path fill="#666666" d="m473.0551 104.40551l11.787415 5.8923874l-13.259857 17.31234l-7.367462 -7.734909l-33.519684 -4.419945l37.572205 -4.787407z" fill-rule="nonzero"></path>
<path stroke="#000000" stroke-width="2.0" stroke-linejoin="round" stroke-linecap="butt" d="m473.0551 104.40551l11.787415 5.8923874l-13.259857 17.31234l-7.367462 -7.734909l-33.519684 -4.419945l37.572205 -4.787407z" fill-rule="nonzero"></path>
<path fill="#999999" d="m456.84778 114.720474l0 0c0 -3.6616058 5.3584595 -6.629921 11.968506 -6.629921l0 0c6.610016 0 11.968506 2.9683151 11.968506 6.629921l0 0c0 3.6616058 -5.35849 6.629921 -11.968506 6.629921l0 0c-6.6100464 0 -11.968506 -2.9683151 -11.968506 -6.629921z" fill-rule="nonzero"></path>
<path stroke="#000000" stroke-width="2.0" stroke-linejoin="round" stroke-linecap="butt" d="m456.84778 114.720474l0 0c0 -3.6616058 5.3584595 -6.629921 11.968506 -6.629921l0 0c6.610016 0 11.968506 2.9683151 11.968506 6.629921l0 0c0 3.6616058 -5.35849 6.629921 -11.968506 6.629921l0 0c-6.6100464 0 -11.968506 -2.9683151 -11.968506 -6.629921z" fill-rule="nonzero"></path>
<path fill="#ff0000" d="m466.79517 113.80018l0 0c0 -2.3395996 2.6369324 -4.2362213 5.88974 -4.2362213l0 0c3.2528381 0 5.8897705 1.8966217 5.8897705 4.2362213l0 0c0 2.3395996 -2.6369324 4.2362213 -5.8897705 4.2362213l0 0c-3.2528076 0 -5.88974 -1.8966217 -5.88974 -4.2362213z" fill-rule="nonzero"></path>
<path stroke="#980000" stroke-width="2.0" stroke-linejoin="round" stroke-linecap="butt" d="m466.79517 113.80018l0 0c0 -2.3395996 2.6369324 -4.2362213 5.88974 -4.2362213l0 0c3.2528381 0 5.8897705 1.8966217 5.8897705 4.2362213l0 0c0 2.3395996 -2.6369324 4.2362213 -5.8897705 4.2362213l0 0c-3.2528076 0 -5.88974 -1.8966217 -5.88974 -4.2362213z" fill-rule="nonzero"></path>
<path fill="#efefef" d="m496.54068 122.86483l0 18.047249l-5.8950195 -17.679794l2.5800476 18.784775l-5.1574707 -12.522308l0.36746216 9.944885l-6.259857 -4.790024l1.4724426 8.472427l7.367462 -5.8923798l-1.8425293 7.367447l7.7349243 -4.790024l-2.577423 7.734909l-16.577423 -5.154846l8.10498 -19.154861z" fill-rule="nonzero"></path>
<path stroke="#000000" stroke-width="1.0" stroke-linejoin="round" stroke-linecap="butt" d="m496.54068 122.86483l0 18.047249l-5.8950195 -17.679794l2.5800476 18.784775l-5.1574707 -12.522308l0.36746216 9.944885l-6.259857 -4.790024l1.4724426 8.472427l7.367462 -5.8923798l-1.8425293 7.367447l7.7349243 -4.790024l-2.577423 7.734909l-16.577423 -5.154846l8.10498 -19.154861z" fill-rule="nonzero"></path>
<path fill="#000000" fill-opacity="0.0" d="m484.75067 114.55643l6.6299133 4.4199524l-6.6299133 2.9475021" fill-rule="nonzero"></path>
<path stroke="#000000" stroke-width="2.0" stroke-linejoin="round" stroke-linecap="butt" d="m484.75067 114.55643l6.6299133 4.4199524l-6.6299133 2.9475021" fill-rule="nonzero"></path>
<path fill="#000000" fill-opacity="0.0" d="m447.54593 96.87664l19.154846 2.9475098l-3.6824036 -5.157486" fill-rule="nonzero"></path>
<path stroke="#000000" stroke-width="2.0" stroke-linejoin="round" stroke-linecap="butt" d="m447.54593 96.87664l19.154846 2.9475098l-3.6824036 -5.157486" fill-rule="nonzero"></path>
<path fill="#666666" d="m419.19937 93.63942c8.220978 0.99196625 16.89444 3.9050446 22.102692 7.4234085c5.2082214 3.518364 5.965149 6.975876 1.928833 8.810806c-4.0362854 1.8349228 -12.101593 1.699852 -20.552856 -0.34420776z" fill-rule="nonzero"></path>
<path stroke="#000000" stroke-width="2.0" stroke-linejoin="round" stroke-linecap="butt" d="m419.19937 93.63942c8.220978 0.99196625 16.89444 3.9050446 22.102692 7.4234085c5.2082214 3.518364 5.965149 6.975876 1.928833 8.810806c-4.0362854 1.8349228 -12.101593 1.699852 -20.552856 -0.34420776z" fill-rule="nonzero"></path>
<path fill="#b7b7b7" d="m435.76117 124.50394l28.362183 4.4199524l-3.3149414 18.047241l-12.157501 -13.9973755z" fill-rule="nonzero"></path>
<path stroke="#000000" stroke-width="2.0" stroke-linejoin="round" stroke-linecap="butt" d="m435.76117 124.50394l28.362183 4.4199524l-3.3149414 18.047241l-12.157501 -13.9973755z" fill-rule="nonzero"></path>
<path fill="#666666" d="m476.28085 124.88976l-4.4199524 9.577431l0.7375183 2.7611542l-3.685028 9.209976l5.341217 -11.787399l2.209961 -0.37008667l3.4986877 -10.312332z" fill-rule="nonzero"></path>
<path stroke="#000000" stroke-width="1.0" stroke-linejoin="round" stroke-linecap="butt" d="m476.28085 124.88976l-4.4199524 9.577431l0.7375183 2.7611542l-3.685028 9.209976l5.341217 -11.787399l2.209961 -0.37008667l3.4986877 -10.312332z" fill-rule="nonzero"></path>
<path fill="#666666" d="m411.794 111.93902l-3.554016 -16.052391l6.7408752 -1.6758118l3.2236328 15.928406z" fill-rule="nonzero"></path>
<path stroke="#000000" stroke-width="2.0" stroke-linejoin="round" stroke-linecap="butt" d="m411.794 111.93902l-3.554016 -16.052391l6.7408752 -1.6758118l3.2236328 15.928406z" fill-rule="nonzero"></path>
<path fill="#1155cc" d="m413.89053 95.56379l-1.6922913 0.4957962l3.018921 13.765076l1.725647 -0.35321808z" fill-rule="nonzero"></path>
<path stroke="#073763" stroke-width="1.0" stroke-linejoin="round" stroke-linecap="butt" d="m413.89053 95.56379l-1.6922913 0.4957962l3.018921 13.765076l1.725647 -0.35321808z" fill-rule="nonzero"></path>
<path fill="#cfe2f3" d="m521.1837 -20.036743l0 0c0 -6.5259476 5.290344 -11.816275 11.816284 -11.816275l90.887146 0l0 0l44.015747 0l17.527527 0c3.1339111 0 6.1394043 1.2449265 8.355408 3.460907c2.2159424 2.2159805 3.4608765 5.2214966 3.4608765 8.355368l0 29.540682l0 0l0 17.72441l0 0c0 6.5259476 -5.290283 11.816273 -11.816284 11.816273l-17.527527 0l-42.797974 26.34911l-1.2177734 -26.34911l-90.887146 0l0 0c-6.52594 0 -11.816284 -5.290325 -11.816284 -11.816273l0 0l0 -17.72441l0 0z" fill-rule="nonzero"></path>
<path stroke="#000000" stroke-width="2.0" stroke-linejoin="round" stroke-linecap="butt" d="m521.1837 -20.036743l0 0c0 -6.5259476 5.290344 -11.816275 11.816284 -11.816275l90.887146 0l0 0l44.015747 0l17.527527 0c3.1339111 0 6.1394043 1.2449265 8.355408 3.460907c2.2159424 2.2159805 3.4608765 5.2214966 3.4608765 8.355368l0 29.540682l0 0l0 17.72441l0 0c0 6.5259476 -5.290283 11.816273 -11.816284 11.816273l-17.527527 0l-42.797974 26.34911l-1.2177734 -26.34911l-90.887146 0l0 0c-6.52594 0 -11.816284 -5.290325 -11.816284 -11.816273l0 0l0 -17.72441l0 0z" fill-rule="nonzero"></path>
<path fill="#000000" d="m582.2335 -11.69326l5.234375 -13.59375l1.9375 0l5.5625 13.59375l-2.046875 0l-1.59375 -4.125l-5.6875 0l-1.484375 4.125l-1.921875 0zm3.921875 -5.578125l4.609375 0l-1.40625 -3.78125q-0.65625 -1.703125 -0.96875 -2.8125q-0.265625 1.3125 -0.734375 2.59375l-1.5 4.0zm9.8029785 5.578125l0 -9.859375l1.5 0l0 1.390625q0.453125 -0.71875 1.21875 -1.15625q0.78125 -0.453125 1.765625 -0.453125q1.09375 0 1.796875 0.453125q0.703125 0.453125 0.984375 1.28125q1.171875 -1.734375 3.046875 -1.734375q1.46875 0 2.25 0.8125q0.796875 0.8125 0.796875 2.5l0 6.765625l-1.671875 0l0 -6.203125q0 -1.0 -0.15625 -1.4375q-0.15625 -0.453125 -0.59375 -0.71875q-0.421875 -0.265625 -1.0 -0.265625q-1.03125 0 -1.71875 0.6875q-0.6875 0.6875 -0.6875 2.21875l0 5.71875l-1.671875 0l0 -6.40625q0 -1.109375 -0.40625 -1.65625q-0.40625 -0.5625 -1.34375 -0.5625q-0.703125 0 -1.3125 0.375q-0.59375 0.359375 -0.859375 1.078125q-0.265625 0.71875 -0.265625 2.0625l0 5.109375l-1.671875 0zm15.5407715 0l0 -9.859375l1.5 0l0 1.390625q0.453125 -0.71875 1.21875 -1.15625q0.78125 -0.453125 1.765625 -0.453125q1.09375 0 1.796875 0.453125q0.703125 0.453125 0.984375 1.28125q1.171875 -1.734375 3.046875 -1.734375q1.46875 0 2.25 0.8125q0.796875 0.8125 0.796875 2.5l0 6.765625l-1.671875 0l0 -6.203125q0 -1.0 -0.15625 -1.4375q-0.15625 -0.453125 -0.59375 -0.71875q-0.421875 -0.265625 -1.0 -0.265625q-1.03125 0 -1.71875 0.6875q-0.6875 0.6875 -0.6875 2.21875l0 5.71875l-1.671875 0l0 -6.40625q0 -1.109375 -0.40625 -1.65625q-0.40625 -0.5625 -1.34375 -0.5625q-0.703125 0 -1.3125 0.375q-0.59375 0.359375 -0.859375 1.078125q-0.265625 0.71875 -0.265625 2.0625l0 5.109375l-1.671875 0zm21.978333 -1.21875q-0.9375 0.796875 -1.796875 1.125q-0.859375 0.3125 -1.84375 0.3125q-1.609375 0 -2.484375 -0.78125q-0.875 -0.796875 -0.875 -2.03125q0 -0.734375 0.328125 -1.328125q0.328125 -0.59375 0.859375 -0.953125q0.53125 -0.359375 1.203125 -0.546875q0.5 -0.140625 1.484375 -0.25q2.03125 -0.25 2.984375 -0.578125q0 -0.34375 0 -0.4375q0 -1.015625 -0.46875 -1.4375q-0.640625 -0.5625 -1.90625 -0.5625q-1.171875 0 -1.734375 0.40625q-0.5625 0.40625 -0.828125 1.46875l-1.640625 -0.234375q0.234375 -1.046875 0.734375 -1.6875q0.515625 -0.640625 1.46875 -0.984375q0.96875 -0.359375 2.25 -0.359375q1.265625 0 2.046875 0.296875q0.78125 0.296875 1.15625 0.75q0.375 0.453125 0.515625 1.140625q0.09375 0.421875 0.09375 1.53125l0 2.234375q0 2.328125 0.09375 2.953125q0.109375 0.609375 0.4375 1.171875l-1.75 0q-0.265625 -0.515625 -0.328125 -1.21875zm-0.140625 -3.71875q-0.90625 0.359375 -2.734375 0.625q-1.03125 0.140625 -1.453125 0.328125q-0.421875 0.1875 -0.65625 0.546875q-0.234375 0.359375 -0.234375 0.796875q0 0.671875 0.5 1.125q0.515625 0.4375 1.484375 0.4375q0.96875 0 1.71875 -0.421875q0.75 -0.4375 1.109375 -1.15625q0.265625 -0.578125 0.265625 -1.671875l0 -0.609375z" fill-rule="nonzero"></path>
<path fill="#000000" d="m558.20966 5.3848667l1.6875 -0.140625q0.125 1.015625 0.5625 1.671875q0.4375 0.65625 1.359375 1.0625q0.9375 0.40625 2.09375 0.40625q1.03125 0 1.8125 -0.3125q0.796875 -0.3125 1.1875 -0.84375q0.390625 -0.53125 0.390625 -1.15625q0 -0.640625 -0.375 -1.109375q-0.375 -0.484375 -1.234375 -0.8125q-0.546875 -0.21875 -2.421875 -0.65625q-1.875 -0.453125 -2.625 -0.859375q-0.96875 -0.515625 -1.453125 -1.2656249q-0.46875 -0.75 -0.46875 -1.6875q0 -1.03125 0.578125 -1.9218751q0.59375 -0.90625 1.703125 -1.359375q1.125 -0.46875 2.5 -0.46875q1.515625 0 2.671875 0.484375q1.15625 0.484375 1.765625 1.4375q0.625 0.9375001 0.671875 2.140625l-1.71875 0.125q-0.140625 -1.28125 -0.953125 -1.9375q-0.796875 -0.6718751 -2.359375 -0.6718751q-1.625 0 -2.375 0.6093751q-0.75 0.59375 -0.75 1.4375q0 0.734375 0.53125 1.203125q0.515625 0.46875 2.703125 0.96875q2.203125 0.49999988 3.015625 0.8749999q1.1875 0.546875 1.75 1.390625q0.578125 0.828125 0.578125 1.921875q0 1.09375 -0.625 2.0625q-0.625 0.953125 -1.796875 1.484375q-1.15625 0.53125 -2.609375 0.53125q-1.84375 0 -3.09375 -0.53125q-1.25 -0.546875 -1.96875 -1.625q-0.703125 -1.078125 -0.734375 -2.453125zm19.287354 4.375l0 -1.453125q-1.140625 1.671875 -3.125 1.671875q-0.859375 0 -1.625 -0.328125q-0.75 -0.34375 -1.125 -0.84375q-0.359375 -0.5 -0.515625 -1.234375q-0.09375 -0.5 -0.09375 -1.5625l0 -6.109375l1.671875 0l0 5.46875q0 1.3125 0.09375 1.765625q0.15625 0.65625 0.671875 1.03125q0.515625 0.375 1.265625 0.375q0.75 0 1.40625 -0.375q0.65625 -0.390625 0.921875 -1.046875q0.28125 -0.671875 0.28125 -1.9375l0 -5.28125l1.671875 0l0 9.859375l-1.5 0zm3.9226074 3.78125l0 -13.640625l1.53125 0l0 1.28125q0.53125 -0.75 1.203125 -1.125q0.6875 -0.375 1.640625 -0.375q1.265625 0 2.234375 0.65625q0.96875 0.640625 1.453125 1.8281249q0.5 1.1875 0.5 2.59375q0 1.515625 -0.546875 2.734375q-0.546875 1.203125 -1.578125 1.84375q-1.03125 0.640625 -2.171875 0.640625q-0.84375 0 -1.515625 -0.34375q-0.65625 -0.359375 -1.078125 -0.890625l0 4.796875l-1.671875 0zm1.515625 -8.65625q0 1.90625 0.765625 2.8125q0.78125 0.90625 1.875 0.90625q1.109375 0 1.890625 -0.9375q0.796875 -0.9375 0.796875 -2.921875q0 -1.875 -0.78125 -2.8125q-0.765625 -0.9375 -1.84375 -0.9375q-1.0625 0 -1.890625 1.0q-0.8125 0.9999999 -0.8125 2.890625zm15.610046 1.703125l1.71875 0.21875q-0.40625 1.5 -1.515625 2.34375q-1.09375 0.828125 -2.8125 0.828125q-2.15625 0 -3.421875 -1.328125q-1.265625 -1.328125 -1.265625 -3.734375q0 -2.484375 1.265625 -3.859375q1.28125 -1.375 3.328125 -1.375q1.984375 0 3.234375 1.34375q1.25 1.3437499 1.25 3.796875q0 0.140625 -0.015625 0.4375l-7.34375 0q0.09375 1.625 0.921875 2.484375q0.828125 0.859375 2.0625 0.859375q0.90625 0 1.546875 -0.46875q0.65625 -0.484375 1.046875 -1.546875zm-5.484375 -2.703125l5.5 0q-0.109375 -1.234375 -0.625 -1.859375q-0.796875 -0.9687499 -2.078125 -0.9687499q-1.140625 0 -1.9375 0.78125q-0.78125 0.7656249 -0.859375 2.046875zm9.094482 5.875l0 -9.859375l1.5 0l0 1.5q0.578125 -1.046875 1.0625 -1.375q0.484375 -0.34375 1.078125 -0.34375q0.84375 0 1.71875 0.546875l-0.578125 1.546875q-0.609375 -0.359375 -1.234375 -0.359375q-0.546875 0 -0.984375 0.328125q-0.421875 0.32812488 -0.609375 0.9062499q-0.28125 0.890625 -0.28125 1.953125l0 5.15625l-1.671875 0zm5.8377075 -4.375l1.6875 -0.140625q0.125 1.015625 0.5625 1.671875q0.4375 0.65625 1.359375 1.0625q0.9375 0.40625 2.09375 0.40625q1.03125 0 1.8125 -0.3125q0.796875 -0.3125 1.1875 -0.84375q0.390625 -0.53125 0.390625 -1.15625q0 -0.640625 -0.375 -1.109375q-0.375 -0.484375 -1.234375 -0.8125q-0.546875 -0.21875 -2.421875 -0.65625q-1.875 -0.453125 -2.625 -0.859375q-0.96875 -0.515625 -1.453125 -1.2656249q-0.46875 -0.75 -0.46875 -1.6875q0 -1.03125 0.578125 -1.9218751q0.59375 -0.90625 1.703125 -1.359375q1.125 -0.46875 2.5 -0.46875q1.515625 0 2.671875 0.484375q1.15625 0.484375 1.765625 1.4375q0.625 0.9375001 0.671875 2.140625l-1.71875 0.125q-0.140625 -1.28125 -0.953125 -1.9375q-0.796875 -0.6718751 -2.359375 -0.6718751q-1.625 0 -2.375 0.6093751q-0.75 0.59375 -0.75 1.4375q0 0.734375 0.53125 1.203125q0.515625 0.46875 2.703125 0.96875q2.203125 0.49999988 3.015625 0.8749999q1.1875 0.546875 1.75 1.390625q0.578125 0.828125 0.578125 1.921875q0 1.09375 -0.625 2.0625q-0.625 0.953125 -1.796875 1.484375q-1.15625 0.53125 -2.609375 0.53125q-1.84375 0 -3.09375 -0.53125q-1.25 -0.546875 -1.96875 -1.625q-0.703125 -1.078125 -0.734375 -2.453125zm12.8341675 8.15625l0 -13.640625l1.53125 0l0 1.28125q0.53125 -0.75 1.203125 -1.125q0.6875 -0.375 1.640625 -0.375q1.265625 0 2.234375 0.65625q0.96875 0.640625 1.453125 1.8281249q0.5 1.1875 0.5 2.59375q0 1.515625 -0.546875 2.734375q-0.546875 1.203125 -1.578125 1.84375q-1.03125 0.640625 -2.171875 0.640625q-0.84375 0 -1.515625 -0.34375q-0.65625 -0.359375 -1.078125 -0.890625l0 4.796875l-1.671875 0zm1.515625 -8.65625q0 1.90625 0.765625 2.8125q0.78125 0.90625 1.875 0.90625q1.109375 0 1.890625 -0.9375q0.796875 -0.9375 0.796875 -2.921875q0 -1.875 -0.78125 -2.8125q-0.765625 -0.9375 -1.84375 -0.9375q-1.0625 0 -1.890625 1.0q-0.8125 0.9999999 -0.8125 2.890625zm15.610107 1.703125l1.71875 0.21875q-0.40625 1.5 -1.515625 2.34375q-1.09375 0.828125 -2.8125 0.828125q-2.15625 0 -3.421875 -1.328125q-1.265625 -1.328125 -1.265625 -3.734375q0 -2.484375 1.265625 -3.859375q1.28125 -1.375 3.328125 -1.375q1.984375 0 3.234375 1.34375q1.25 1.3437499 1.25 3.796875q0 0.140625 -0.015625 0.4375l-7.34375 0q0.09375 1.625 0.921875 2.484375q0.828125 0.859375 2.0625 0.859375q0.90625 0 1.546875 -0.46875q0.65625 -0.484375 1.046875 -1.546875zm-5.484375 -2.703125l5.5 0q-0.109375 -1.234375 -0.625 -1.859375q-0.796875 -0.9687499 -2.078125 -0.9687499q-1.140625 0 -1.9375 0.78125q-0.78125 0.7656249 -0.859375 2.046875zm15.860107 2.703125l1.71875 0.21875q-0.40625 1.5 -1.515625 2.34375q-1.09375 0.828125 -2.8125 0.828125q-2.15625 0 -3.421875 -1.328125q-1.265625 -1.328125 -1.265625 -3.734375q0 -2.484375 1.265625 -3.859375q1.28125 -1.375 3.328125 -1.375q1.984375 0 3.234375 1.34375q1.25 1.3437499 1.25 3.796875q0 0.140625 -0.015625 0.4375l-7.34375 0q0.09375 1.625 0.921875 2.484375q0.828125 0.859375 2.0625 0.859375q0.90625 0 1.546875 -0.46875q0.65625 -0.484375 1.046875 -1.546875zm-5.484375 -2.703125l5.5 0q-0.109375 -1.234375 -0.625 -1.859375q-0.796875 -0.9687499 -2.078125 -0.9687499q-1.140625 0 -1.9375 0.78125q-0.78125 0.7656249 -0.859375 2.046875zm15.500671 5.875l0 -1.25q-0.9375 1.46875 -2.75 1.46875q-1.171875 0 -2.171875 -0.640625q-0.984375 -0.65625 -1.53125 -1.8125q-0.53125 -1.171875 -0.53125 -2.6875q0 -1.46875 0.484375 -2.671875q0.5 -1.2031249 1.46875 -1.8437499q0.984375 -0.640625 2.203125 -0.640625q0.890625 0 1.578125 0.375q0.703125 0.375 1.140625 0.984375l0 -4.875l1.65625 0l0 13.59375l-1.546875 0zm-5.28125 -4.921875q0 1.890625 0.796875 2.828125q0.8125 0.9375 1.890625 0.9375q1.09375 0 1.859375 -0.890625q0.765625 -0.890625 0.765625 -2.734375q0 -2.015625 -0.78125 -2.953125q-0.78125 -0.9531249 -1.921875 -0.9531249q-1.109375 0 -1.859375 0.90625q-0.75 0.9062499 -0.75 2.859375z" fill-rule="nonzero"></path>
<path fill="#000000" d="m583.9119 31.212992l0 -8.546875l-1.484375 0l0 -1.3125l1.484375 0l0 -1.046875q0 -0.984375 0.171875 -1.46875q0.234375 -0.65625 0.84375 -1.046875q0.609375 -0.40625 1.703125 -0.40625q0.703125 0 1.5625 0.15625l-0.25 1.46875q-0.515625 -0.09375 -0.984375 -0.09375q-0.765625 0 -1.078125 0.328125q-0.3125 0.3125 -0.3125 1.203125l0 0.90625l1.921875 0l0 1.3125l-1.921875 0l0 8.546875l-1.65625 0zm4.7926636 -11.6875l0 -1.90625l1.671875 0l0 1.90625l-1.671875 0zm0 11.6875l0 -9.859375l1.671875 0l0 9.859375l-1.671875 0zm3.4573364 -2.9375l1.65625 -0.265625q0.140625 1.0 0.765625 1.53125q0.640625 0.515625 1.78125 0.515625q1.15625 0 1.703125 -0.46875q0.5625 -0.46875 0.5625 -1.09375q0 -0.5625 -0.484375 -0.890625q-0.34375 -0.21875 -1.703125 -0.5625q-1.84375 -0.46875 -2.5625 -0.796875q-0.703125 -0.34375 -1.078125 -0.9375q-0.359375 -0.609375 -0.359375 -1.328125q0 -0.65625 0.296875 -1.21875q0.3125 -0.5625 0.828125 -0.9375q0.390625 -0.28125 1.0625 -0.484375q0.671875 -0.203125 1.4375 -0.203125q1.171875 0 2.046875 0.34375q0.875 0.328125 1.28125 0.90625q0.421875 0.5625 0.578125 1.515625l-1.625 0.21875q-0.109375 -0.75 -0.65625 -1.171875q-0.53125 -0.4375 -1.5 -0.4375q-1.15625 0 -1.640625 0.390625q-0.484375 0.375 -0.484375 0.875q0 0.328125 0.203125 0.59375q0.203125 0.265625 0.640625 0.4375q0.25 0.09375 1.46875 0.4375q1.765625 0.46875 2.46875 0.765625q0.703125 0.296875 1.09375 0.875q0.40625 0.578125 0.40625 1.4375q0 0.828125 -0.484375 1.578125q-0.484375 0.734375 -1.40625 1.140625q-0.921875 0.390625 -2.078125 0.390625q-1.921875 0 -2.9375 -0.796875q-1.0 -0.796875 -1.28125 -2.359375zm10.0 2.9375l0 -13.59375l1.671875 0l0 4.875q1.171875 -1.359375 2.953125 -1.359375q1.09375 0 1.890625 0.4375q0.8125 0.421875 1.15625 1.1875q0.359375 0.765625 0.359375 2.203125l0 6.25l-1.671875 0l0 -6.25q0 -1.25 -0.546875 -1.8125q-0.546875 -0.578125 -1.53125 -0.578125q-0.75 0 -1.40625 0.390625q-0.640625 0.375 -0.921875 1.046875q-0.28125 0.65625 -0.28125 1.8125l0 5.390625l-1.671875 0zm17.125732 -3.171875l1.71875 0.21875q-0.40625 1.5 -1.515625 2.34375q-1.09375 0.828125 -2.8125 0.828125q-2.15625 0 -3.421875 -1.328125q-1.265625 -1.328125 -1.265625 -3.734375q0 -2.484375 1.265625 -3.859375q1.28125 -1.375 3.328125 -1.375q1.984375 0 3.234375 1.34375q1.25 1.34375 1.25 3.796875q0 0.140625 -0.015625 0.4375l-7.34375 0q0.09375 1.625 0.921875 2.484375q0.828125 0.859375 2.0625 0.859375q0.90625 0 1.546875 -0.46875q0.65625 -0.484375 1.046875 -1.546875zm-5.484375 -2.703125l5.5 0q-0.109375 -1.234375 -0.625 -1.859375q-0.796875 -0.96875 -2.078125 -0.96875q-1.140625 0 -1.9375 0.78125q-0.78125 0.765625 -0.859375 2.046875zm9.031921 9.671877l-0.171875 -1.5625q0.546875 0.140625 0.953125 0.140625q0.546875 0 0.875 -0.1875q0.34375 -0.1875 0.5625 -0.515625q0.15625 -0.25 0.5 -1.2500019q0.046875 -0.140625 0.15625 -0.40625l-3.734375 -9.875l1.796875 0l2.046875 5.71875q0.40625 1.078125 0.71875 2.28125q0.28125 -1.15625 0.6875 -2.25l2.09375 -5.75l1.671875 0l-3.75 10.03125q-0.59375 1.6250019 -0.9375 2.234377q-0.4375 0.828125 -1.015625 1.203125q-0.578125 0.390625 -1.375 0.390625q-0.484375 0 -1.078125 -0.203125zm10.296875 -7.171877l-0.5 -7.203125l0 -3.015625l2.0625 0l0 3.015625l-0.484375 7.203125l-1.078125 0zm-0.4375 3.375l0 -1.90625l1.921875 0l0 1.90625l-1.921875 0z" fill-rule="nonzero"></path>
</g></svg>

