<?xml version="1.0" standalone="yes"?>

<svg version="1.1" viewBox="0.0 0.0 766.0 313.0" fill="none" stroke="none" stroke-linecap="square" stroke-miterlimit="10" xmlns="http://www.w3.org/2000/svg" xmlns:xlink="http://www.w3.org/1999/xlink"><clipPath id="p.0"><path d="m0 0l766.0 0l0 313.0l-766.0 0l0 -313.0z" clip-rule="nonzero"></path></clipPath><g clip-path="url(#p.0)"><path fill="#000000" fill-opacity="0.0" d="m0 0l766.1365 0l0 313.41995l-766.1365 0z" fill-rule="nonzero"></path><path fill="#ffffff" d="m468.56955 99.37341l0 0c0 -5.331505 4.251526 -9.653549 9.496063 -9.653549l0 0c2.5185242 0 4.9338684 1.017067 6.7147217 2.8274612c1.7808838 1.8103867 2.7813416 4.265808 2.7813416 6.826088l0 0c0 5.331505 -4.251526 9.653542 -9.496063 9.653542l0 0c-5.2445374 0 -9.496063 -4.3220367 -9.496063 -9.653542z" fill-rule="nonzero"></path><path stroke="#000000" stroke-width="2.0" stroke-linejoin="round" stroke-linecap="butt" d="m468.56955 99.37341l0 0c0 -5.331505 4.251526 -9.653549 9.496063 -9.653549l0 0c2.5185242 0 4.9338684 1.017067 6.7147217 2.8274612c1.7808838 1.8103867 2.7813416 4.265808 2.7813416 6.826088l0 0c0 5.331505 -4.251526 9.653542 -9.496063 9.653542l0 0c-5.2445374 0 -9.496063 -4.3220367 -9.496063 -9.653542z" fill-rule="nonzero"></path><path fill="#ffffff" d="m467.32022 116.732285l0 0c0 -4.9401245 3.1868896 -8.944885 7.118103 -8.944885l0 0c1.8878479 0 3.6983643 0.9424057 5.033264 2.619896c1.3348999 1.6774902 2.0848389 3.9526596 2.0848389 6.3249893l0 0c0 4.9401245 -3.1868896 8.944878 -7.118103 8.944878l0 0c-3.9312134 0 -7.118103 -4.004753 -7.118103 -8.944878z" fill-rule="nonzero"></path><path stroke="#000000" stroke-width="2.0" stroke-linejoin="round" stroke-linecap="butt" d="m467.32022 116.732285l0 0c0 -4.9401245 3.1868896 -8.944885 7.118103 -8.944885l0 0c1.8878479 0 3.6983643 0.9424057 5.033264 2.619896c1.3348999 1.6774902 2.0848389 3.9526596 2.0848389 6.3249893l0 0c0 4.9401245 -3.1868896 8.944878 -7.118103 8.944878l0 0c-3.9312134 0 -7.118103 -4.004753 -7.118103 -8.944878z" fill-rule="nonzero"></path><path fill="#000000" d="m473.89502 118.2014l0 0c0 -2.3222046 1.5511475 -4.2047195 3.464569 -4.2047195l0 0c0.91885376 0 1.8000793 0.44299316 2.4497986 1.2315292c0.64974976 0.7885437 1.0147705 1.8580322 1.0147705 2.9731903l0 0c0 2.3222046 -1.5511475 4.204727 -3.464569 4.204727l0 0c-1.9134216 0 -3.464569 -1.8825226 -3.464569 -4.204727z" fill-rule="nonzero"></path><path stroke="#000000" stroke-width="2.0" stroke-linejoin="round" stroke-linecap="butt" d="m473.89502 118.2014l0 0c0 -2.3222046 1.5511475 -4.2047195 3.464569 -4.2047195l0 0c0.91885376 0 1.8000793 0.44299316 2.4497986 1.2315292c0.64974976 0.7885437 1.0147705 1.8580322 1.0147705 2.9731903l0 0c0 2.3222046 -1.5511475 4.204727 -3.464569 4.204727l0 0c-1.9134216 0 -3.464569 -1.8825226 -3.464569 -4.204727z" fill-rule="nonzero"></path><path fill="#f9cb9c" d="m495.08923 126.055115l-19.73227 21.559052l-8.036743 0.72966003l-42.01837 19.72966l-46.404205 16.076126l-11.32547 0.3674469l-13.8845215 4.0183716l-90.61417 1.826767l-8.40419 -3.2887115l-43.115494 45.67192l3.6535492 -14.614166l3.2887115 -5.480316l-5.8451385 3.653534l-2.5590668 -5.8451385l13.154861 -8.404205l-4.3858337 -2.5590515l-11.325455 6.9422607l-1.4619446 -6.9422607l17.173233 -11.325455l-4.750656 -4.3858337l-14.979004 10.59581l-6.2126007 -2.9212646l15.711288 -13.154861l-1.4619446 -4.383194l-16.80577 8.401566l-5.4829407 -8.401566l11.692917 -8.039368l-12.787399 3.2887115l-33.98163 -38.72966l-11.32547 -1.0971222l-25.577423 6.2126007l-67.22835 34.34384l-13.884514 -1.4619446l50.422573 -23.018372l-47.866142 9.501312l12.790024 -11.3280945l31.055122 -7.6719055l-26.30709 0.72966003l32.519684 -22.65355l-6.577423 -15.711288l38.72966 1.0971146l-40.921265 -4.0183716l-22.288712 -16.443573l19.72966 2.9238892l-32.517063 -13.519684l29.960629 2.5590515l-30.692913 -8.404198l28.866146 2.556427l26.671913 11.692917l34.71129 9.498688l40.556427 -7.671921l30.32808 -12.422569l28.133865 -4.385826l-15.346451 -16.076115l13.884506 -4.0183754l-21.556427 -2.5590515l-12.057739 -18.632547l15.711273 0l37.632553 5.8451443l33.249344 9.501312l57.364838 -0.36745453l43.11548 9.501312l40.556427 22.288715l48.595795 35.07611l11.32547 3.6535492z" fill-rule="nonzero"></path><path stroke="#000000" stroke-width="2.0" stroke-linejoin="round" stroke-linecap="butt" d="m495.08923 126.055115l-19.73227 21.559052l-8.036743 0.72966003l-42.01837 19.72966l-46.404205 16.076126l-11.32547 0.3674469l-13.8845215 4.0183716l-90.61417 1.826767l-8.40419 -3.2887115l-43.115494 45.67192l3.6535492 -14.614166l3.2887115 -5.480316l-5.8451385 3.653534l-2.5590668 -5.8451385l13.154861 -8.404205l-4.3858337 -2.5590515l-11.325455 6.9422607l-1.4619446 -6.9422607l17.173233 -11.325455l-4.750656 -4.3858337l-14.979004 10.59581l-6.2126007 -2.9212646l15.711288 -13.154861l-1.4619446 -4.383194l-16.80577 8.401566l-5.4829407 -8.401566l11.692917 -8.039368l-12.787399 3.2887115l-33.98163 -38.72966l-11.32547 -1.0971222l-25.577423 6.2126007l-67.22835 34.34384l-13.884514 -1.4619446l50.422573 -23.018372l-47.866142 9.501312l12.790024 -11.3280945l31.055122 -7.6719055l-26.30709 0.72966003l32.519684 -22.65355l-6.577423 -15.711288l38.72966 1.0971146l-40.921265 -4.0183716l-22.288712 -16.443573l19.72966 2.9238892l-32.517063 -13.519684l29.960629 2.5590515l-30.692913 -8.404198l28.866146 2.556427l26.671913 11.692917l34.71129 9.498688l40.556427 -7.671921l30.32808 -12.422569l28.133865 -4.385826l-15.346451 -16.076115l13.884506 -4.0183754l-21.556427 -2.5590515l-12.057739 -18.632547l15.711273 0l37.632553 5.8451443l33.249344 9.501312l57.364838 -0.36745453l43.11548 9.501312l40.556427 22.288715l48.595795 35.07611l11.32547 3.6535492z" fill-rule="nonzero"></path><path fill="#000000" fill-opacity="0.0" d="m133.72966 86.5958l-14.251968 11.325455l1.0971146 20.826775l14.981621 12.057739" fill-rule="nonzero"></path><path stroke="#000000" stroke-width="2.0" stroke-linejoin="round" stroke-linecap="butt" d="m133.72966 86.5958l-14.251968 11.325455l1.0971146 20.826775l14.981621 12.057739" fill-rule="nonzero"></path><path fill="#000000" fill-opacity="0.0" d="m153.45932 130.44095l13.152222 -2.1942291l46.039383 27.769028l21.19159 18.27034l24.115494 13.152237l-3.2887115 -1.8267822" fill-rule="nonzero"></path><path stroke="#000000" stroke-width="2.0" stroke-linejoin="round" stroke-linecap="butt" d="m153.45932 130.44095l13.152222 -2.1942291l46.039383 27.769028l21.19159 18.27034l24.115494 13.152237l-3.2887115 -1.8267822" fill-rule="nonzero"></path><path fill="#b45f06" d="m133.3622 87.32546l-12.057739 11.328079l0.73228455 20.09449l14.249344 13.154861l-17.902885 3.653534l-68.325455 33.979004l-14.249344 -0.72966003l51.517063 -23.385818l-48.960632 9.501312l13.519684 -12.0577545l31.057747 -6.577423l-24.84777 0l31.42257 -22.288712l-6.942253 -15.711288l38.36483 1.0971146l-40.921265 -4.0183716l-21.1916 -15.711288l19.364834 2.1916046l-32.154858 -13.519684l28.866138 2.191597l-29.595798 -8.036743l29.230968 2.191597l25.94226 12.422577z" fill-rule="nonzero"></path><path stroke="#000000" stroke-width="2.0" stroke-linejoin="round" stroke-linecap="butt" d="m133.3622 87.32546l-12.057739 11.328079l0.73228455 20.09449l14.249344 13.154861l-17.902885 3.653534l-68.325455 33.979004l-14.249344 -0.72966003l51.517063 -23.385818l-48.960632 9.501312l13.519684 -12.0577545l31.057747 -6.577423l-24.84777 0l31.42257 -22.288712l-6.942253 -15.711288l38.36483 1.0971146l-40.921265 -4.0183716l-21.1916 -15.711288l19.364834 2.1916046l-32.154858 -13.519684l28.866138 2.191597l-29.595798 -8.036743l29.230968 2.191597l25.94226 12.422577z" fill-rule="nonzero"></path><path fill="#b45f06" d="m155.65092 130.07611l10.960617 -1.8293915l46.769043 28.13649l19.0 18.267715l23.385818 11.328079l-44.577423 46.40158l7.307083 -19.364838l-6.577423 4.0183716l-2.5564423 -6.5747986l13.8845215 -8.404205l-4.0183716 -2.1942291l-10.963257 6.2126007l-1.826767 -6.9422455l17.173218 -10.59581l-4.750656 -4.0183716l-15.343826 10.230972l-4.750656 -3.2887115l14.979004 -12.422577l-1.826767 -5.1154785l-17.170609 8.769028l-5.4829407 -8.404205l12.425201 -8.40419l-13.8845215 3.653534z" fill-rule="nonzero"></path><path stroke="#000000" stroke-width="2.0" stroke-linejoin="round" stroke-linecap="butt" d="m155.65092 130.07611l10.960617 -1.8293915l46.769043 28.13649l19.0 18.267715l23.385818 11.328079l-44.577423 46.40158l7.307083 -19.364838l-6.577423 4.0183716l-2.5564423 -6.5747986l13.8845215 -8.404205l-4.0183716 -2.1942291l-10.963257 6.2126007l-1.826767 -6.9422455l17.173218 -10.59581l-4.750656 -4.0183716l-15.343826 10.230972l-4.750656 -3.2887115l14.979004 -12.422577l-1.826767 -5.1154785l-17.170609 8.769028l-5.4829407 -8.404205l12.425201 -8.40419l-13.8845215 3.653534z" fill-rule="nonzero"></path><path fill="#b45f06" d="m233.47769 61.01837l50.787415 -24.845142l-31.057755 -9.866142l-39.094498 -5.115486l-14.616791 -0.36483002l13.519684 18.26772l20.097107 1.8267708l-16.078735 2.9238853z" fill-rule="nonzero"></path><path stroke="#000000" stroke-width="2.0" stroke-linejoin="round" stroke-linecap="butt" d="m233.47769 61.01837l50.787415 -24.845142l-31.057755 -9.866142l-39.094498 -5.115486l-14.616791 -0.36483002l13.519684 18.26772l20.097107 1.8267708l-16.078735 2.9238853z" fill-rule="nonzero"></path><path fill="#000000" fill-opacity="0.0" d="m442.1076 93.1706l-11.690277 18.63517l-4.020996 20.826782l21.559052 19.364822" fill-rule="nonzero"></path><path stroke="#000000" stroke-width="2.0" stroke-linejoin="round" stroke-linecap="butt" d="m442.1076 93.1706l-11.690277 18.63517l-4.020996 20.826782l21.559052 19.364822" fill-rule="nonzero"></path><path fill="#000000" fill-opacity="0.0" d="m333.59055 104.13386l-2.9238892 6.209976l4.020996 6.212593" fill-rule="nonzero"></path><path stroke="#000000" stroke-width="1.0" stroke-linejoin="round" stroke-linecap="butt" d="m333.59055 104.13386l-2.9238892 6.209976l4.020996 6.212593" fill-rule="nonzero"></path><path fill="#000000" fill-opacity="0.0" d="m349.59055 112.13386l-2.9238892 6.209976l4.020996 6.212593" fill-rule="nonzero"></path><path stroke="#000000" stroke-width="1.0" stroke-linejoin="round" stroke-linecap="butt" d="m349.59055 112.13386l-2.9238892 6.209976l4.020996 6.212593" fill-rule="nonzero"></path><path fill="#000000" fill-opacity="0.0" d="m329.56955 114.97638l-2.9238892 6.2099686l4.020996 6.2126007" fill-rule="nonzero"></path><path stroke="#000000" stroke-width="1.0" stroke-linejoin="round" stroke-linecap="butt" d="m329.56955 114.97638l-2.9238892 6.2099686l4.020996 6.2126007" fill-rule="nonzero"></path><path fill="#000000" fill-opacity="0.0" d="m370.34122 104.99213l-2.9238892 6.209976l4.020996 6.212593" fill-rule="nonzero"></path><path stroke="#000000" stroke-width="1.0" stroke-linejoin="round" stroke-linecap="butt" d="m370.34122 104.99213l-2.9238892 6.209976l4.020996 6.212593" fill-rule="nonzero"></path><path fill="#000000" fill-opacity="0.0" d="m370.34122 128.99213l-2.9238892 6.209976l4.020996 6.2126007" fill-rule="nonzero"></path><path stroke="#000000" stroke-width="1.0" stroke-linejoin="round" stroke-linecap="butt" d="m370.34122 128.99213l-2.9238892 6.209976l4.020996 6.2126007" fill-rule="nonzero"></path><path fill="#000000" fill-opacity="0.0" d="m350.32022 131.83464l-2.9238892 6.209976l4.020996 6.2126007" fill-rule="nonzero"></path><path stroke="#000000" stroke-width="1.0" stroke-linejoin="round" stroke-linecap="butt" d="m350.32022 131.83464l-2.9238892 6.209976l4.020996 6.2126007" fill-rule="nonzero"></path><path fill="#000000" fill-opacity="0.0" d="m317.54855 136.86613l-2.9238892 6.209976l4.020996 6.2126007" fill-rule="nonzero"></path><path stroke="#000000" stroke-width="1.0" stroke-linejoin="round" stroke-linecap="butt" d="m317.54855 136.86613l-2.9238892 6.209976l4.020996 6.2126007" fill-rule="nonzero"></path><path fill="#000000" fill-opacity="0.0" d="m325.54855 144.86613l-2.9238892 6.209976l4.020996 6.2126007" fill-rule="nonzero"></path><path stroke="#000000" stroke-width="1.0" stroke-linejoin="round" stroke-linecap="butt" d="m325.54855 144.86613l-2.9238892 6.209976l4.020996 6.2126007" fill-rule="nonzero"></path><path fill="#000000" fill-opacity="0.0" d="m305.52756 155.70866l-2.9238892 6.209976l4.020996 6.2126007" fill-rule="nonzero"></path><path stroke="#000000" stroke-width="1.0" stroke-linejoin="round" stroke-linecap="butt" d="m305.52756 155.70866l-2.9238892 6.209976l4.020996 6.2126007" fill-rule="nonzero"></path><path fill="#000000" fill-opacity="0.0" d="m301.59055 64.13386l-2.9238892 6.209976l4.020996 6.212593" fill-rule="nonzero"></path><path stroke="#000000" stroke-width="1.0" stroke-linejoin="round" stroke-linecap="butt" d="m301.59055 64.13386l-2.9238892 6.209976l4.020996 6.212593" fill-rule="nonzero"></path><path fill="#000000" fill-opacity="0.0" d="m317.59055 72.13386l-2.9238892 6.209976l4.020996 6.212593" fill-rule="nonzero"></path><path stroke="#000000" stroke-width="1.0" stroke-linejoin="round" stroke-linecap="butt" d="m317.59055 72.13386l-2.9238892 6.209976l4.020996 6.212593" fill-rule="nonzero"></path><path fill="#000000" fill-opacity="0.0" d="m305.56955 74.97638l-2.9238892 6.2099686l4.020996 6.2126007" fill-rule="nonzero"></path><path stroke="#000000" stroke-width="1.0" stroke-linejoin="round" stroke-linecap="butt" d="m305.56955 74.97638l-2.9238892 6.2099686l4.020996 6.2126007" fill-rule="nonzero"></path><path fill="#000000" fill-opacity="0.0" d="m338.34122 64.99213l-2.9238892 6.209976l4.020996 6.212593" fill-rule="nonzero"></path><path stroke="#000000" stroke-width="1.0" stroke-linejoin="round" stroke-linecap="butt" d="m338.34122 64.99213l-2.9238892 6.209976l4.020996 6.212593" fill-rule="nonzero"></path><path fill="#000000" fill-opacity="0.0" d="m354.34122 72.99213l-2.9238892 6.209976l4.020996 6.212593" fill-rule="nonzero"></path><path stroke="#000000" stroke-width="1.0" stroke-linejoin="round" stroke-linecap="butt" d="m354.34122 72.99213l-2.9238892 6.209976l4.020996 6.212593" fill-rule="nonzero"></path><path fill="#000000" fill-opacity="0.0" d="m326.32022 91.83465l-2.9238892 6.2099686l4.020996 6.2126007" fill-rule="nonzero"></path><path stroke="#000000" stroke-width="1.0" stroke-linejoin="round" stroke-linecap="butt" d="m326.32022 91.83465l-2.9238892 6.2099686l4.020996 6.2126007" fill-rule="nonzero"></path><path fill="#000000" fill-opacity="0.0" d="m293.54855 96.86614l-2.9238892 6.209976l4.020996 6.212593" fill-rule="nonzero"></path><path stroke="#000000" stroke-width="1.0" stroke-linejoin="round" stroke-linecap="butt" d="m293.54855 96.86614l-2.9238892 6.209976l4.020996 6.212593" fill-rule="nonzero"></path><path fill="#000000" fill-opacity="0.0" d="m301.54855 104.86614l-2.9238892 6.209976l4.020996 6.212593" fill-rule="nonzero"></path><path stroke="#000000" stroke-width="1.0" stroke-linejoin="round" stroke-linecap="butt" d="m301.54855 104.86614l-2.9238892 6.209976l4.020996 6.212593" fill-rule="nonzero"></path><path fill="#000000" fill-opacity="0.0" d="m289.52756 107.708664l-2.9238892 6.2099686l4.020996 6.2126007" fill-rule="nonzero"></path><path stroke="#000000" stroke-width="1.0" stroke-linejoin="round" stroke-linecap="butt" d="m289.52756 107.708664l-2.9238892 6.2099686l4.020996 6.2126007" fill-rule="nonzero"></path><path fill="#000000" fill-opacity="0.0" d="m262.20078 83.20473l-2.9238586 6.2099686l4.020996 6.2126007" fill-rule="nonzero"></path><path stroke="#000000" stroke-width="1.0" stroke-linejoin="round" stroke-linecap="butt" d="m262.20078 83.20473l-2.9238586 6.2099686l4.020996 6.2126007" fill-rule="nonzero"></path><path fill="#000000" fill-opacity="0.0" d="m270.20078 115.20473l-2.9238586 6.2099686l4.020996 6.2126007" fill-rule="nonzero"></path><path stroke="#000000" stroke-width="1.0" stroke-linejoin="round" stroke-linecap="butt" d="m270.20078 115.20473l-2.9238586 6.2099686l4.020996 6.2126007" fill-rule="nonzero"></path><path fill="#000000" fill-opacity="0.0" d="m258.17978 118.04724l-2.923874 6.209976l4.0210114 6.2126007" fill-rule="nonzero"></path><path stroke="#000000" stroke-width="1.0" stroke-linejoin="round" stroke-linecap="butt" d="m258.17978 118.04724l-2.923874 6.209976l4.0210114 6.2126007" fill-rule="nonzero"></path><path fill="#000000" fill-opacity="0.0" d="m282.95145 124.062996l-2.9238892 6.2099686l4.020996 6.2126007" fill-rule="nonzero"></path><path stroke="#000000" stroke-width="1.0" stroke-linejoin="round" stroke-linecap="butt" d="m282.95145 124.062996l-2.9238892 6.2099686l4.020996 6.2126007" fill-rule="nonzero"></path><path fill="#000000" fill-opacity="0.0" d="m290.95145 132.06299l-2.9238892 6.209976l4.020996 6.2126007" fill-rule="nonzero"></path><path stroke="#000000" stroke-width="1.0" stroke-linejoin="round" stroke-linecap="butt" d="m290.95145 132.06299l-2.9238892 6.209976l4.020996 6.2126007" fill-rule="nonzero"></path><path fill="#000000" fill-opacity="0.0" d="m262.93045 150.90552l-2.9238892 6.209961l4.020996 6.2126007" fill-rule="nonzero"></path><path stroke="#000000" stroke-width="1.0" stroke-linejoin="round" stroke-linecap="butt" d="m262.93045 150.90552l-2.9238892 6.209961l4.020996 6.2126007" fill-rule="nonzero"></path><path fill="#7f6000" d="m310.9239 133.20735l97.74539 51.664032l6.514435 11.1706085l-1.8608704 13.965881l-7.4461975 5.5852966l-12.102356 1.8609009l-1.8635254 -5.585312l10.241455 -1.8608856l3.7244263 -4.6561737l0.4645691 -7.913376l-3.7244263 -6.514435l-100.07086 -54.45932z" fill-rule="nonzero"></path><path stroke="#000000" stroke-width="2.0" stroke-linejoin="round" stroke-linecap="butt" d="m310.9239 133.20735l97.74539 51.664032l6.514435 11.1706085l-1.8608704 13.965881l-7.4461975 5.5852966l-12.102356 1.8609009l-1.8635254 -5.585312l10.241455 -1.8608856l3.7244263 -4.6561737l0.4645691 -7.913376l-3.7244263 -6.514435l-100.07086 -54.45932z" fill-rule="nonzero"></path><path fill="#000000" fill-opacity="0.0" d="m222.1588 115.937004l-2.9238892 6.209976l4.020996 6.212593" fill-rule="nonzero"></path><path stroke="#000000" stroke-width="1.0" stroke-linejoin="round" stroke-linecap="butt" d="m222.1588 115.937004l-2.9238892 6.209976l4.020996 6.212593" fill-rule="nonzero"></path><path fill="#000000" fill-opacity="0.0" d="m230.1588 123.937004l-2.9238892 6.209984l4.020996 6.2125854" fill-rule="nonzero"></path><path stroke="#000000" stroke-width="1.0" stroke-linejoin="round" stroke-linecap="butt" d="m230.1588 123.937004l-2.9238892 6.209984l4.020996 6.2125854" fill-rule="nonzero"></path><path fill="#000000" fill-opacity="0.0" d="m218.1378 126.779526l-2.9238892 6.209976l4.020996 6.2126007" fill-rule="nonzero"></path><path stroke="#000000" stroke-width="1.0" stroke-linejoin="round" stroke-linecap="butt" d="m218.1378 126.779526l-2.9238892 6.209976l4.020996 6.2126007" fill-rule="nonzero"></path><path fill="#000000" fill-opacity="0.0" d="m494.35696 126.419945l-24.472443 12.409447" fill-rule="nonzero"></path><path stroke="#000000" stroke-width="2.0" stroke-linejoin="round" stroke-linecap="butt" d="m494.35696 126.419945l-24.472443 12.409447" fill-rule="nonzero"></path><path fill="#000000" d="m473.22595 27.67452l-46.513214 -11.50053l-2.6766052 54.290184l-23.68164 3.0695572l33.104004 14.937927l30.495667 2.8502502l21.239868 -6.069031l-23.809692 -5.0510254z" fill-rule="nonzero"></path><path stroke="#434343" stroke-width="2.0" stroke-linejoin="round" stroke-linecap="butt" d="m473.22595 27.67452l-46.513214 -11.50053l-2.6766052 54.290184l-23.68164 3.0695572l33.104004 14.937927l30.495667 2.8502502l21.239868 -6.069031l-23.809692 -5.0510254z" fill-rule="nonzero"></path><path fill="#efefef" d="m425.1953 61.02446l18.588623 1.717598l20.479767 6.9195404l-4.964569 10.642929l-14.624573 -1.2897339l-21.161713 -7.607086z" fill-rule="nonzero"></path><path stroke="#434343" stroke-width="2.0" stroke-linejoin="round" stroke-linecap="butt" d="m425.1953 61.02446l18.588623 1.717598l20.479767 6.9195404l-4.964569 10.642929l-14.624573 -1.2897339l-21.161713 -7.607086z" fill-rule="nonzero"></path><path fill="#ffffff" d="m449.57742 110.25197l0 0c0 -5.331505 4.251526 -9.653542 9.496063 -9.653542l0 0c2.5185242 0 4.9338684 1.017067 6.7147217 2.8274536c1.7808838 1.8103943 2.7813416 4.265808 2.7813416 6.826088l0 0c0 5.331505 -4.251526 9.653542 -9.496063 9.653542l0 0c-5.2445374 0 -9.496063 -4.3220367 -9.496063 -9.653542z" fill-rule="nonzero"></path><path stroke="#000000" stroke-width="2.0" stroke-linejoin="round" stroke-linecap="butt" d="m449.57742 110.25197l0 0c0 -5.331505 4.251526 -9.653542 9.496063 -9.653542l0 0c2.5185242 0 4.9338684 1.017067 6.7147217 2.8274536c1.7808838 1.8103943 2.7813416 4.265808 2.7813416 6.826088l0 0c0 5.331505 -4.251526 9.653542 -9.496063 9.653542l0 0c-5.2445374 0 -9.496063 -4.3220367 -9.496063 -9.653542z" fill-rule="nonzero"></path><path fill="#000000" d="m462.0525 107.997375l0 0c0 -0.86974335 0.64160156 -1.5748062 1.433075 -1.5748062l0 0c0.38006592 0 0.7445679 0.16591644 1.0133362 0.4612503c0.2687378 0.29533386 0.41973877 0.69589233 0.41973877 1.1135559l0 0c0 0.86974335 -0.64160156 1.5748062 -1.433075 1.5748062l0 0c-0.7914734 0 -1.433075 -0.70506287 -1.433075 -1.5748062z" fill-rule="nonzero"></path><path stroke="#000000" stroke-width="2.0" stroke-linejoin="round" stroke-linecap="butt" d="m462.0525 107.997375l0 0c0 -0.86974335 0.64160156 -1.5748062 1.433075 -1.5748062l0 0c0.38006592 0 0.7445679 0.16591644 1.0133362 0.4612503c0.2687378 0.29533386 0.41973877 0.69589233 0.41973877 1.1135559l0 0c0 0.86974335 -0.64160156 1.5748062 -1.433075 1.5748062l0 0c-0.7914734 0 -1.433075 -0.70506287 -1.433075 -1.5748062z" fill-rule="nonzero"></path><path fill="#000000" d="m481.3206 96.65425l0 0c0 -0.86974335 0.64160156 -1.5748062 1.433075 -1.5748062l0 0c0.38006592 0 0.7445679 0.16591644 1.0133362 0.4612503c0.2687378 0.29533386 0.41970825 0.69589233 0.41970825 1.1135559l0 0c0 0.8697357 -0.64160156 1.5748062 -1.4330444 1.5748062l0 0c-0.7914734 0 -1.433075 -0.7050705 -1.433075 -1.5748062z" fill-rule="nonzero"></path><path stroke="#000000" stroke-width="2.0" stroke-linejoin="round" stroke-linecap="butt" d="m481.3206 96.65425l0 0c0 -0.86974335 0.64160156 -1.5748062 1.433075 -1.5748062l0 0c0.38006592 0 0.7445679 0.16591644 1.0133362 0.4612503c0.2687378 0.29533386 0.41970825 0.69589233 0.41970825 1.1135559l0 0c0 0.8697357 -0.64160156 1.5748062 -1.4330444 1.5748062l0 0c-0.7914734 0 -1.433075 -0.7050705 -1.433075 -1.5748062z" fill-rule="nonzero"></path><path fill="#b45f06" d="m414.70602 143.95801l-29.595795 10.230972l-37.270325 17.905502l-6.2099915 8.769028l27.036743 1.4593201l35.07611 -12.055115z" fill-rule="nonzero"></path><path stroke="#000000" stroke-width="2.0" stroke-linejoin="round" stroke-linecap="butt" d="m414.70602 143.95801l-29.595795 10.230972l-37.270325 17.905502l-6.2099915 8.769028l27.036743 1.4593201l35.07611 -12.055115z" fill-rule="nonzero"></path><path fill="#b45f06" d="m488.25986 116.362206l4.188965 -4.6535416l9.774261 8.377953l-7.910736 14.430443l5.5852966 4.653549l0.4645691 -7.4461975l2.792633 12.099731l-11.635162 -2.7926483l-1.8635254 -9.774277l4.656189 -5.1181107l-10.241486 4.1889725l3.7244263 13.496063l-18.152252 11.1706085l-3.2598267 -19.548553l6.984253 8.377945l3.2572021 -5.5852966l-10.706024 -10.703415l11.170593 -13.498688z" fill-rule="nonzero"></path><path stroke="#000000" stroke-width="2.0" stroke-linejoin="round" stroke-linecap="butt" d="m488.25986 116.362206l4.188965 -4.6535416l9.774261 8.377953l-7.910736 14.430443l5.5852966 4.653549l0.4645691 -7.4461975l2.792633 12.099731l-11.635162 -2.7926483l-1.8635254 -9.774277l4.656189 -5.1181107l-10.241486 4.1889725l3.7244263 13.496063l-18.152252 11.1706085l-3.2598267 -19.548553l6.984253 8.377945l3.2572021 -5.5852966l-10.706024 -10.703415l11.170593 -13.498688z" fill-rule="nonzero"></path><path fill="#000000" fill-opacity="0.0" d="m466.8504 139.63518l-15.826782 -6.51445" fill-rule="nonzero"></path><path stroke="#000000" stroke-width="2.0" stroke-linejoin="round" stroke-linecap="butt" d="m466.8504 139.63518l-15.826782 -6.51445" fill-rule="nonzero"></path><path fill="#ffffff" d="m530.6168 128.00005l21.423767 -34.241913l0 0c-38.916077 -13.722687 -47.332367 -37.972042 -19.443726 -56.022c27.88861 -18.049957 82.95508 -23.993336 127.21716 -13.730673c44.262085 10.262663 63.23419 33.37272 43.8302 53.38994c-19.40393 20.017227 -70.83362 30.390602 -118.81531 23.965073z" fill-rule="nonzero"></path><path stroke="#000000" stroke-width="2.0" stroke-linejoin="round" stroke-linecap="butt" d="m530.6168 128.00005l21.423767 -34.241913l0 0c-38.916077 -13.722687 -47.332367 -37.972042 -19.443726 -56.022c27.88861 -18.049957 82.95508 -23.993336 127.21716 -13.730673c44.262085 10.262663 63.23419 33.37272 43.8302 53.38994c-19.40393 20.017227 -70.83362 30.390602 -118.81531 23.965073z" fill-rule="nonzero"></path><path fill="#000000" fill-opacity="0.0" d="m496.55118 6.4278216l227.14963 0l0 109.85827l-227.14963 0z" fill-rule="nonzero"></path><path fill="#000000" d="m538.876 58.474144l1.203125 -6.0q0.265625 -1.25 0.59375 -1.640625q0.34375 -0.40625 0.828125 -0.40625q0.3125 0 0.484375 0.171875q0.171875 0.171875 0.171875 0.484375q0 0.203125 -0.3125 1.125l-2.125 6.109375q-0.1875 0.5625 -0.5 0.5625q-0.421875 0 -0.34375 -0.40625zm19.78125 -4.3125l-0.828125 0q0.125 -0.796875 0.125 -1.265625q0 -0.625 -0.53125 -0.8125q-0.515625 -0.203125 -3.9375 -0.203125l-2.28125 0.015625l-1.734375 6.90625l3.234375 0q1.53125 0 1.875 -0.21875q0.359375 -0.234375 0.515625 -1.140625l0.890625 0q-0.5 1.890625 -0.890625 4.15625l-0.796875 0q0.078125 -0.734375 0.078125 -1.140625q0 -0.171875 -0.21875 -0.421875q-0.109375 -0.125 -0.40625 -0.171875q-0.421875 -0.078125 -1.3125 -0.078125l-3.203125 0q-1.390625 5.3125 -2.890625 8.328125q1.453125 -0.453125 2.578125 -0.453125q1.875 0 4.59375 0.59375q1.4375 0.328125 1.953125 0.328125q0.6875 0 1.109375 -0.34375q0.421875 -0.34375 0.421875 -0.78125q0 -0.25 -0.203125 -0.8125q-0.125 -0.390625 -0.125 -0.734375q0 -0.359375 0.28125 -0.640625q0.296875 -0.28125 0.703125 -0.28125q0.484375 0 0.796875 0.375q0.328125 0.375 0.328125 1.0q0 1.328125 -1.171875 2.328125q-1.15625 1.0 -3.0625 1.0q-1.0 0 -2.53125 -0.171875q-3.359375 -0.375 -5.125 -0.375q-2.3125 0 -5.40625 0.375l0.25 -0.859375q1.84375 -0.515625 2.171875 -0.75q0.328125 -0.25 0.546875 -0.71875q0.75 -1.484375 1.9375 -5.953125q1.203125 -4.46875 2.4375 -9.4375q-1.875 0 -3.546875 0.890625q-1.671875 0.890625 -2.609375 2.328125q-0.9375 1.421875 -0.9375 3.0q0 0.671875 0.125 1.171875q0.140625 0.5 0.609375 1.40625q0.296875 0.546875 0.296875 0.890625q0 0.34375 -0.296875 0.609375q-0.28125 0.265625 -0.703125 0.265625q-0.609375 0 -0.96875 -0.609375q-0.53125 -0.890625 -0.53125 -2.421875q0 -3.28125 2.484375 -5.890625q2.484375 -2.609375 7.234375 -2.609375l5.359375 0q2.78125 0 4.109375 -0.359375q-0.625 2.59375 -0.796875 3.6875zm8.5625 11.21875l0.53125 0.5625q-1.21875 1.375 -2.890625 2.515625q-1.65625 1.125 -2.734375 1.125q-0.484375 0 -0.796875 -0.375q-0.3125 -0.359375 -0.3125 -1.0q0 -1.25 0.96875 -5.1875l1.6875 -6.859375q0.921875 -3.71875 1.546875 -4.984375q0.96875 -1.921875 2.734375 -2.984375q1.78125 -1.0625 3.75 -1.0625q0.671875 0 1.046875 0.328125q0.390625 0.3125 0.390625 0.765625q0 0.5 -0.375 0.828125q-0.375 0.3125 -1.09375 0.3125q-0.46875 0 -1.328125 -0.15625q-0.75 -0.125 -1.390625 -0.125q-0.640625 0 -0.96875 0.265625q-0.453125 0.375 -0.828125 1.578125q-0.359375 1.203125 -1.1875 4.75l-1.546875 6.546875q-1.15625 4.921875 -1.15625 5.140625q0 0.5 0.359375 0.5q0.34375 0 1.0 -0.40625q1.296875 -0.8125 2.59375 -2.078125zm7.671875 0l0.53125 0.5625q-1.21875 1.375 -2.890625 2.515625q-1.65625 1.125 -2.734375 1.125q-0.484375 0 -0.796875 -0.375q-0.3125 -0.359375 -0.3125 -1.0q0 -1.25 0.96875 -5.1875l1.6875 -6.859375q0.921875 -3.71875 1.546875 -4.984375q0.96875 -1.921875 2.734375 -2.984375q1.78125 -1.0625 3.75 -1.0625q0.671875 0 1.046875 0.328125q0.390625 0.3125 0.390625 0.765625q0 0.5 -0.375 0.828125q-0.375 0.3125 -1.09375 0.3125q-0.46875 0 -1.328125 -0.15625q-0.75 -0.125 -1.390625 -0.125q-0.640625 0 -0.96875 0.265625q-0.453125 0.375 -0.828125 1.578125q-0.359375 1.203125 -1.1875 4.75l-1.546875 6.546875q-1.15625 4.921875 -1.15625 5.140625q0 0.5 0.359375 0.5q0.34375 0 1.0 -0.40625q1.296875 -0.8125 2.59375 -2.078125zm8.921875 -9.375q1.53125 0 2.546875 1.21875q1.015625 1.21875 1.015625 3.390625q0 3.46875 -2.4375 6.234375q-2.4375 2.75 -5.15625 2.75q-1.671875 0 -2.703125 -1.09375q-1.015625 -1.09375 -1.015625 -2.984375q0 -3.28125 1.875 -6.0625q2.359375 -3.453125 5.875 -3.453125zm-1.328125 1.171875q-1.328125 0 -2.578125 1.90625q-1.234375 1.890625 -1.234375 5.234375q0 2.03125 0.765625 3.203125q0.5625 0.859375 1.5 0.859375q1.3125 0 2.390625 -1.625q1.375 -2.109375 1.375 -5.234375q0 -2.34375 -0.640625 -3.34375q-0.625 -1.0 -1.578125 -1.0zm21.15625 -1.171875q1.53125 0 2.546875 1.21875q1.015625 1.21875 1.015625 3.390625q0 3.46875 -2.4375 6.234375q-2.4375 2.75 -5.15625 2.75q-1.671875 0 -2.703125 -1.09375q-1.015625 -1.09375 -1.015625 -2.984375q0 -3.28125 1.875 -6.0625q2.359375 -3.453125 5.875 -3.453125zm-1.328125 1.171875q-1.328125 0 -2.578125 1.90625q-1.234375 1.890625 -1.234375 5.234375q0 2.03125 0.765625 3.203125q0.5625 0.859375 1.5 0.859375q1.3125 0 2.390625 -1.625q1.375 -2.109375 1.375 -5.234375q0 -2.34375 -0.640625 -3.34375q-0.625 -1.0 -1.578125 -1.0zm12.875 8.203125l0.53125 0.5625q-1.21875 1.375 -2.890625 2.515625q-1.65625 1.125 -2.734375 1.125q-0.484375 0 -0.796875 -0.375q-0.3125 -0.359375 -0.3125 -1.0q0 -1.25 0.96875 -5.1875l1.6875 -6.859375q0.921875 -3.71875 1.546875 -4.984375q0.96875 -1.921875 2.734375 -2.984375q1.78125 -1.0625 3.75 -1.0625q0.671875 0 1.046875 0.328125q0.390625 0.3125 0.390625 0.765625q0 0.5 -0.375 0.828125q-0.375 0.3125 -1.09375 0.3125q-0.46875 0 -1.328125 -0.15625q-0.75 -0.125 -1.390625 -0.125q-0.640625 0 -0.96875 0.265625q-0.453125 0.375 -0.828125 1.578125q-0.359375 1.203125 -1.1875 4.75l-1.546875 6.546875q-1.15625 4.921875 -1.15625 5.140625q0 0.5 0.359375 0.5q0.34375 0 1.0 -0.40625q1.296875 -0.8125 2.59375 -2.078125zm4.296875 -6.90625l1.203125 -6.0q0.265625 -1.25 0.59375 -1.640625q0.34375 -0.40625 0.828125 -0.40625q0.3125 0 0.484375 0.171875q0.171875 0.171875 0.171875 0.484375q0 0.203125 -0.3125 1.125l-2.125 6.109375q-0.1875 0.5625 -0.5 0.5625q-0.421875 0 -0.34375 -0.40625zm17.609375 7.28125l0.328125 0.90625q-3.71875 2.921875 -6.28125 2.921875q-1.359375 0 -1.984375 -0.96875q-0.609375 -0.96875 -0.609375 -2.453125q0 -2.46875 1.3125 -5.078125q1.3125 -2.609375 3.1875 -4.0q1.46875 -1.078125 3.3125 -1.078125q1.15625 0 1.75 0.4375q0.59375 0.4375 0.59375 1.0625q0 0.484375 -0.3125 0.796875q-0.3125 0.296875 -0.875 0.296875q-0.546875 0 -1.40625 -0.5q-0.890625 -0.53125 -1.484375 -0.53125q-0.765625 0 -1.53125 0.703125q-0.75 0.6875 -1.4375 2.6875q-0.6875 2.0 -0.6875 4.015625q0 1.484375 0.578125 2.296875q0.421875 0.625 1.1875 0.625q1.828125 0 4.359375 -2.140625zm14.84375 0.078125l0.40625 0.578125q-1.4375 1.59375 -2.953125 2.53125q-1.03125 0.640625 -1.703125 0.640625q-0.546875 0 -0.890625 -0.4375q-0.328125 -0.4375 -0.328125 -1.359375q0 -0.625 0.25 -1.8125q0.265625 -1.203125 1.46875 -5.140625q0.53125 -1.9375 0.53125 -2.265625q0 -0.53125 -0.53125 -0.53125q-0.65625 0 -1.640625 0.65625q-1.375 0.90625 -2.4375 2.3125q-0.671875 0.90625 -1.078125 2.6875l-1.25 5.4375l-2.328125 0q0.75 -2.734375 1.15625 -4.46875l2.296875 -10.03125q0.625 -2.765625 1.640625 -4.25q1.03125 -1.5 2.671875 -2.390625q1.65625 -0.890625 3.265625 -0.890625q0.671875 0 1.0625 0.328125q0.390625 0.328125 0.390625 0.828125q0 0.421875 -0.390625 0.75q-0.375 0.3125 -1.03125 0.3125q-0.375 0 -0.96875 -0.078125q-1.34375 -0.1875 -1.859375 -0.1875q-0.71875 0 -1.171875 0.578125q-0.453125 0.578125 -0.9375 2.71875l-1.75 7.71875q1.859375 -1.953125 4.046875 -3.296875q1.28125 -0.796875 2.0625 -0.796875q0.609375 0 0.953125 0.375q0.34375 0.359375 0.34375 1.015625q0 0.53125 -0.125 1.0625q-0.203125 0.921875 -0.953125 3.34375q-1.015625 3.34375 -1.203125 4.15625q-0.171875 0.8125 -0.171875 1.453125q0 0.25 0.078125 0.375q0.09375 0.125 0.265625 0.125q0.375 0 1.40625 -0.890625q0.578125 -0.484375 1.40625 -1.15625zm12.1875 -10.09375l1.03125 -0.21875l-1.171875 3.953125q-0.703125 2.359375 -1.328125 5.4375q-0.34375 1.671875 -0.34375 2.15625q0 0.484375 0.390625 0.484375q0.25 0 0.796875 -0.328125q0.96875 -0.578125 1.859375 -1.4375l0.5 0.609375q-1.78125 1.625 -2.28125 1.96875q-1.0 0.6875 -1.90625 1.015625q-0.59375 0.21875 -1.15625 0.21875q-0.40625 0 -0.609375 -0.1875q-0.203125 -0.1875 -0.203125 -0.546875q0 -0.234375 0.125 -0.640625l0.625 -2.125q-1.34375 1.609375 -3.203125 2.765625q-1.140625 0.71875 -2.09375 0.71875q-0.90625 0 -1.390625 -0.640625q-0.65625 -0.859375 -0.65625 -2.25q0 -1.65625 0.875 -3.6875q0.890625 -2.03125 2.375 -3.6875q1.484375 -1.65625 3.125 -2.4375q1.265625 -0.59375 3.25 -0.59375q0.5 0 1.015625 0.0625l0.375 -0.609375zm-1.9375 2.390625q-0.84375 -0.171875 -1.421875 -0.171875q-1.40625 0 -2.453125 0.78125q-1.046875 0.765625 -1.953125 2.78125q-0.890625 2.0 -0.890625 4.0q0 1.0625 0.359375 1.53125q0.359375 0.46875 0.9375 0.46875q1.078125 0 2.3125 -1.15625q1.234375 -1.171875 1.8125 -3.359375l1.296875 -4.875zm4.953125 1.75l-0.609375 -0.625q1.421875 -1.703125 2.828125 -2.515625q1.40625 -0.8125 2.4375 -0.8125q0.390625 0 0.609375 0.203125q0.234375 0.1875 0.234375 0.5625q0 0.453125 -0.109375 0.9375q-0.09375 0.46875 -0.625 2.25q2.390625 -2.390625 3.265625 -2.953125q1.46875 -0.953125 2.6875 -0.953125q0.796875 0 1.34375 0.75q0.546875 0.75 0.546875 2.265625q0 3.78125 -2.359375 7.1875q-2.359375 3.40625 -5.21875 3.40625q-1.125 0 -2.25 -0.609375l-1.328125 5.15625q-0.125 0.46875 -0.125 0.765625q0 0.578125 0.4375 0.828125q0.671875 0.390625 2.828125 0.640625l-0.203125 0.78125q-2.515625 -0.203125 -3.953125 -0.203125q-1.484375 0 -3.84375 0.203125l0.203125 -0.78125q1.1875 -0.125 1.71875 -0.65625q0.546875 -0.53125 0.875 -1.890625l2.828125 -11.859375q0.796875 -3.3125 0.796875 -3.6875q0 -0.40625 -0.390625 -0.40625q-0.6875 0 -2.625 2.015625zm3.15625 7.375q1.234375 1.234375 2.53125 1.234375q1.875 0 3.28125 -2.921875q1.421875 -2.921875 1.421875 -5.703125q0 -0.890625 -0.40625 -1.34375q-0.390625 -0.46875 -1.0625 -0.46875q-0.75 0 -1.6875 0.734375q-1.453125 1.140625 -2.21875 2.265625q-0.546875 0.8125 -1.03125 2.8125l-0.828125 3.390625zm14.734375 -3.265625l-0.90625 0q1.015625 -7.453125 1.453125 -12.625q0.015625 -0.296875 0.140625 -0.421875q0.234375 -0.21875 0.890625 -0.390625q1.078125 -0.28125 1.5 -0.28125q0.328125 0 0.328125 0.328125q0 0.21875 -0.125 0.578125q-0.203125 0.59375 -1.375 5.09375l-1.90625 7.71875zm-0.84375 1.78125q0.609375 0 1.015625 0.46875q0.421875 0.453125 0.421875 1.15625q0 1.015625 -0.484375 1.59375q-0.484375 0.578125 -1.21875 0.578125q-0.609375 0 -1.03125 -0.421875q-0.40625 -0.4375 -0.40625 -1.109375q0 -0.984375 0.578125 -1.71875q0.421875 -0.546875 1.125 -0.546875z" fill-rule="nonzero"></path><path fill="#000000" fill-opacity="0.0" d="m446.11154 110.13911l-7.34906 34.154854l6.48291 11.24147" fill-rule="nonzero"></path><path stroke="#999999" stroke-width="2.0" stroke-linejoin="round" stroke-linecap="butt" d="m446.11154 110.13911l-7.34906 34.154854l6.48291 11.24147" fill-rule="nonzero"></path><path fill="#cfe2f3" fill-opacity="0.4962" d="m446.54462 108.19685l0 0c0 -8.479965 6.4865723 -15.354332 14.48819 -15.354332l0 0c3.8424988 0 7.527649 1.6176834 10.24469 4.497177c2.7170715 2.8794937 4.2434998 6.7849274 4.2434998 10.857155l0 0c0 8.479958 -6.4865723 15.354324 -14.48819 15.354324l0 0c-8.001617 0 -14.48819 -6.8743668 -14.48819 -15.354324z" fill-rule="nonzero"></path><path stroke="#666666" stroke-width="2.0" stroke-linejoin="round" stroke-linecap="butt" d="m446.54462 108.19685l0 0c0 -8.479965 6.4865723 -15.354332 14.48819 -15.354332l0 0c3.8424988 0 7.527649 1.6176834 10.24469 4.497177c2.7170715 2.8794937 4.2434998 6.7849274 4.2434998 10.857155l0 0c0 8.479958 -6.4865723 15.354324 -14.48819 15.354324l0 0c-8.001617 0 -14.48819 -6.8743668 -14.48819 -15.354324z" fill-rule="nonzero"></path></g></svg>

