<?xml version="1.0" standalone="yes"?>

<svg version="1.1" viewBox="0.0 0.0 960.0 720.0" fill="none" stroke="none" stroke-linecap="square" stroke-miterlimit="10" xmlns="http://www.w3.org/2000/svg" xmlns:xlink="http://www.w3.org/1999/xlink"><clipPath id="p.0"><path d="m0 0l960.0 0l0 720.0l-960.0 0l0 -720.0z" clip-rule="nonzero"></path></clipPath><g clip-path="url(#p.0)"><path fill="#000000" fill-opacity="0.0" d="m0 0l960.0 0l0 720.0l-960.0 0z" fill-rule="nonzero"></path><path fill="#000000" d="m611.5999 299.571l0 0c-1.0447388 -2.748352 -0.055908203 -5.674164 2.2086182 -6.5350037l0 0c1.0874634 -0.4133911 2.329712 -0.2855835 3.4534302 0.35534668c1.1237183 0.6409302 2.0368652 1.7424316 2.5385742 3.0622253l0 0c1.0447388 2.7483215 0.05596924 5.674164 -2.2086182 6.5350037l0 0c-2.2645264 0.86083984 -4.9472656 -0.6692505 -5.9920044 -3.417572z" fill-rule="nonzero"></path><path stroke="#000000" stroke-width="2.0" stroke-linejoin="round" stroke-linecap="butt" d="m611.5999 299.571l0 0c-1.0447388 -2.748352 -0.055908203 -5.674164 2.2086182 -6.5350037l0 0c1.0874634 -0.4133911 2.329712 -0.2855835 3.4534302 0.35534668c1.1237183 0.6409302 2.0368652 1.7424316 2.5385742 3.0622253l0 0c1.0447388 2.7483215 0.05596924 5.674164 -2.2086182 6.5350037l0 0c-2.2645264 0.86083984 -4.9472656 -0.6692505 -5.9920044 -3.417572z" fill-rule="nonzero"></path><path fill="#705233" d="m640.2167 299.3306l-13.653748 34.3927l-9.183228 4.4792786l-40.852356 42.25412l-47.686707 39.90335l-13.238403 5.530182l-14.62442 11.002411l-106.42001 42.92929l-11.425964 -0.11114502l-30.4794 73.45035l-2.250946 -18.939575l1.4266052 -7.965576l-5.2740173 6.9537354l-5.6583557 -5.7664185l11.78772 -15.864746l-6.3419495 -1.0554504l-10.280365 13.311493l-4.8535156 -7.5584717l15.229187 -21.129883l-7.595581 -3.0533142l-12.960602 19.279175l-8.666901 -0.66226196l12.675964 -22.637268l-3.7022095 -4.529785l-16.109772 17.50418l-10.268951 -7.4765015l10.22168 -14.775238l-13.654327 9.645264l-57.641724 -30.548248l-13.897263 3.7969055l-27.475845 18.859894l-64.113464 70.89194l-17.090042 4.5164795l49.319153 -49.92737l-52.374947 32.779785l10.040489 -19.16101l33.30214 -23.051453l-30.80616 12.699127l28.29522 -41.44107l-14.85289 -15.635132l46.33014 -16.126038l-50.238174 13.654724l-33.776665 -9.433258l24.665512 -5.4159546l-44.566452 -1.3711243l36.609726 -10.450653l-40.10611 3.8623657l35.313217 -9.961334l36.82685 1.8388672l45.35428 -4.3749084l44.546936 -27.32605l30.304367 -28.34674l31.323242 -17.848022l-25.395172 -12.121735l14.624451 -11.00238l-26.66336 6.669586l-22.653107 -16.626831l18.5943 -7.068512l47.167847 -10.013153l43.625244 -3.7140808l67.72595 -26.243317l55.30185 -8.152847l58.026215 8.13237l73.293884 19.649323l15.047424 -0.7713623z" fill-rule="nonzero"></path><path stroke="#000000" stroke-width="2.0" stroke-linejoin="round" stroke-linecap="butt" d="m640.2167 299.3306l-13.653748 34.3927l-9.183228 4.4792786l-40.852356 42.25412l-47.686707 39.90335l-13.238403 5.530182l-14.62442 11.002411l-106.42001 42.92929l-11.425964 -0.11114502l-30.4794 73.45035l-2.250946 -18.939575l1.4266052 -7.965576l-5.2740173 6.9537354l-5.6583557 -5.7664185l11.78772 -15.864746l-6.3419495 -1.0554504l-10.280365 13.311493l-4.8535156 -7.5584717l15.229187 -21.129883l-7.595581 -3.0533142l-12.960602 19.279175l-8.666901 -0.66226196l12.675964 -22.637268l-3.7022095 -4.529785l-16.109772 17.50418l-10.268951 -7.4765015l10.22168 -14.775238l-13.654327 9.645264l-57.641724 -30.548248l-13.897263 3.7969055l-27.475845 18.859894l-64.113464 70.89194l-17.090042 4.5164795l49.319153 -49.92737l-52.374947 32.779785l10.040489 -19.16101l33.30214 -23.051453l-30.80616 12.699127l28.29522 -41.44107l-14.85289 -15.635132l46.33014 -16.126038l-50.238174 13.654724l-33.776665 -9.433258l24.665512 -5.4159546l-44.566452 -1.3711243l36.609726 -10.450653l-40.10611 3.8623657l35.313217 -9.961334l36.82685 1.8388672l45.35428 -4.3749084l44.546936 -27.32605l30.304367 -28.34674l31.323242 -17.848022l-25.395172 -12.121735l14.624451 -11.00238l-26.66336 6.669586l-22.653107 -16.626831l18.5943 -7.068512l47.167847 -10.013153l43.625244 -3.7140808l67.72595 -26.243317l55.30185 -8.152847l58.026215 8.13237l73.293884 19.649323l15.047424 -0.7713623z" fill-rule="nonzero"></path><path fill="#000000" fill-opacity="0.0" d="m593.54987 280.14487l-264.88364 32.26407" fill-rule="nonzero"></path><path stroke="#274e13" stroke-width="8.0" stroke-linejoin="round" stroke-linecap="butt" d="m593.54987 280.14487l-264.88364 32.26407" fill-rule="nonzero"></path><path fill="#000000" fill-opacity="0.0" d="m598.45807 286.06122l-264.8836 32.26407" fill-rule="nonzero"></path><path stroke="#705233" stroke-width="8.0" stroke-linejoin="round" stroke-linecap="butt" d="m598.45807 286.06122l-264.8836 32.26407" fill-rule="nonzero"></path><path fill="#000000" fill-opacity="0.0" d="m598.45685 290.9539l-265.18146 35.963135" fill-rule="nonzero"></path><path stroke="#274e13" stroke-width="8.0" stroke-linejoin="round" stroke-linecap="butt" d="m598.45685 290.9539l-265.18146 35.963135" fill-rule="nonzero"></path><path fill="#000000" fill-opacity="0.0" d="m601.41144 297.0738l-265.18143 35.963135" fill-rule="nonzero"></path><path stroke="#705233" stroke-width="8.0" stroke-linejoin="round" stroke-linecap="butt" d="m601.41144 297.0738l-265.18143 35.963135" fill-rule="nonzero"></path><path fill="#000000" fill-opacity="0.0" d="m594.852 299.79987l-263.0007 42.814026" fill-rule="nonzero"></path><path stroke="#274e13" stroke-width="8.0" stroke-linejoin="round" stroke-linecap="butt" d="m594.852 299.79987l-263.0007 42.814026" fill-rule="nonzero"></path><path fill="#000000" fill-opacity="0.0" d="m602.0033 307.0258l-263.00073 42.814056" fill-rule="nonzero"></path><path stroke="#705233" stroke-width="8.0" stroke-linejoin="round" stroke-linecap="butt" d="m602.0033 307.0258l-263.00073 42.814056" fill-rule="nonzero"></path><path fill="#000000" fill-opacity="0.0" d="m608.5259 312.725l-262.4919 43.537994" fill-rule="nonzero"></path><path stroke="#274e13" stroke-width="8.0" stroke-linejoin="round" stroke-linecap="butt" d="m608.5259 312.725l-262.4919 43.537994" fill-rule="nonzero"></path><path fill="#000000" fill-opacity="0.0" d="m619.95886 318.36755l-262.4919 43.537994" fill-rule="nonzero"></path><path stroke="#705233" stroke-width="8.0" stroke-linejoin="round" stroke-linecap="butt" d="m619.95886 318.36755l-262.4919 43.537994" fill-rule="nonzero"></path><path fill="#000000" fill-opacity="0.0" d="m599.0899 296.43616l-296.66782 36.72348" fill-rule="nonzero"></path><path stroke="#274e13" stroke-width="8.0" stroke-linejoin="round" stroke-linecap="butt" d="m599.0899 296.43616l-296.66782 36.72348" fill-rule="nonzero"></path><path fill="#000000" fill-opacity="0.0" d="m604.4796 302.28497l-296.66782 36.72348" fill-rule="nonzero"></path><path stroke="#705233" stroke-width="8.0" stroke-linejoin="round" stroke-linecap="butt" d="m604.4796 302.28497l-296.66782 36.72348" fill-rule="nonzero"></path><path fill="#000000" fill-opacity="0.0" d="m604.3975 307.18896l-297.06186 40.436035" fill-rule="nonzero"></path><path stroke="#274e13" stroke-width="8.0" stroke-linejoin="round" stroke-linecap="butt" d="m604.3975 307.18896l-297.06186 40.436035" fill-rule="nonzero"></path><path fill="#000000" fill-opacity="0.0" d="m607.5998 313.27414l-297.06186 40.436035" fill-rule="nonzero"></path><path stroke="#705233" stroke-width="8.0" stroke-linejoin="round" stroke-linecap="butt" d="m607.5998 313.27414l-297.06186 40.436035" fill-rule="nonzero"></path><path fill="#000000" fill-opacity="0.0" d="m600.22144 316.1151l-294.73688 47.266693" fill-rule="nonzero"></path><path stroke="#274e13" stroke-width="8.0" stroke-linejoin="round" stroke-linecap="butt" d="m600.22144 316.1151l-294.73688 47.266693" fill-rule="nonzero"></path><path fill="#000000" fill-opacity="0.0" d="m608.0972 323.23938l-294.73688 47.266724" fill-rule="nonzero"></path><path stroke="#705233" stroke-width="8.0" stroke-linejoin="round" stroke-linecap="butt" d="m608.0972 323.23938l-294.73688 47.266724" fill-rule="nonzero"></path><path fill="#000000" fill-opacity="0.0" d="m615.29535 328.8438l-294.17996 47.983917" fill-rule="nonzero"></path><path stroke="#274e13" stroke-width="8.0" stroke-linejoin="round" stroke-linecap="butt" d="m615.29535 328.8438l-294.17996 47.983917" fill-rule="nonzero"></path><path fill="#000000" fill-opacity="0.0" d="m627.98413 334.31018l-294.17996 47.983887" fill-rule="nonzero"></path><path stroke="#705233" stroke-width="8.0" stroke-linejoin="round" stroke-linecap="butt" d="m627.98413 334.31018l-294.17996 47.983887" fill-rule="nonzero"></path><path fill="#000000" fill-opacity="0.0" d="m596.386 303.71198l-284.1899 92.708496" fill-rule="nonzero"></path><path stroke="#274e13" stroke-width="8.0" stroke-linejoin="round" stroke-linecap="butt" d="m596.386 303.71198l-284.1899 92.708496" fill-rule="nonzero"></path><path fill="#000000" fill-opacity="0.0" d="m602.79346 308.4236l-284.1899 92.708496" fill-rule="nonzero"></path><path stroke="#705233" stroke-width="8.0" stroke-linejoin="round" stroke-linecap="butt" d="m602.79346 308.4236l-284.1899 92.708496" fill-rule="nonzero"></path><path fill="#000000" fill-opacity="0.0" d="m603.6494 313.25296l-283.86758 96.42789" fill-rule="nonzero"></path><path stroke="#274e13" stroke-width="8.0" stroke-linejoin="round" stroke-linecap="butt" d="m603.6494 313.25296l-283.86758 96.42789" fill-rule="nonzero"></path><path fill="#000000" fill-opacity="0.0" d="m607.9549 318.6144l-283.8676 96.42789" fill-rule="nonzero"></path><path stroke="#705233" stroke-width="8.0" stroke-linejoin="round" stroke-linecap="butt" d="m607.9549 318.6144l-283.8676 96.42789" fill-rule="nonzero"></path><path fill="#000000" fill-opacity="0.0" d="m601.255 322.81223l-280.28088 102.68866" fill-rule="nonzero"></path><path stroke="#274e13" stroke-width="8.0" stroke-linejoin="round" stroke-linecap="butt" d="m601.255 322.81223l-280.28088 102.68866" fill-rule="nonzero"></path><path fill="#000000" fill-opacity="0.0" d="m610.3464 328.30103l-280.2809 102.68866" fill-rule="nonzero"></path><path stroke="#705233" stroke-width="8.0" stroke-linejoin="round" stroke-linecap="butt" d="m610.3464 328.30103l-280.2809 102.68866" fill-rule="nonzero"></path><path fill="#000000" fill-opacity="0.0" d="m618.4823 332.42743l-279.59732 103.286285" fill-rule="nonzero"></path><path stroke="#274e13" stroke-width="8.0" stroke-linejoin="round" stroke-linecap="butt" d="m618.4823 332.42743l-279.59732 103.286285" fill-rule="nonzero"></path><path fill="#000000" fill-opacity="0.0" d="m631.9813 335.36957l-279.5973 103.286316" fill-rule="nonzero"></path><path stroke="#705233" stroke-width="8.0" stroke-linejoin="round" stroke-linecap="butt" d="m631.9813 335.36957l-279.5973 103.286316" fill-rule="nonzero"></path><path fill="#000000" fill-opacity="0.0" d="m194.79485 415.20615l-11.771881 19.815643l10.668396 24.154907l23.155533 7.5300903" fill-rule="nonzero"></path><path stroke="#000000" stroke-width="2.0" stroke-linejoin="round" stroke-linecap="butt" d="m194.79485 415.20615l-11.771881 19.815643l10.668396 24.154907l23.155533 7.5300903" fill-rule="nonzero"></path><path fill="#000000" fill-opacity="0.0" d="m237.87082 458.22052l14.578476 -8.514069l66.98088 12.15155l33.30008 12.088837l34.457886 4.7161255l-4.7140503 -0.68240356" fill-rule="nonzero"></path><path stroke="#000000" stroke-width="2.0" stroke-linejoin="round" stroke-linecap="butt" d="m237.87082 458.22052l14.578476 -8.514069l66.98088 12.15155l33.30008 12.088837l34.457886 4.7161255l-4.7140503 -0.68240356" fill-rule="nonzero"></path><path fill="#b45f06" d="m194.68823 416.23505l-9.173828 18.831573l9.907166 23.452362l22.78247 9.1579895l-19.544342 12.378479l-65.576035 70.953766l-17.192368 5.547241l50.449158 -50.854645l-53.670265 33.272186l10.5757675 -20.352844l33.797653 -21.757263l-29.407333 11.179016l27.16092 -40.515717l-15.284668 -15.471008l45.898376 -15.961884l-50.23819 13.654724l-32.148758 -9.060211l23.904274 -6.118469l-44.13778 -1.5340881l35.14908 -10.393097l-38.642357 3.80365l35.580856 -10.557251l36.291573 3.0307007z" fill-rule="nonzero"></path><path stroke="#000000" stroke-width="2.0" stroke-linejoin="round" stroke-linecap="butt" d="m194.68823 416.23505l-9.173828 18.831573l9.907166 23.452362l22.78247 9.1579895l-19.544342 12.378479l-65.576035 70.953766l-17.192368 5.547241l50.449158 -50.854645l-53.670265 33.272186l10.5757675 -20.352844l33.797653 -21.757263l-29.407333 11.179016l27.16092 -40.515717l-15.284668 -15.471008l45.898376 -15.961884l-50.23819 13.654724l-32.148758 -9.060211l23.904274 -6.118469l-44.13778 -1.5340881l35.14908 -10.393097l-38.642357 3.80365l35.580856 -10.557251l36.291573 3.0307007z" fill-rule="nonzero"></path><path fill="#b45f06" d="m240.30045 456.80273l12.148865 -7.096283l68.009766 12.258148l30.70514 13.071716l32.77362 2.8855286l-31.881317 74.97165l-0.06430054 -26.20575l-5.976532 7.714966l-5.9835205 -6.6311646l12.651276 -16.193024l-5.74292 -0.78900146l-10.179962 12.285004l-5.285309 -7.394348l15.557465 -20.266327l-7.4302673 -2.6184387l-13.556519 19.011536l-7.1019897 -1.7548523l12.138733 -21.441162l-4.46344 -5.2323303l-16.37622 18.10321l-10.270111 -7.4796143l10.924164 -15.536438l-14.788605 10.570587z" fill-rule="nonzero"></path><path stroke="#000000" stroke-width="2.0" stroke-linejoin="round" stroke-linecap="butt" d="m240.30045 456.80273l12.148865 -7.096283l68.009766 12.258148l30.70514 13.071716l32.77362 2.8855286l-31.881317 74.97165l-0.06430054 -26.20575l-5.976532 7.714966l-5.9835205 -6.6311646l12.651276 -16.193024l-5.74292 -0.78900146l-10.179962 12.285004l-5.285309 -7.394348l15.557465 -20.266327l-7.4302673 -2.6184387l-13.556519 19.011536l-7.1019897 -1.7548523l12.138733 -21.441162l-4.46344 -5.2323303l-16.37622 18.10321l-10.270111 -7.4796143l10.924164 -15.536438l-14.788605 10.570587z" fill-rule="nonzero"></path><path fill="#b45f06" d="m301.33936 340.05862l48.929077 -52.25348l-41.195618 2.2962952l-48.569794 11.534454l-17.46312 6.1443176l24.219193 15.537323l24.606812 -6.8796997l-17.713745 10.694244z" fill-rule="nonzero"></path><path stroke="#000000" stroke-width="2.0" stroke-linejoin="round" stroke-linecap="butt" d="m301.33936 340.05862l48.929077 -52.25348l-41.195618 2.2962952l-48.569794 11.534454l-17.46312 6.1443176l24.219193 15.537323l24.606812 -6.8796997l-17.713745 10.694244z" fill-rule="nonzero"></path><path fill="#000000" fill-opacity="0.0" d="m439.22058 346.045l-0.6665344 8.664978l7.553894 5.5435486" fill-rule="nonzero"></path><path stroke="#000000" stroke-width="1.0" stroke-linejoin="round" stroke-linecap="butt" d="m439.22058 346.045l-0.6665344 8.664978l7.553894 5.5435486" fill-rule="nonzero"></path><path fill="#000000" fill-opacity="0.0" d="m461.75577 348.31464l-0.6665344 8.6649475l7.553894 5.543579" fill-rule="nonzero"></path><path stroke="#000000" stroke-width="1.0" stroke-linejoin="round" stroke-linecap="butt" d="m461.75577 348.31464l-0.6665344 8.6649475l7.553894 5.543579" fill-rule="nonzero"></path><path fill="#000000" fill-opacity="0.0" d="m439.33975 360.68622l-0.6665344 8.664978l7.553894 5.5435486" fill-rule="nonzero"></path><path stroke="#000000" stroke-width="1.0" stroke-linejoin="round" stroke-linecap="butt" d="m439.33975 360.68622l-0.6665344 8.664978l7.553894 5.5435486" fill-rule="nonzero"></path><path fill="#000000" fill-opacity="0.0" d="m483.10114 330.52667l-0.66656494 8.6649475l7.553894 5.543579" fill-rule="nonzero"></path><path stroke="#000000" stroke-width="1.0" stroke-linejoin="round" stroke-linecap="butt" d="m483.10114 330.52667l-0.66656494 8.6649475l7.553894 5.543579" fill-rule="nonzero"></path><path fill="#000000" fill-opacity="0.0" d="m493.89868 358.9307l-0.6665344 8.6649475l7.553894 5.543579" fill-rule="nonzero"></path><path stroke="#000000" stroke-width="1.0" stroke-linejoin="round" stroke-linecap="butt" d="m493.89868 358.9307l-0.6665344 8.6649475l7.553894 5.543579" fill-rule="nonzero"></path><path fill="#000000" fill-opacity="0.0" d="m471.48273 371.30225l-0.66656494 8.6649475l7.5539246 5.543579" fill-rule="nonzero"></path><path stroke="#000000" stroke-width="1.0" stroke-linejoin="round" stroke-linecap="butt" d="m471.48273 371.30225l-0.66656494 8.6649475l7.5539246 5.543579" fill-rule="nonzero"></path><path fill="#000000" fill-opacity="0.0" d="m434.96112 392.00098l-0.66656494 8.664978l7.553894 5.5435486" fill-rule="nonzero"></path><path stroke="#000000" stroke-width="1.0" stroke-linejoin="round" stroke-linecap="butt" d="m434.96112 392.00098l-0.66656494 8.664978l7.553894 5.5435486" fill-rule="nonzero"></path><path fill="#000000" fill-opacity="0.0" d="m448.02832 397.86978l-0.6665344 8.664978l7.553894 5.5435486" fill-rule="nonzero"></path><path stroke="#000000" stroke-width="1.0" stroke-linejoin="round" stroke-linecap="butt" d="m448.02832 397.86978l-0.6665344 8.664978l7.553894 5.5435486" fill-rule="nonzero"></path><path fill="#000000" fill-opacity="0.0" d="m429.21152 419.70935l-0.6665344 8.664978l7.553894 5.5435486" fill-rule="nonzero"></path><path stroke="#000000" stroke-width="1.0" stroke-linejoin="round" stroke-linecap="butt" d="m429.21152 419.70935l-0.6665344 8.664978l7.553894 5.5435486" fill-rule="nonzero"></path><path fill="#000000" fill-opacity="0.0" d="m383.35257 313.10184l-0.66656494 8.664978l7.553894 5.5435486" fill-rule="nonzero"></path><path stroke="#000000" stroke-width="1.0" stroke-linejoin="round" stroke-linecap="butt" d="m383.35257 313.10184l-0.66656494 8.664978l7.553894 5.5435486" fill-rule="nonzero"></path><path fill="#000000" fill-opacity="0.0" d="m405.8878 315.37143l-0.6665344 8.6649475l7.553894 5.543579" fill-rule="nonzero"></path><path stroke="#000000" stroke-width="1.0" stroke-linejoin="round" stroke-linecap="butt" d="m405.8878 315.37143l-0.6665344 8.6649475l7.553894 5.543579" fill-rule="nonzero"></path><path fill="#000000" fill-opacity="0.0" d="m392.9398 324.1438l-0.66656494 8.6649475l7.5539246 5.543579" fill-rule="nonzero"></path><path stroke="#000000" stroke-width="1.0" stroke-linejoin="round" stroke-linecap="butt" d="m392.9398 324.1438l-0.66656494 8.6649475l7.5539246 5.543579" fill-rule="nonzero"></path><path fill="#000000" fill-opacity="0.0" d="m427.2331 297.58347l-0.6665344 8.664978l7.553894 5.5435486" fill-rule="nonzero"></path><path stroke="#000000" stroke-width="1.0" stroke-linejoin="round" stroke-linecap="butt" d="m427.2331 297.58347l-0.6665344 8.664978l7.553894 5.5435486" fill-rule="nonzero"></path><path fill="#000000" fill-opacity="0.0" d="m449.7683 299.8531l-0.6665344 8.6649475l7.553894 5.543579" fill-rule="nonzero"></path><path stroke="#000000" stroke-width="1.0" stroke-linejoin="round" stroke-linecap="butt" d="m449.7683 299.8531l-0.6665344 8.6649475l7.553894 5.543579" fill-rule="nonzero"></path><path fill="#000000" fill-opacity="0.0" d="m425.0827 334.75983l-0.6665344 8.664978l7.553894 5.5435486" fill-rule="nonzero"></path><path stroke="#000000" stroke-width="1.0" stroke-linejoin="round" stroke-linecap="butt" d="m425.0827 334.75983l-0.6665344 8.664978l7.553894 5.5435486" fill-rule="nonzero"></path><path fill="#000000" fill-opacity="0.0" d="m388.56113 355.4586l-0.6665344 8.6649475l7.553894 5.543579" fill-rule="nonzero"></path><path stroke="#000000" stroke-width="1.0" stroke-linejoin="round" stroke-linecap="butt" d="m388.56113 355.4586l-0.6665344 8.6649475l7.553894 5.543579" fill-rule="nonzero"></path><path fill="#000000" fill-opacity="0.0" d="m401.62833 361.3274l-0.66656494 8.6649475l7.553894 5.543579" fill-rule="nonzero"></path><path stroke="#000000" stroke-width="1.0" stroke-linejoin="round" stroke-linecap="butt" d="m401.62833 361.3274l-0.66656494 8.6649475l7.553894 5.543579" fill-rule="nonzero"></path><path fill="#000000" fill-opacity="0.0" d="m388.68033 370.09976l-0.66656494 8.664978l7.553894 5.5435486" fill-rule="nonzero"></path><path stroke="#000000" stroke-width="1.0" stroke-linejoin="round" stroke-linecap="butt" d="m388.68033 370.09976l-0.66656494 8.664978l7.553894 5.5435486" fill-rule="nonzero"></path><path fill="#000000" fill-opacity="0.0" d="m345.31476 353.39365l-0.6665344 8.664978l7.553894 5.5435486" fill-rule="nonzero"></path><path stroke="#000000" stroke-width="1.0" stroke-linejoin="round" stroke-linecap="butt" d="m345.31476 353.39365l-0.6665344 8.664978l7.553894 5.5435486" fill-rule="nonzero"></path><path fill="#000000" fill-opacity="0.0" d="m369.17957 387.66647l-0.6665344 8.6649475l7.553894 5.5435486" fill-rule="nonzero"></path><path stroke="#000000" stroke-width="1.0" stroke-linejoin="round" stroke-linecap="butt" d="m369.17957 387.66647l-0.6665344 8.6649475l7.553894 5.5435486" fill-rule="nonzero"></path><path fill="#000000" fill-opacity="0.0" d="m356.23157 396.43884l-0.6665344 8.664978l7.553894 5.5435486" fill-rule="nonzero"></path><path stroke="#000000" stroke-width="1.0" stroke-linejoin="round" stroke-linecap="butt" d="m356.23157 396.43884l-0.6665344 8.664978l7.553894 5.5435486" fill-rule="nonzero"></path><path fill="#000000" fill-opacity="0.0" d="m388.2553 392.4137l-0.6665344 8.664978l7.553894 5.5435486" fill-rule="nonzero"></path><path stroke="#000000" stroke-width="1.0" stroke-linejoin="round" stroke-linecap="butt" d="m388.2553 392.4137l-0.6665344 8.664978l7.553894 5.5435486" fill-rule="nonzero"></path><path fill="#000000" fill-opacity="0.0" d="m401.3225 398.28253l-0.66656494 8.6649475l7.553894 5.5435486" fill-rule="nonzero"></path><path stroke="#000000" stroke-width="1.0" stroke-linejoin="round" stroke-linecap="butt" d="m401.3225 398.28253l-0.66656494 8.6649475l7.553894 5.5435486" fill-rule="nonzero"></path><path fill="#000000" fill-opacity="0.0" d="m376.63693 433.18927l-0.66656494 8.6649475l7.553894 5.543579" fill-rule="nonzero"></path><path stroke="#000000" stroke-width="1.0" stroke-linejoin="round" stroke-linecap="butt" d="m376.63693 433.18927l-0.66656494 8.6649475l7.553894 5.543579" fill-rule="nonzero"></path><path fill="#000000" fill-opacity="0.0" d="m312.6513 410.14722l-0.6665344 8.664978l7.553894 5.5435486" fill-rule="nonzero"></path><path stroke="#000000" stroke-width="1.0" stroke-linejoin="round" stroke-linecap="butt" d="m312.6513 410.14722l-0.6665344 8.664978l7.553894 5.5435486" fill-rule="nonzero"></path><path fill="#000000" fill-opacity="0.0" d="m325.71854 416.01602l-0.6665344 8.664978l7.553894 5.5435486" fill-rule="nonzero"></path><path stroke="#000000" stroke-width="1.0" stroke-linejoin="round" stroke-linecap="butt" d="m325.71854 416.01602l-0.6665344 8.664978l7.553894 5.5435486" fill-rule="nonzero"></path><path fill="#000000" fill-opacity="0.0" d="m312.77054 424.7884l-0.66656494 8.6649475l7.5539246 5.543579" fill-rule="nonzero"></path><path stroke="#000000" stroke-width="1.0" stroke-linejoin="round" stroke-linecap="butt" d="m312.77054 424.7884l-0.66656494 8.6649475l7.5539246 5.543579" fill-rule="nonzero"></path><path fill="#ffffff" d="m619.1202 255.39049l0 0c-2.4004517 -6.314316 0.68774414 -13.336746 6.897644 -15.685043l0 0c2.9821167 -1.1277008 6.300049 -1.0046539 9.223816 0.34207153c2.9238281 1.3467102 5.2139893 3.8067932 6.3667603 6.839035l0 0c2.4004517 6.3143005 -0.6876831 13.336746 -6.897644 15.685043l0 0c-6.209961 2.348297 -13.190063 -0.8667908 -15.590576 -7.1811066z" fill-rule="nonzero"></path><path stroke="#000000" stroke-width="2.0" stroke-linejoin="round" stroke-linecap="butt" d="m619.1202 255.39049l0 0c-2.4004517 -6.314316 0.68774414 -13.336746 6.897644 -15.685043l0 0c2.9821167 -1.1277008 6.300049 -1.0046539 9.223816 0.34207153c2.9238281 1.3467102 5.2139893 3.8067932 6.3667603 6.839035l0 0c2.4004517 6.3143005 -0.6876831 13.336746 -6.897644 15.685043l0 0c-6.209961 2.348297 -13.190063 -0.8667908 -15.590576 -7.1811066z" fill-rule="nonzero"></path><path fill="#000000" d="m635.29236 250.73677l0 0c-0.39135742 -1.0175934 0.05987549 -2.1315918 1.0078735 -2.4881897l0 0c0.45526123 -0.17123413 0.96655273 -0.14134216 1.4213257 0.083114624c0.45483398 0.22444153 0.81591797 0.6250763 1.0039062 1.113739l0 0c0.39135742 1.0175934 -0.05987549 2.1315918 -1.0078735 2.4881897l0 0c-0.9480591 0.3565979 -2.0338135 -0.17926025 -2.425232 -1.1968536z" fill-rule="nonzero"></path><path stroke="#000000" stroke-width="2.0" stroke-linejoin="round" stroke-linecap="butt" d="m635.29236 250.73677l0 0c-0.39135742 -1.0175934 0.05987549 -2.1315918 1.0078735 -2.4881897l0 0c0.45526123 -0.17123413 0.96655273 -0.14134216 1.4213257 0.083114624c0.45483398 0.22444153 0.81591797 0.6250763 1.0039062 1.113739l0 0c0.39135742 1.0175934 -0.05987549 2.1315918 -1.0078735 2.4881897l0 0c-0.9480591 0.3565979 -2.0338135 -0.17926025 -2.425232 -1.1968536z" fill-rule="nonzero"></path><path fill="#ffffff" d="m603.15765 300.79028l0 0c-2.2225342 -5.8466187 -0.2526245 -12.02005 4.4000244 -13.788696l0 0c2.234253 -0.8493347 4.8009644 -0.54855347 7.135559 0.83618164c2.3345337 1.3847351 4.2456665 3.7399902 5.3129883 6.547638l0 0c2.2225952 5.846649 0.2526245 12.02005 -4.3999634 13.788727l0 0c-4.652588 1.7686462 -10.226013 -1.5372009 -12.448608 -7.38385z" fill-rule="nonzero"></path><path stroke="#000000" stroke-width="2.0" stroke-linejoin="round" stroke-linecap="butt" d="m603.15765 300.79028l0 0c-2.2225342 -5.8466187 -0.2526245 -12.02005 4.4000244 -13.788696l0 0c2.234253 -0.8493347 4.8009644 -0.54855347 7.135559 0.83618164c2.3345337 1.3847351 4.2456665 3.7399902 5.3129883 6.547638l0 0c2.2225952 5.846649 0.2526245 12.02005 -4.3999634 13.788727l0 0c-4.652588 1.7686462 -10.226013 -1.5372009 -12.448608 -7.38385z" fill-rule="nonzero"></path><path fill="#000000" fill-opacity="0.0" d="m639.51416 300.09183l-23.380127 25.696716" fill-rule="nonzero"></path><path stroke="#000000" stroke-width="2.0" stroke-linejoin="round" stroke-linecap="butt" d="m639.51416 300.09183l-23.380127 25.696716" fill-rule="nonzero"></path><path fill="#cc0000" d="m601.56165 314.1484l-7.169861 -29.008026l2.1922607 -23.561707l15.324097 -3.681549l9.308533 4.183258l8.294556 -1.86969l6.871643 -5.6127777l5.9154663 11.044113l-6.6655273 19.687622l5.300171 20.713501l10.694885 10.084045l11.787415 2.810791l-0.8829956 12.341553l-22.410522 13.236938l-23.134216 -1.067749z" fill-rule="nonzero"></path><path stroke="#990000" stroke-width="2.0" stroke-linejoin="round" stroke-linecap="butt" d="m601.56165 314.1484l-7.169861 -29.008026l2.1922607 -23.561707l15.324097 -3.681549l9.308533 4.183258l8.294556 -1.86969l6.871643 -5.6127777l5.9154663 11.044113l-6.6655273 19.687622l5.300171 20.713501l10.694885 10.084045l11.787415 2.810791l-0.8829956 12.341553l-22.410522 13.236938l-23.134216 -1.067749z" fill-rule="nonzero"></path><path fill="#000000" d="m609.2215 312.30664l-7.4362793 -26.332794l2.2770386 -15.445404l11.577881 -2.2574768l11.359924 1.6863098l7.8166504 -4.258423l-4.328369 17.942383l3.8016968 21.279541l10.47699 14.027863l9.684387 4.0403748l-7.5686035 7.164734l-20.428955 6.048767z" fill-rule="nonzero"></path><path stroke="#990000" stroke-width="2.0" stroke-linejoin="round" stroke-linecap="butt" d="m609.2215 312.30664l-7.4362793 -26.332794l2.2770386 -15.445404l11.577881 -2.2574768l11.359924 1.6863098l7.8166504 -4.258423l-4.328369 17.942383l3.8016968 21.279541l10.47699 14.027863l9.684387 4.0403748l-7.5686035 7.164734l-20.428955 6.048767z" fill-rule="nonzero"></path><path fill="#a64d79" d="m617.1404 319.5902l18.421448 6.7202454l-8.044312 -4.2337036l20.242981 4.740814l-18.875793 6.7489014z" fill-rule="nonzero"></path><path stroke="#741b47" stroke-width="2.0" stroke-linejoin="round" stroke-linecap="butt" d="m617.1404 319.5902l18.421448 6.7202454l-8.044312 -4.2337036l20.242981 4.740814l-18.875793 6.7489014z" fill-rule="nonzero"></path><path fill="#ffffff" d="m666.20074 240.21564l-2.5753784 -11.040756l-4.9500732 -8.744461l12.255615 7.619583z" fill-rule="nonzero"></path><path fill="#000000" fill-opacity="0.0" d="m562.71814 284.2482l-5.451477 27.314178l4.611145 26.45755l34.227356 13.218842" fill-rule="nonzero"></path><path stroke="#000000" stroke-width="2.0" stroke-linejoin="round" stroke-linecap="butt" d="m562.71814 284.2482l-5.451477 27.314178l4.611145 26.45755l34.227356 13.218842" fill-rule="nonzero"></path><path fill="#000000" fill-opacity="0.0" d="m424.27722 351.26385l18.929138 -17.039368" fill-rule="nonzero"></path><path stroke="#ff0000" stroke-width="4.0" stroke-linejoin="round" stroke-linecap="butt" d="m424.27722 351.26385l18.929138 -17.039368" fill-rule="nonzero"></path><path fill="#000000" fill-opacity="0.0" d="m424.37167 347.99448l18.929138 -17.039368" fill-rule="nonzero"></path><path stroke="#ff0000" stroke-width="4.0" stroke-linejoin="round" stroke-linecap="butt" d="m424.37167 347.99448l18.929138 -17.039368" fill-rule="nonzero"></path><path fill="#000000" fill-opacity="0.0" d="m421.5333 347.04834l18.929138 -17.039368" fill-rule="nonzero"></path><path stroke="#ff0000" stroke-width="4.0" stroke-linejoin="round" stroke-linecap="butt" d="m421.5333 347.04834l18.929138 -17.039368" fill-rule="nonzero"></path><path fill="#000000" fill-opacity="0.0" d="m426.60046 357.37158l18.929138 -17.039368" fill-rule="nonzero"></path><path stroke="#ff0000" stroke-width="4.0" stroke-linejoin="round" stroke-linecap="butt" d="m426.60046 357.37158l18.929138 -17.039368" fill-rule="nonzero"></path><path fill="#000000" fill-opacity="0.0" d="m423.85654 353.1561l18.929138 -17.039368" fill-rule="nonzero"></path><path stroke="#ff0000" stroke-width="4.0" stroke-linejoin="round" stroke-linecap="butt" d="m423.85654 353.1561l18.929138 -17.039368" fill-rule="nonzero"></path><path fill="#ffffff" d="m577.8958 268.2582l0 0c-2.4004517 -6.314331 0.68774414 -13.336746 6.897644 -15.685043l0 0c2.9821167 -1.1277008 6.300049 -1.0046539 9.223816 0.34207153c2.9238281 1.3467102 5.2139893 3.806778 6.3667603 6.839035l0 0c2.4004517 6.3143005 -0.6876831 13.336731 -6.897644 15.685028l0 0c-6.209961 2.348297 -13.190063 -0.8667908 -15.590576 -7.1810913z" fill-rule="nonzero"></path><path stroke="#000000" stroke-width="2.0" stroke-linejoin="round" stroke-linecap="butt" d="m577.8958 268.2582l0 0c-2.4004517 -6.314331 0.68774414 -13.336746 6.897644 -15.685043l0 0c2.9821167 -1.1277008 6.300049 -1.0046539 9.223816 0.34207153c2.9238281 1.3467102 5.2139893 3.806778 6.3667603 6.839035l0 0c2.4004517 6.3143005 -0.6876831 13.336731 -6.897644 15.685028l0 0c-6.209961 2.348297 -13.190063 -0.8667908 -15.590576 -7.1810913z" fill-rule="nonzero"></path><path fill="#000000" d="m582.0666 262.27994l0 0c-0.39141846 -1.0176086 0.059814453 -2.1315918 1.0078735 -2.4881897l0 0c0.4552002 -0.17123413 0.9664917 -0.14135742 1.4213257 0.083099365c0.45477295 0.22445679 0.81591797 0.62509155 1.0038452 1.113739l0 0c0.39135742 1.0176086 -0.05987549 2.1316223 -1.0078735 2.4881897l0 0c-0.94799805 0.3565979 -2.0338135 -0.17922974 -2.425171 -1.1968384z" fill-rule="nonzero"></path><path stroke="#000000" stroke-width="2.0" stroke-linejoin="round" stroke-linecap="butt" d="m582.0666 262.27994l0 0c-0.39141846 -1.0176086 0.059814453 -2.1315918 1.0078735 -2.4881897l0 0c0.4552002 -0.17123413 0.9664917 -0.14135742 1.4213257 0.083099365c0.45477295 0.22445679 0.81591797 0.62509155 1.0038452 1.113739l0 0c0.39135742 1.0176086 -0.05987549 2.1316223 -1.0078735 2.4881897l0 0c-0.94799805 0.3565979 -2.0338135 -0.17922974 -2.425171 -1.1968384z" fill-rule="nonzero"></path><path fill="#000000" fill-opacity="0.0" d="m427.51483 352.25174l18.929108 -17.039368" fill-rule="nonzero"></path><path stroke="#ff0000" stroke-width="4.0" stroke-linejoin="round" stroke-linecap="butt" d="m427.51483 352.25174l18.929108 -17.039368" fill-rule="nonzero"></path><path fill="#000000" fill-opacity="0.0" d="m424.67645 351.30563l18.929138 -17.039368" fill-rule="nonzero"></path><path stroke="#ff0000" stroke-width="4.0" stroke-linejoin="round" stroke-linecap="butt" d="m424.67645 351.30563l18.929138 -17.039368" fill-rule="nonzero"></path><path fill="#000000" fill-opacity="0.0" d="m429.74362 361.62888l18.929138 -17.039368" fill-rule="nonzero"></path><path stroke="#ff0000" stroke-width="4.0" stroke-linejoin="round" stroke-linecap="butt" d="m429.74362 361.62888l18.929138 -17.039368" fill-rule="nonzero"></path><path fill="#000000" fill-opacity="0.0" d="m426.9997 357.41336l18.929138 -17.039368" fill-rule="nonzero"></path><path stroke="#ff0000" stroke-width="4.0" stroke-linejoin="round" stroke-linecap="butt" d="m426.9997 357.41336l18.929138 -17.039368" fill-rule="nonzero"></path><path fill="#000000" fill-opacity="0.0" d="m416.55963 334.79077l18.929138 -17.039368" fill-rule="nonzero"></path><path stroke="#ff0000" stroke-width="4.0" stroke-linejoin="round" stroke-linecap="butt" d="m416.55963 334.79077l18.929138 -17.039368" fill-rule="nonzero"></path><path fill="#000000" fill-opacity="0.0" d="m413.72125 333.84467l18.929138 -17.039368" fill-rule="nonzero"></path><path stroke="#ff0000" stroke-width="4.0" stroke-linejoin="round" stroke-linecap="butt" d="m413.72125 333.84467l18.929138 -17.039368" fill-rule="nonzero"></path><path fill="#000000" fill-opacity="0.0" d="m418.78845 344.1679l18.929108 -17.039368" fill-rule="nonzero"></path><path stroke="#ff0000" stroke-width="4.0" stroke-linejoin="round" stroke-linecap="butt" d="m418.78845 344.1679l18.929108 -17.039368" fill-rule="nonzero"></path><path fill="#000000" fill-opacity="0.0" d="m416.0445 339.9524l18.929138 -17.039368" fill-rule="nonzero"></path><path stroke="#ff0000" stroke-width="4.0" stroke-linejoin="round" stroke-linecap="butt" d="m416.0445 339.9524l18.929138 -17.039368" fill-rule="nonzero"></path><path fill="#000000" fill-opacity="0.0" d="m409.6905 323.7488l18.929138 -17.039368" fill-rule="nonzero"></path><path stroke="#ff0000" stroke-width="4.0" stroke-linejoin="round" stroke-linecap="butt" d="m409.6905 323.7488l18.929138 -17.039368" fill-rule="nonzero"></path><path fill="#000000" fill-opacity="0.0" d="m406.85214 322.8027l18.929108 -17.039368" fill-rule="nonzero"></path><path stroke="#ff0000" stroke-width="4.0" stroke-linejoin="round" stroke-linecap="butt" d="m406.85214 322.8027l18.929108 -17.039368" fill-rule="nonzero"></path><path fill="#000000" fill-opacity="0.0" d="m411.9193 333.12595l18.929138 -17.039368" fill-rule="nonzero"></path><path stroke="#ff0000" stroke-width="4.0" stroke-linejoin="round" stroke-linecap="butt" d="m411.9193 333.12595l18.929138 -17.039368" fill-rule="nonzero"></path><path fill="#000000" fill-opacity="0.0" d="m409.17538 328.91043l18.929108 -17.039368" fill-rule="nonzero"></path><path stroke="#ff0000" stroke-width="4.0" stroke-linejoin="round" stroke-linecap="butt" d="m409.17538 328.91043l18.929108 -17.039368" fill-rule="nonzero"></path><path fill="#000000" fill-opacity="0.0" d="m397.373 269.2134l83.3071 176.78741" fill-rule="nonzero"></path><path stroke="#efefef" stroke-width="16.0" stroke-linejoin="round" stroke-linecap="butt" d="m397.373 269.2134l83.3071 176.78741" fill-rule="nonzero"></path><path fill="#000000" fill-opacity="0.0" d="m401.84985 412.66232l22.236176 12.417816" fill-rule="nonzero"></path><path stroke="#ff0000" stroke-width="4.0" stroke-linejoin="round" stroke-linecap="butt" d="m401.84985 412.66232l22.236176 12.417816" fill-rule="nonzero"></path><path fill="#000000" fill-opacity="0.0" d="m401.8294 409.6705l22.236176 12.417816" fill-rule="nonzero"></path><path stroke="#ff0000" stroke-width="4.0" stroke-linejoin="round" stroke-linecap="butt" d="m401.8294 409.6705l22.236176 12.417816" fill-rule="nonzero"></path><path fill="#000000" fill-opacity="0.0" d="m393.69363 417.79788l22.236176 12.417816" fill-rule="nonzero"></path><path stroke="#ff0000" stroke-width="4.0" stroke-linejoin="round" stroke-linecap="butt" d="m393.69363 417.79788l22.236176 12.417816" fill-rule="nonzero"></path><path fill="#000000" fill-opacity="0.0" d="m396.79813 413.84042l22.236206 12.417816" fill-rule="nonzero"></path><path stroke="#ff0000" stroke-width="4.0" stroke-linejoin="round" stroke-linecap="butt" d="m396.79813 413.84042l22.236206 12.417816" fill-rule="nonzero"></path><path fill="#000000" fill-opacity="0.0" d="m405.63434 396.66232l22.236176 12.417816" fill-rule="nonzero"></path><path stroke="#ff0000" stroke-width="4.0" stroke-linejoin="round" stroke-linecap="butt" d="m405.63434 396.66232l22.236176 12.417816" fill-rule="nonzero"></path><path fill="#000000" fill-opacity="0.0" d="m405.6139 393.6705l22.236176 12.417816" fill-rule="nonzero"></path><path stroke="#ff0000" stroke-width="4.0" stroke-linejoin="round" stroke-linecap="butt" d="m405.6139 393.6705l22.236176 12.417816" fill-rule="nonzero"></path><path fill="#000000" fill-opacity="0.0" d="m397.47812 401.79788l22.236176 12.417816" fill-rule="nonzero"></path><path stroke="#ff0000" stroke-width="4.0" stroke-linejoin="round" stroke-linecap="butt" d="m397.47812 401.79788l22.236176 12.417816" fill-rule="nonzero"></path><path fill="#000000" fill-opacity="0.0" d="m400.5826 397.84042l22.236206 12.417816" fill-rule="nonzero"></path><path stroke="#ff0000" stroke-width="4.0" stroke-linejoin="round" stroke-linecap="butt" d="m400.5826 397.84042l22.236206 12.417816" fill-rule="nonzero"></path><path fill="#000000" fill-opacity="0.0" d="m442.7848 259.23883l-46.362213 217.60632" fill-rule="nonzero"></path><path stroke="#efefef" stroke-width="16.0" stroke-linejoin="round" stroke-linecap="butt" d="m442.7848 259.23883l-46.362213 217.60632" fill-rule="nonzero"></path><path fill="#434343" d="m547.47174 376.05344l75.87988 -6.924103l4.1881104 45.880463l-75.87988 6.924103z" fill-rule="nonzero"></path><path stroke="#434343" stroke-width="2.0" stroke-linejoin="round" stroke-linecap="butt" d="m547.47174 376.05344l75.87988 -6.924103l4.1881104 45.880463l-75.87988 6.924103z" fill-rule="nonzero"></path><path fill="#000000" d="m559.13104 383.3818l48.394104 -4.415985l1.6760254 18.3609l-48.394104 4.4160156z" fill-rule="nonzero"></path><path stroke="#000000" stroke-width="2.0" stroke-linejoin="round" stroke-linecap="butt" d="m559.13104 383.3818l48.394104 -4.415985l1.6760254 18.3609l-48.394104 4.4160156z" fill-rule="nonzero"></path><path fill="#000000" fill-opacity="0.0" d="m904.9369 357.59073l-222.45612 20.299316" fill-rule="nonzero"></path><path stroke="#434343" stroke-width="8.0" stroke-linejoin="round" stroke-linecap="butt" d="m904.9369 357.59073l-222.45612 20.299316" fill-rule="nonzero"></path><path fill="#000000" fill-opacity="0.0" d="m872.1676 374.39288l-188.43646 17.194977" fill-rule="nonzero"></path><path stroke="#434343" stroke-width="4.0" stroke-linejoin="round" stroke-linecap="butt" d="m872.1676 374.39288l-188.43646 17.194977" fill-rule="nonzero"></path><path fill="#434343" d="m869.13 355.59055l-1.914917 -20.977661l26.78711 18.708038z" fill-rule="nonzero"></path><path stroke="#434343" stroke-width="2.0" stroke-linejoin="round" stroke-linecap="butt" d="m869.13 355.59055l-1.914917 -20.977661l26.78711 18.708038z" fill-rule="nonzero"></path><path fill="#000000" d="m838.8719 356.35678l18.338318 -1.6733704l2.2732544 24.902771l-18.338379 1.6734009z" fill-rule="nonzero"></path><path stroke="#434343" stroke-width="2.0" stroke-linejoin="round" stroke-linecap="butt" d="m838.8719 356.35678l18.338318 -1.6733704l2.2732544 24.902771l-18.338379 1.6734009z" fill-rule="nonzero"></path><path fill="#000000" d="m805.6799 359.3856l18.338379 -1.6734009l2.2731934 24.902802l-18.338379 1.6734009z" fill-rule="nonzero"></path><path stroke="#434343" stroke-width="2.0" stroke-linejoin="round" stroke-linecap="butt" d="m805.6799 359.3856l18.338379 -1.6734009l2.2731934 24.902802l-18.338379 1.6734009z" fill-rule="nonzero"></path><path fill="#434343" d="m632.2959 427.34857l15.7247925 -1.434906l4.1881104 45.880463l-15.7247925 1.434906z" fill-rule="nonzero"></path><path stroke="#434343" stroke-width="2.0" stroke-linejoin="round" stroke-linecap="butt" d="m632.2959 427.34857l15.7247925 -1.434906l4.1881104 45.880463l-15.7247925 1.434906z" fill-rule="nonzero"></path><path fill="#434343" d="m631.77356 471.59192l24.915771 -2.27359l1.1983032 13.127411l-24.915771 2.27359z" fill-rule="nonzero"></path><path stroke="#434343" stroke-width="2.0" stroke-linejoin="round" stroke-linecap="butt" d="m631.77356 471.59192l24.915771 -2.27359l1.1983032 13.127411l-24.915771 2.27359z" fill-rule="nonzero"></path><path fill="#000000" fill-opacity="0.0" d="m634.38995 450.2888l15.7247925 -1.434906" fill-rule="nonzero"></path><path stroke="#000000" stroke-width="2.0" stroke-linejoin="round" stroke-linecap="butt" d="m634.38995 450.2888l15.7247925 -1.434906" fill-rule="nonzero"></path><path fill="#000000" fill-opacity="0.0" d="m633.3787 439.21118l15.7248535 -1.4348755" fill-rule="nonzero"></path><path stroke="#000000" stroke-width="2.0" stroke-linejoin="round" stroke-linecap="butt" d="m633.3787 439.21118l15.7248535 -1.4348755" fill-rule="nonzero"></path><path fill="#000000" fill-opacity="0.0" d="m635.4011 461.3664l15.7248535 -1.434906" fill-rule="nonzero"></path><path stroke="#000000" stroke-width="2.0" stroke-linejoin="round" stroke-linecap="butt" d="m635.4011 461.3664l15.7248535 -1.434906" fill-rule="nonzero"></path><path fill="#000000" fill-opacity="0.0" d="m636.0536 468.5137l15.7247925 -1.434906" fill-rule="nonzero"></path><path stroke="#000000" stroke-width="2.0" stroke-linejoin="round" stroke-linecap="butt" d="m636.0536 468.5137l15.7247925 -1.434906" fill-rule="nonzero"></path><path fill="#000000" fill-opacity="0.0" d="m634.8683 455.52917l15.7248535 -1.434906" fill-rule="nonzero"></path><path stroke="#000000" stroke-width="2.0" stroke-linejoin="round" stroke-linecap="butt" d="m634.8683 455.52917l15.7248535 -1.434906" fill-rule="nonzero"></path><path fill="#000000" fill-opacity="0.0" d="m633.91156 445.0484l15.7248535 -1.434906" fill-rule="nonzero"></path><path stroke="#000000" stroke-width="2.0" stroke-linejoin="round" stroke-linecap="butt" d="m633.91156 445.0484l15.7248535 -1.434906" fill-rule="nonzero"></path><path fill="#000000" fill-opacity="0.0" d="m632.8459 433.374l15.7248535 -1.434906" fill-rule="nonzero"></path><path stroke="#000000" stroke-width="2.0" stroke-linejoin="round" stroke-linecap="butt" d="m632.8459 433.374l15.7248535 -1.434906" fill-rule="nonzero"></path><path fill="#000000" fill-opacity="0.0" d="m632.36755 428.1336l15.7247925 -1.434906" fill-rule="nonzero"></path><path stroke="#000000" stroke-width="2.0" stroke-linejoin="round" stroke-linecap="butt" d="m632.36755 428.1336l15.7247925 -1.434906" fill-rule="nonzero"></path><path fill="#000000" fill-opacity="0.0" d="m682.51434 421.48175l99.04645 116.469055" fill-rule="nonzero"></path><path stroke="#434343" stroke-width="8.0" stroke-linejoin="round" stroke-linecap="butt" d="m682.51434 421.48175l99.04645 116.469055" fill-rule="nonzero"></path><path fill="#000000" fill-opacity="0.0" d="m682.51434 421.48175l-22.777039 126.2663" fill-rule="nonzero"></path><path stroke="#434343" stroke-width="8.0" stroke-linejoin="round" stroke-linecap="butt" d="m682.51434 421.48175l-22.777039 126.2663" fill-rule="nonzero"></path><path fill="#434343" d="m615.72375 369.3852l65.42566 -5.970154l5.3824463 58.964233l-65.42566 5.970154z" fill-rule="nonzero"></path><path stroke="#434343" stroke-width="2.0" stroke-linejoin="round" stroke-linecap="butt" d="m615.72375 369.3852l65.42566 -5.970154l5.3824463 58.964233l-65.42566 5.970154z" fill-rule="nonzero"></path><path fill="#000000" fill-opacity="0.0" d="m648.4366 366.40012l5.3824463 58.964233" fill-rule="nonzero"></path><path stroke="#000000" stroke-width="2.0" stroke-linejoin="round" stroke-linecap="butt" d="m648.4366 366.40012l5.3824463 58.964233" fill-rule="nonzero"></path><path fill="#000000" fill-opacity="0.0" d="m681.62866 363.3713l5.3824463 58.964233" fill-rule="nonzero"></path><path stroke="#000000" stroke-width="2.0" stroke-linejoin="round" stroke-linecap="butt" d="m681.62866 363.3713l5.3824463 58.964233" fill-rule="nonzero"></path><path fill="#000000" fill-opacity="0.0" d="m670.56464 364.38092l5.3824463 58.964233" fill-rule="nonzero"></path><path stroke="#000000" stroke-width="2.0" stroke-linejoin="round" stroke-linecap="butt" d="m670.56464 364.38092l5.3824463 58.964233" fill-rule="nonzero"></path><path fill="#000000" fill-opacity="0.0" d="m659.5007 365.3905l5.3824463 58.964233" fill-rule="nonzero"></path><path stroke="#000000" stroke-width="2.0" stroke-linejoin="round" stroke-linecap="butt" d="m659.5007 365.3905l5.3824463 58.964233" fill-rule="nonzero"></path><path fill="#000000" fill-opacity="0.0" d="m637.3726 367.40973l5.3824463 58.964203" fill-rule="nonzero"></path><path stroke="#000000" stroke-width="2.0" stroke-linejoin="round" stroke-linecap="butt" d="m637.3726 367.40973l5.3824463 58.964203" fill-rule="nonzero"></path><path fill="#000000" fill-opacity="0.0" d="m626.3086 368.4193l5.3824463 58.964233" fill-rule="nonzero"></path><path stroke="#000000" stroke-width="2.0" stroke-linejoin="round" stroke-linecap="butt" d="m626.3086 368.4193l5.3824463 58.964233" fill-rule="nonzero"></path><path fill="#000000" fill-opacity="0.0" d="m615.24457 369.42892l5.3824463 58.964233" fill-rule="nonzero"></path><path stroke="#000000" stroke-width="2.0" stroke-linejoin="round" stroke-linecap="butt" d="m615.24457 369.42892l5.3824463 58.964233" fill-rule="nonzero"></path><path fill="#000000" fill-opacity="0.0" d="m681.1659 363.5946l-65.42572 5.970154" fill-rule="nonzero"></path><path stroke="#000000" stroke-width="2.0" stroke-linejoin="round" stroke-linecap="butt" d="m681.1659 363.5946l-65.42572 5.970154" fill-rule="nonzero"></path><path fill="#000000" fill-opacity="0.0" d="m684.3191 398.13754l-65.42572 5.970154" fill-rule="nonzero"></path><path stroke="#000000" stroke-width="2.0" stroke-linejoin="round" stroke-linecap="butt" d="m684.3191 398.13754l-65.42572 5.970154" fill-rule="nonzero"></path><path fill="#000000" d="m615.0909 369.7771l66.77606 -6.0933533l2.9898071 32.75305l-66.77606 6.093384z" fill-rule="nonzero"></path><path stroke="#000000" stroke-width="2.0" stroke-linejoin="round" stroke-linecap="butt" d="m615.0909 369.7771l66.77606 -6.0933533l2.9898071 32.75305l-66.77606 6.093384z" fill-rule="nonzero"></path><path fill="#000000" fill-opacity="0.0" d="m686.46106 421.6028l-65.42566 5.970154" fill-rule="nonzero"></path><path stroke="#000000" stroke-width="2.0" stroke-linejoin="round" stroke-linecap="butt" d="m686.46106 421.6028l-65.42566 5.970154" fill-rule="nonzero"></path><path fill="#434343" d="m433.2505 525.4171l35.047424 -80.8595l22.58908 9.7682495l-35.047424 80.8595z" fill-rule="nonzero"></path><path stroke="#434343" stroke-width="2.0" stroke-linejoin="round" stroke-linecap="butt" d="m433.2505 525.4171l35.047424 -80.8595l22.58908 9.7682495l-35.047424 80.8595z" fill-rule="nonzero"></path><path fill="#434343" d="m519.73096 436.31784l0 0c10.2578125 14.316315 7.196533 34.09729 -6.8375854 44.182037c-14.034119 10.084747 -33.726593 6.654358 -43.984436 -7.6619873l0 0c11.348206 10.266937 28.118652 11.330566 40.32715 2.5576782c12.208496 -8.772888 16.572937 -25.023743 10.494873 -39.07773z" fill-rule="nonzero"></path><path stroke="#434343" stroke-width="2.0" stroke-linejoin="round" stroke-linecap="butt" d="m519.73096 436.31784l0 0c10.2578125 14.316315 7.196533 34.09729 -6.8375854 44.182037c-14.034119 10.084747 -33.726593 6.654358 -43.984436 -7.6619873l0 0c11.348206 10.266937 28.118652 11.330566 40.32715 2.5576782c12.208496 -8.772888 16.572937 -25.023743 10.494873 -39.07773z" fill-rule="nonzero"></path><path fill="#b45f06" d="m576.9374 506.83368l25.618774 -2.337738l0.88848877 9.733185l-25.618774 2.3377075z" fill-rule="nonzero"></path><path stroke="#b45f06" stroke-width="2.0" stroke-linejoin="round" stroke-linecap="butt" d="m576.9374 506.83368l25.618774 -2.337738l0.88848877 9.733185l-25.618774 2.3377075z" fill-rule="nonzero"></path><path fill="#b45f06" d="m599.90344 504.70938l0 0c10.507324 -0.9621277 19.225464 0.45147705 19.472473 3.1573486c0.24700928 2.705902 -8.070679 5.679413 -18.578003 6.641571l0 0c2.8773804 -3.5056458 2.5698853 -6.873993 -0.8944702 -9.79892z" fill-rule="nonzero"></path><path stroke="#b45f06" stroke-width="2.0" stroke-linejoin="round" stroke-linecap="butt" d="m599.90344 504.70938l0 0c10.507324 -0.9621277 19.225464 0.45147705 19.472473 3.1573486c0.24700928 2.705902 -8.070679 5.679413 -18.578003 6.641571l0 0c2.8773804 -3.5056458 2.5698853 -6.873993 -0.8944702 -9.79892z" fill-rule="nonzero"></path><path fill="#666666" d="m580.2398 506.49603l19.21051 -1.7529602l0.8999634 9.858612l-19.21051 1.7529907z" fill-rule="nonzero"></path><path stroke="#666666" stroke-width="2.0" stroke-linejoin="round" stroke-linecap="butt" d="m580.2398 506.49603l19.21051 -1.7529602l0.8999634 9.858612l-19.21051 1.7529907z" fill-rule="nonzero"></path><path fill="#b45f06" d="m587.8268 510.98883l0 0c-0.04071045 -0.44610596 1.1781006 -0.988678 3.3883057 -1.5084229c2.210205 -0.5197449 5.230774 -0.97406006 8.397217 -1.2630005l0 0c6.593811 -0.6016846 12.0078125 -0.33639526 12.092651 0.5924988l0 0c0.08477783 0.92892456 -5.1917725 2.1697083 -11.7855835 2.7713928l0 0c-6.59375 0.6016846 -12.0078125 0.33642578 -12.09259 -0.59246826z" fill-rule="nonzero"></path><path stroke="#b45f06" stroke-width="2.0" stroke-linejoin="round" stroke-linecap="butt" d="m587.8268 510.98883l0 0c-0.04071045 -0.44610596 1.1781006 -0.988678 3.3883057 -1.5084229c2.210205 -0.5197449 5.230774 -0.97406006 8.397217 -1.2630005l0 0c6.593811 -0.6016846 12.0078125 -0.33639526 12.092651 0.5924988l0 0c0.08477783 0.92892456 -5.1917725 2.1697083 -11.7855835 2.7713928l0 0c-6.59375 0.6016846 -12.0078125 0.33642578 -12.09259 -0.59246826z" fill-rule="nonzero"></path><path fill="#b45f06" d="m578.2874 521.6232l25.618774 -2.3377075l0.88848877 9.733154l-25.618774 2.3377075z" fill-rule="nonzero"></path><path stroke="#b45f06" stroke-width="2.0" stroke-linejoin="round" stroke-linecap="butt" d="m578.2874 521.6232l25.618774 -2.3377075l0.88848877 9.733154l-25.618774 2.3377075z" fill-rule="nonzero"></path><path fill="#b45f06" d="m601.2535 519.49896l0 0c10.507324 -0.9621582 19.225464 0.45147705 19.472473 3.1573486c0.24700928 2.7058716 -8.070679 5.6793823 -18.578003 6.6415405l0 0c2.8773804 -3.5056152 2.5698853 -6.8739624 -0.8944702 -9.798889z" fill-rule="nonzero"></path><path stroke="#b45f06" stroke-width="2.0" stroke-linejoin="round" stroke-linecap="butt" d="m601.2535 519.49896l0 0c10.507324 -0.9621582 19.225464 0.45147705 19.472473 3.1573486c0.24700928 2.7058716 -8.070679 5.6793823 -18.578003 6.6415405l0 0c2.8773804 -3.5056152 2.5698853 -6.8739624 -0.8944702 -9.798889z" fill-rule="nonzero"></path><path fill="#666666" d="m581.58984 521.2856l19.21051 -1.7529907l0.8999634 9.858643l-19.21051 1.7529907z" fill-rule="nonzero"></path><path stroke="#666666" stroke-width="2.0" stroke-linejoin="round" stroke-linecap="butt" d="m581.58984 521.2856l19.21051 -1.7529907l0.8999634 9.858643l-19.21051 1.7529907z" fill-rule="nonzero"></path><path fill="#b45f06" d="m589.1768 525.7784l0 0c-0.04071045 -0.44610596 1.1781006 -0.98864746 3.3883057 -1.5084229c2.210205 -0.51971436 5.230774 -0.973999 8.397217 -1.2630005l0 0c6.593811 -0.6016846 12.0078125 -0.33636475 12.092651 0.5925293l0 0c0.08477783 0.92889404 -5.1917725 2.1696777 -11.7855835 2.7713623l0 0c-6.59375 0.6016846 -12.0078125 0.33642578 -12.09259 -0.59246826z" fill-rule="nonzero"></path><path stroke="#b45f06" stroke-width="2.0" stroke-linejoin="round" stroke-linecap="butt" d="m589.1768 525.7784l0 0c-0.04071045 -0.44610596 1.1781006 -0.98864746 3.3883057 -1.5084229c2.210205 -0.51971436 5.230774 -0.973999 8.397217 -1.2630005l0 0c6.593811 -0.6016846 12.0078125 -0.33636475 12.092651 0.5925293l0 0c0.08477783 0.92889404 -5.1917725 2.1696777 -11.7855835 2.7713623l0 0c-6.59375 0.6016846 -12.0078125 0.33642578 -12.09259 -0.59246826z" fill-rule="nonzero"></path><path fill="#666666" d="m581.1285 516.44165l19.423645 -1.7723999l0.44232178 4.845642l-19.423645 1.7724609z" fill-rule="nonzero"></path><path stroke="#666666" stroke-width="2.0" stroke-linejoin="round" stroke-linecap="butt" d="m581.1285 516.44165l19.423645 -1.7723999l0.44232178 4.845642l-19.423645 1.7724609z" fill-rule="nonzero"></path><path fill="#666666" d="m582.4785 531.23126l19.423645 -1.7724609l0.44232178 4.845703l-19.423645 1.7723999z" fill-rule="nonzero"></path><path stroke="#666666" stroke-width="2.0" stroke-linejoin="round" stroke-linecap="butt" d="m582.4785 531.23126l19.423645 -1.7724609l0.44232178 4.845703l-19.423645 1.7723999z" fill-rule="nonzero"></path><path fill="#b45f06" d="m579.63745 536.4128l25.618774 -2.3377075l0.88848877 9.733154l-25.618774 2.3377075z" fill-rule="nonzero"></path><path stroke="#b45f06" stroke-width="2.0" stroke-linejoin="round" stroke-linecap="butt" d="m579.63745 536.4128l25.618774 -2.3377075l0.88848877 9.733154l-25.618774 2.3377075z" fill-rule="nonzero"></path><path fill="#b45f06" d="m602.6035 534.2885l0 0c10.507324 -0.96209717 19.225464 0.45147705 19.472473 3.1573486c0.24700928 2.7058716 -8.070679 5.6793823 -18.578003 6.6415405l0 0c2.8773804 -3.5056152 2.5698853 -6.8739624 -0.8944702 -9.798889z" fill-rule="nonzero"></path><path stroke="#b45f06" stroke-width="2.0" stroke-linejoin="round" stroke-linecap="butt" d="m602.6035 534.2885l0 0c10.507324 -0.96209717 19.225464 0.45147705 19.472473 3.1573486c0.24700928 2.7058716 -8.070679 5.6793823 -18.578003 6.6415405l0 0c2.8773804 -3.5056152 2.5698853 -6.8739624 -0.8944702 -9.798889z" fill-rule="nonzero"></path><path fill="#666666" d="m582.9399 536.07513l19.21051 -1.7529297l0.8999634 9.858582l-19.21051 1.7529907z" fill-rule="nonzero"></path><path stroke="#666666" stroke-width="2.0" stroke-linejoin="round" stroke-linecap="butt" d="m582.9399 536.07513l19.21051 -1.7529297l0.8999634 9.858582l-19.21051 1.7529907z" fill-rule="nonzero"></path><path fill="#b45f06" d="m590.52686 540.56793l0 0c-0.04071045 -0.44604492 1.1781006 -0.98864746 3.3883057 -1.5084229c2.210205 -0.51971436 5.230774 -0.973999 8.397217 -1.2629395l0 0c6.593811 -0.6016846 12.007874 -0.33642578 12.092651 0.59246826l0 0c0.08477783 0.92889404 -5.1917725 2.1696777 -11.7855835 2.7714233l0 0c-6.59375 0.6016846 -12.0078125 0.33636475 -12.09259 -0.5925293z" fill-rule="nonzero"></path><path stroke="#b45f06" stroke-width="2.0" stroke-linejoin="round" stroke-linecap="butt" d="m590.52686 540.56793l0 0c-0.04071045 -0.44604492 1.1781006 -0.98864746 3.3883057 -1.5084229c2.210205 -0.51971436 5.230774 -0.973999 8.397217 -1.2629395l0 0c6.593811 -0.6016846 12.007874 -0.33642578 12.092651 0.59246826l0 0c0.08477783 0.92889404 -5.1917725 2.1696777 -11.7855835 2.7714233l0 0c-6.59375 0.6016846 -12.0078125 0.33636475 -12.09259 -0.5925293z" fill-rule="nonzero"></path><path fill="#b45f06" d="m580.9875 551.2024l25.618774 -2.3377686l0.88848877 9.733154l-25.618774 2.3377686z" fill-rule="nonzero"></path><path stroke="#b45f06" stroke-width="2.0" stroke-linejoin="round" stroke-linecap="butt" d="m580.9875 551.2024l25.618774 -2.3377686l0.88848877 9.733154l-25.618774 2.3377686z" fill-rule="nonzero"></path><path fill="#b45f06" d="m603.95355 549.07806l0 0c10.507324 -0.96209717 19.225464 0.45147705 19.472473 3.1573486c0.24700928 2.7058716 -8.070679 5.6793823 -18.578003 6.6415405l0 0c2.8773804 -3.5056152 2.5698853 -6.8739624 -0.8944702 -9.798889z" fill-rule="nonzero"></path><path stroke="#b45f06" stroke-width="2.0" stroke-linejoin="round" stroke-linecap="butt" d="m603.95355 549.07806l0 0c10.507324 -0.96209717 19.225464 0.45147705 19.472473 3.1573486c0.24700928 2.7058716 -8.070679 5.6793823 -18.578003 6.6415405l0 0c2.8773804 -3.5056152 2.5698853 -6.8739624 -0.8944702 -9.798889z" fill-rule="nonzero"></path><path fill="#666666" d="m584.2899 550.86475l19.21051 -1.7529907l0.8999634 9.858643l-19.21051 1.7529297z" fill-rule="nonzero"></path><path stroke="#666666" stroke-width="2.0" stroke-linejoin="round" stroke-linecap="butt" d="m584.2899 550.86475l19.21051 -1.7529907l0.8999634 9.858643l-19.21051 1.7529297z" fill-rule="nonzero"></path><path fill="#b45f06" d="m591.8769 555.3575l0 0c-0.04071045 -0.44604492 1.1781006 -0.98864746 3.3883057 -1.5083618c2.210205 -0.5197754 5.230774 -0.97406006 8.397217 -1.2630005l0 0c6.593811 -0.6016846 12.007874 -0.33642578 12.092651 0.59246826l0 0c0.08477783 0.9289551 -5.1917725 2.1697388 -11.7855835 2.7714233l0 0c-6.59375 0.6016846 -12.0078125 0.33642578 -12.09259 -0.5925293z" fill-rule="nonzero"></path><path stroke="#b45f06" stroke-width="2.0" stroke-linejoin="round" stroke-linecap="butt" d="m591.8769 555.3575l0 0c-0.04071045 -0.44604492 1.1781006 -0.98864746 3.3883057 -1.5083618c2.210205 -0.5197754 5.230774 -0.97406006 8.397217 -1.2630005l0 0c6.593811 -0.6016846 12.007874 -0.33642578 12.092651 0.59246826l0 0c0.08477783 0.9289551 -5.1917725 2.1697388 -11.7855835 2.7714233l0 0c-6.59375 0.6016846 -12.0078125 0.33642578 -12.09259 -0.5925293z" fill-rule="nonzero"></path><path fill="#666666" d="m583.82855 546.0208l19.423645 -1.7724609l0.44232178 4.845703l-19.423645 1.7723999z" fill-rule="nonzero"></path><path stroke="#666666" stroke-width="2.0" stroke-linejoin="round" stroke-linecap="butt" d="m583.82855 546.0208l19.423645 -1.7724609l0.44232178 4.845703l-19.423645 1.7723999z" fill-rule="nonzero"></path><path fill="#666666" d="m585.1786 560.81036l19.423645 -1.7723999l0.44232178 4.845642l-19.423645 1.7723999z" fill-rule="nonzero"></path><path stroke="#666666" stroke-width="2.0" stroke-linejoin="round" stroke-linecap="butt" d="m585.1786 560.81036l19.423645 -1.7723999l0.44232178 4.845642l-19.423645 1.7723999z" fill-rule="nonzero"></path><path fill="#b45f06" d="m582.3375 565.99194l25.618774 -2.3377686l0.88848877 9.733154l-25.618774 2.3377686z" fill-rule="nonzero"></path><path stroke="#b45f06" stroke-width="2.0" stroke-linejoin="round" stroke-linecap="butt" d="m582.3375 565.99194l25.618774 -2.3377686l0.88848877 9.733154l-25.618774 2.3377686z" fill-rule="nonzero"></path><path fill="#b45f06" d="m605.3036 563.8677l0 0c10.507324 -0.9621582 19.225464 0.45141602 19.472473 3.1572876c0.24700928 2.7059326 -8.070679 5.6794434 -18.578003 6.6415405l0 0c2.8773804 -3.5055542 2.5698853 -6.8739624 -0.8944702 -9.798828z" fill-rule="nonzero"></path><path stroke="#b45f06" stroke-width="2.0" stroke-linejoin="round" stroke-linecap="butt" d="m605.3036 563.8677l0 0c10.507324 -0.9621582 19.225464 0.45141602 19.472473 3.1572876c0.24700928 2.7059326 -8.070679 5.6794434 -18.578003 6.6415405l0 0c2.8773804 -3.5055542 2.5698853 -6.8739624 -0.8944702 -9.798828z" fill-rule="nonzero"></path><path fill="#666666" d="m585.63995 565.6543l19.210571 -1.7529907l0.89990234 9.858643l-19.21051 1.7529907z" fill-rule="nonzero"></path><path stroke="#666666" stroke-width="2.0" stroke-linejoin="round" stroke-linecap="butt" d="m585.63995 565.6543l19.210571 -1.7529907l0.89990234 9.858643l-19.21051 1.7529907z" fill-rule="nonzero"></path><path fill="#b45f06" d="m593.2269 570.1471l0 0c-0.04071045 -0.44610596 1.1781006 -0.9887085 3.3883057 -1.5084229c2.210205 -0.51971436 5.230835 -0.97406006 8.397278 -1.2630005l0 0c6.59375 -0.6016846 12.0078125 -0.33642578 12.09259 0.59246826l0 0c0.08477783 0.9289551 -5.1917725 2.1697388 -11.7855835 2.7714233l0 0c-6.59375 0.6016846 -12.0078125 0.33642578 -12.09259 -0.59246826z" fill-rule="nonzero"></path><path stroke="#b45f06" stroke-width="2.0" stroke-linejoin="round" stroke-linecap="butt" d="m593.2269 570.1471l0 0c-0.04071045 -0.44610596 1.1781006 -0.9887085 3.3883057 -1.5084229c2.210205 -0.51971436 5.230835 -0.97406006 8.397278 -1.2630005l0 0c6.59375 -0.6016846 12.0078125 -0.33642578 12.09259 0.59246826l0 0c0.08477783 0.9289551 -5.1917725 2.1697388 -11.7855835 2.7714233l0 0c-6.59375 0.6016846 -12.0078125 0.33642578 -12.09259 -0.59246826z" fill-rule="nonzero"></path><path fill="#b45f06" d="m583.68756 580.7815l25.618774 -2.3377075l0.88848877 9.733154l-25.618774 2.3377075z" fill-rule="nonzero"></path><path stroke="#b45f06" stroke-width="2.0" stroke-linejoin="round" stroke-linecap="butt" d="m583.68756 580.7815l25.618774 -2.3377075l0.88848877 9.733154l-25.618774 2.3377075z" fill-rule="nonzero"></path><path fill="#b45f06" d="m606.6536 578.6572l0 0c10.507324 -0.9621582 19.225464 0.45141602 19.472473 3.1573486c0.24700928 2.7058716 -8.070679 5.6793823 -18.578003 6.6414795l0 0c2.8773804 -3.5055542 2.5698853 -6.8739624 -0.8944702 -9.798828z" fill-rule="nonzero"></path><path stroke="#b45f06" stroke-width="2.0" stroke-linejoin="round" stroke-linecap="butt" d="m606.6536 578.6572l0 0c10.507324 -0.9621582 19.225464 0.45141602 19.472473 3.1573486c0.24700928 2.7058716 -8.070679 5.6793823 -18.578003 6.6414795l0 0c2.8773804 -3.5055542 2.5698853 -6.8739624 -0.8944702 -9.798828z" fill-rule="nonzero"></path><path fill="#666666" d="m586.99 580.44385l19.210571 -1.7529907l0.89990234 9.858643l-19.21051 1.7529907z" fill-rule="nonzero"></path><path stroke="#666666" stroke-width="2.0" stroke-linejoin="round" stroke-linecap="butt" d="m586.99 580.44385l19.210571 -1.7529907l0.89990234 9.858643l-19.21051 1.7529907z" fill-rule="nonzero"></path><path fill="#b45f06" d="m594.57697 584.93665l0 0c-0.04071045 -0.44610596 1.1781006 -0.98864746 3.3883057 -1.5084229c2.210205 -0.51971436 5.230835 -0.97406006 8.397278 -1.2630005l0 0c6.59375 -0.6016846 12.0078125 -0.33642578 12.09259 0.5925293l0 0c0.08477783 0.92889404 -5.1917725 2.1696777 -11.785522 2.7713623l0 0c-6.593811 0.6016846 -12.007874 0.33642578 -12.092651 -0.59246826z" fill-rule="nonzero"></path><path stroke="#b45f06" stroke-width="2.0" stroke-linejoin="round" stroke-linecap="butt" d="m594.57697 584.93665l0 0c-0.04071045 -0.44610596 1.1781006 -0.98864746 3.3883057 -1.5084229c2.210205 -0.51971436 5.230835 -0.97406006 8.397278 -1.2630005l0 0c6.59375 -0.6016846 12.0078125 -0.33642578 12.09259 0.5925293l0 0c0.08477783 0.92889404 -5.1917725 2.1696777 -11.785522 2.7713623l0 0c-6.593811 0.6016846 -12.007874 0.33642578 -12.092651 -0.59246826z" fill-rule="nonzero"></path><path fill="#666666" d="m586.5286 575.5999l19.423645 -1.7723999l0.44232178 4.845642l-19.423645 1.7724609z" fill-rule="nonzero"></path><path stroke="#666666" stroke-width="2.0" stroke-linejoin="round" stroke-linecap="butt" d="m586.5286 575.5999l19.423645 -1.7723999l0.44232178 4.845642l-19.423645 1.7724609z" fill-rule="nonzero"></path><path fill="#666666" d="m587.87866 590.38947l19.423645 -1.7723999l0.44232178 4.845642l-19.423645 1.7724609z" fill-rule="nonzero"></path><path stroke="#666666" stroke-width="2.0" stroke-linejoin="round" stroke-linecap="butt" d="m587.87866 590.38947l19.423645 -1.7723999l0.44232178 4.845642l-19.423645 1.7724609z" fill-rule="nonzero"></path><path fill="#b45f06" d="m585.0376 595.57104l25.618774 -2.3377075l0.88848877 9.733154l-25.618774 2.3377075z" fill-rule="nonzero"></path><path stroke="#b45f06" stroke-width="2.0" stroke-linejoin="round" stroke-linecap="butt" d="m585.0376 595.57104l25.618774 -2.3377075l0.88848877 9.733154l-25.618774 2.3377075z" fill-rule="nonzero"></path><path fill="#b45f06" d="m608.00366 593.4468l0 0c10.507324 -0.9621582 19.225464 0.45147705 19.472473 3.1573486c0.24700928 2.7058716 -8.070618 5.6793823 -18.578003 6.6415405l0 0c2.8773804 -3.5056152 2.5698853 -6.8739624 -0.8944702 -9.798889z" fill-rule="nonzero"></path><path stroke="#b45f06" stroke-width="2.0" stroke-linejoin="round" stroke-linecap="butt" d="m608.00366 593.4468l0 0c10.507324 -0.9621582 19.225464 0.45147705 19.472473 3.1573486c0.24700928 2.7058716 -8.070618 5.6793823 -18.578003 6.6415405l0 0c2.8773804 -3.5056152 2.5698853 -6.8739624 -0.8944702 -9.798889z" fill-rule="nonzero"></path><path fill="#666666" d="m588.3401 595.2334l19.21051 -1.7529297l0.89990234 9.858582l-19.21051 1.7529907z" fill-rule="nonzero"></path><path stroke="#666666" stroke-width="2.0" stroke-linejoin="round" stroke-linecap="butt" d="m588.3401 595.2334l19.21051 -1.7529297l0.89990234 9.858582l-19.21051 1.7529907z" fill-rule="nonzero"></path><path fill="#b45f06" d="m595.927 599.7262l0 0c-0.04071045 -0.44610596 1.1781006 -0.98864746 3.3883057 -1.5084229c2.210266 -0.51971436 5.230835 -0.973999 8.397278 -1.2629395l0 0c6.59375 -0.6017456 12.0078125 -0.33642578 12.09259 0.59246826l0 0c0.08477783 0.92889404 -5.1917725 2.1696777 -11.785522 2.7713623l0 0c-6.593811 0.6016846 -12.007874 0.33642578 -12.092651 -0.59246826z" fill-rule="nonzero"></path><path stroke="#b45f06" stroke-width="2.0" stroke-linejoin="round" stroke-linecap="butt" d="m595.927 599.7262l0 0c-0.04071045 -0.44610596 1.1781006 -0.98864746 3.3883057 -1.5084229c2.210266 -0.51971436 5.230835 -0.973999 8.397278 -1.2629395l0 0c6.59375 -0.6017456 12.0078125 -0.33642578 12.09259 0.59246826l0 0c0.08477783 0.92889404 -5.1917725 2.1696777 -11.785522 2.7713623l0 0c-6.593811 0.6016846 -12.007874 0.33642578 -12.092651 -0.59246826z" fill-rule="nonzero"></path><path fill="#b45f06" d="m586.38763 610.36066l25.618774 -2.3377686l0.88848877 9.733154l-25.618774 2.3377686z" fill-rule="nonzero"></path><path stroke="#b45f06" stroke-width="2.0" stroke-linejoin="round" stroke-linecap="butt" d="m586.38763 610.36066l25.618774 -2.3377686l0.88848877 9.733154l-25.618774 2.3377686z" fill-rule="nonzero"></path><path fill="#b45f06" d="m609.3537 608.2363l0 0c10.507385 -0.96209717 19.225464 0.45147705 19.472473 3.1573486c0.24700928 2.7058716 -8.070618 5.6793823 -18.578003 6.6415405l0 0c2.8773804 -3.5056152 2.5698853 -6.8739624 -0.8944702 -9.798889z" fill-rule="nonzero"></path><path stroke="#b45f06" stroke-width="2.0" stroke-linejoin="round" stroke-linecap="butt" d="m609.3537 608.2363l0 0c10.507385 -0.96209717 19.225464 0.45147705 19.472473 3.1573486c0.24700928 2.7058716 -8.070618 5.6793823 -18.578003 6.6415405l0 0c2.8773804 -3.5056152 2.5698853 -6.8739624 -0.8944702 -9.798889z" fill-rule="nonzero"></path><path fill="#666666" d="m589.6901 610.02295l19.21051 -1.7529297l0.89990234 9.858582l-19.21051 1.7529907z" fill-rule="nonzero"></path><path stroke="#666666" stroke-width="2.0" stroke-linejoin="round" stroke-linecap="butt" d="m589.6901 610.02295l19.21051 -1.7529297l0.89990234 9.858582l-19.21051 1.7529907z" fill-rule="nonzero"></path><path fill="#b45f06" d="m597.27704 614.51575l0 0c-0.04071045 -0.44604492 1.1781006 -0.98864746 3.3883057 -1.5083618c2.210266 -0.5197754 5.230835 -0.97406006 8.397278 -1.2630005l0 0c6.59375 -0.6016846 12.0078125 -0.33642578 12.09259 0.59246826l0 0c0.08477783 0.92889404 -5.1917725 2.1697388 -11.785522 2.7714233l0 0c-6.593811 0.6016846 -12.0078125 0.33642578 -12.092651 -0.5925293z" fill-rule="nonzero"></path><path stroke="#b45f06" stroke-width="2.0" stroke-linejoin="round" stroke-linecap="butt" d="m597.27704 614.51575l0 0c-0.04071045 -0.44604492 1.1781006 -0.98864746 3.3883057 -1.5083618c2.210266 -0.5197754 5.230835 -0.97406006 8.397278 -1.2630005l0 0c6.59375 -0.6016846 12.0078125 -0.33642578 12.09259 0.59246826l0 0c0.08477783 0.92889404 -5.1917725 2.1697388 -11.785522 2.7714233l0 0c-6.593811 0.6016846 -12.0078125 0.33642578 -12.092651 -0.5925293z" fill-rule="nonzero"></path><path fill="#666666" d="m589.2287 605.1791l19.423645 -1.7724609l0.44232178 4.845703l-19.423645 1.7723999z" fill-rule="nonzero"></path><path stroke="#666666" stroke-width="2.0" stroke-linejoin="round" stroke-linecap="butt" d="m589.2287 605.1791l19.423645 -1.7724609l0.44232178 4.845703l-19.423645 1.7723999z" fill-rule="nonzero"></path><path fill="#666666" d="m590.57874 619.9686l19.423645 -1.7724609l0.44232178 4.845703l-19.423645 1.7723999z" fill-rule="nonzero"></path><path stroke="#666666" stroke-width="2.0" stroke-linejoin="round" stroke-linecap="butt" d="m590.57874 619.9686l19.423645 -1.7724609l0.44232178 4.845703l-19.423645 1.7723999z" fill-rule="nonzero"></path><path fill="#b45f06" d="m565.25696 388.59744l25.619934 -2.3378296l0.88842773 9.732513l-25.619934 2.3378296z" fill-rule="nonzero"></path><path stroke="#b45f06" stroke-width="2.0" stroke-linejoin="round" stroke-linecap="butt" d="m565.25696 388.59744l25.619934 -2.3378296l0.88842773 9.732513l-25.619934 2.3378296z" fill-rule="nonzero"></path><path fill="#b45f06" d="m588.22577 386.46927l0 0c10.505737 -0.960907 19.222595 0.45407104 19.469666 3.1604004c0.24700928 2.7063599 -8.069275 5.6792297 -18.575073 6.640106l0 0c2.876831 -3.5057678 2.569336 -6.874695 -0.8945923 -9.800507z" fill-rule="nonzero"></path><path stroke="#b45f06" stroke-width="2.0" stroke-linejoin="round" stroke-linecap="butt" d="m588.22577 386.46927l0 0c10.505737 -0.960907 19.222595 0.45407104 19.469666 3.1604004c0.24700928 2.7063599 -8.069275 5.6792297 -18.575073 6.640106l0 0c2.876831 -3.5057678 2.569336 -6.874695 -0.8945923 -9.800507z" fill-rule="nonzero"></path><path fill="#666666" d="m568.5594 388.2598l19.210144 -1.7529297l0.89971924 9.856506l-19.210083 1.7529602z" fill-rule="nonzero"></path><path stroke="#666666" stroke-width="2.0" stroke-linejoin="round" stroke-linecap="butt" d="m568.5594 388.2598l19.210144 -1.7529297l0.89971924 9.856506l-19.210083 1.7529602z" fill-rule="nonzero"></path><path fill="#b45f06" d="m576.14636 392.75272l0 0c-0.04071045 -0.44610596 1.1779785 -0.9887085 3.3878784 -1.5084534c2.209961 -0.5197449 5.2301636 -0.97402954 8.39624 -1.2629395l0 0c6.5930176 -0.60162354 12.006409 -0.33624268 12.091248 0.5927429l0 0c0.08477783 0.9290161 -5.191162 2.1697998 -11.784119 2.7714233l0 0c-6.5930176 0.60162354 -12.006409 0.33624268 -12.091248 -0.59277344z" fill-rule="nonzero"></path><path stroke="#b45f06" stroke-width="2.0" stroke-linejoin="round" stroke-linecap="butt" d="m576.14636 392.75272l0 0c-0.04071045 -0.44610596 1.1779785 -0.9887085 3.3878784 -1.5084534c2.209961 -0.5197449 5.2301636 -0.97402954 8.39624 -1.2629395l0 0c6.5930176 -0.60162354 12.006409 -0.33624268 12.091248 0.5927429l0 0c0.08477783 0.9290161 -5.191162 2.1697998 -11.784119 2.7714233l0 0c-6.5930176 0.60162354 -12.006409 0.33624268 -12.091248 -0.59277344z" fill-rule="nonzero"></path><path fill="#b45f06" d="m566.607 403.38702l25.619995 -2.33786l0.8883667 9.732513l-25.619934 2.33786z" fill-rule="nonzero"></path><path stroke="#b45f06" stroke-width="2.0" stroke-linejoin="round" stroke-linecap="butt" d="m566.607 403.38702l25.619995 -2.33786l0.8883667 9.732513l-25.619934 2.33786z" fill-rule="nonzero"></path><path fill="#b45f06" d="m589.5758 401.25882l0 0c10.505737 -0.96087646 19.222595 0.45407104 19.469666 3.160431c0.24700928 2.7063293 -8.069275 5.679199 -18.575073 6.6400757l0 0c2.876831 -3.5057678 2.569336 -6.874695 -0.8945923 -9.800507z" fill-rule="nonzero"></path><path stroke="#b45f06" stroke-width="2.0" stroke-linejoin="round" stroke-linecap="butt" d="m589.5758 401.25882l0 0c10.505737 -0.96087646 19.222595 0.45407104 19.469666 3.160431c0.24700928 2.7063293 -8.069275 5.679199 -18.575073 6.6400757l0 0c2.876831 -3.5057678 2.569336 -6.874695 -0.8945923 -9.800507z" fill-rule="nonzero"></path><path fill="#666666" d="m569.9094 403.04935l19.210144 -1.7529297l0.89971924 9.856537l-19.210083 1.7529297z" fill-rule="nonzero"></path><path stroke="#666666" stroke-width="2.0" stroke-linejoin="round" stroke-linecap="butt" d="m569.9094 403.04935l19.210144 -1.7529297l0.89971924 9.856537l-19.210083 1.7529297z" fill-rule="nonzero"></path><path fill="#b45f06" d="m577.4964 407.5423l0 0c-0.04071045 -0.44613647 1.1779785 -0.988739 3.3878784 -1.5084839c2.209961 -0.5197449 5.2301636 -0.97402954 8.39624 -1.2629395l0 0c6.5930176 -0.60162354 12.006409 -0.33621216 12.091248 0.59277344l0 0c0.08477783 0.9289856 -5.191162 2.1697998 -11.784119 2.7714233l0 0c-6.5930176 0.601593 -12.006409 0.33621216 -12.091248 -0.59277344z" fill-rule="nonzero"></path><path stroke="#b45f06" stroke-width="2.0" stroke-linejoin="round" stroke-linecap="butt" d="m577.4964 407.5423l0 0c-0.04071045 -0.44613647 1.1779785 -0.988739 3.3878784 -1.5084839c2.209961 -0.5197449 5.2301636 -0.97402954 8.39624 -1.2629395l0 0c6.5930176 -0.60162354 12.006409 -0.33621216 12.091248 0.59277344l0 0c0.08477783 0.9289856 -5.191162 2.1697998 -11.784119 2.7714233l0 0c-6.5930176 0.601593 -12.006409 0.33621216 -12.091248 -0.59277344z" fill-rule="nonzero"></path><path fill="#666666" d="m569.44806 398.20544l19.423645 -1.7724304l0.44232178 4.8456726l-19.423645 1.7723999z" fill-rule="nonzero"></path><path stroke="#666666" stroke-width="2.0" stroke-linejoin="round" stroke-linecap="butt" d="m569.44806 398.20544l19.423645 -1.7724304l0.44232178 4.8456726l-19.423645 1.7723999z" fill-rule="nonzero"></path><path fill="#666666" d="m570.7981 412.995l19.423645 -1.7724304l0.44232178 4.8456726l-19.423645 1.7724304z" fill-rule="nonzero"></path><path stroke="#666666" stroke-width="2.0" stroke-linejoin="round" stroke-linecap="butt" d="m570.7981 412.995l19.423645 -1.7724304l0.44232178 4.8456726l-19.423645 1.7724304z" fill-rule="nonzero"></path><path fill="#b45f06" d="m567.95703 418.17657l25.618774 -2.337738l0.88848877 9.733154l-25.618774 2.337738z" fill-rule="nonzero"></path><path stroke="#b45f06" stroke-width="2.0" stroke-linejoin="round" stroke-linecap="butt" d="m567.95703 418.17657l25.618774 -2.337738l0.88848877 9.733154l-25.618774 2.337738z" fill-rule="nonzero"></path><path fill="#b45f06" d="m590.9231 416.05228l0 0c10.507324 -0.9621277 19.225464 0.45147705 19.472473 3.1573486c0.24700928 2.7058716 -8.070679 5.679413 -18.578003 6.6415405l0 0c2.8773804 -3.5056152 2.5698853 -6.8739624 -0.8944702 -9.798889z" fill-rule="nonzero"></path><path stroke="#b45f06" stroke-width="2.0" stroke-linejoin="round" stroke-linecap="butt" d="m590.9231 416.05228l0 0c10.507324 -0.9621277 19.225464 0.45147705 19.472473 3.1573486c0.24700928 2.7058716 -8.070679 5.679413 -18.578003 6.6415405l0 0c2.8773804 -3.5056152 2.5698853 -6.8739624 -0.8944702 -9.798889z" fill-rule="nonzero"></path><path fill="#666666" d="m571.25946 417.83893l19.210571 -1.7529907l0.89990234 9.858643l-19.21051 1.7529602z" fill-rule="nonzero"></path><path stroke="#666666" stroke-width="2.0" stroke-linejoin="round" stroke-linecap="butt" d="m571.25946 417.83893l19.210571 -1.7529907l0.89990234 9.858643l-19.21051 1.7529602z" fill-rule="nonzero"></path><path fill="#b45f06" d="m578.84644 422.3317l0 0c-0.04071045 -0.44607544 1.1781006 -0.98864746 3.3883057 -1.5083923c2.210205 -0.5197449 5.230835 -0.97406006 8.397278 -1.2630005l0 0c6.59375 -0.6016846 12.0078125 -0.33642578 12.09259 0.5924988l0 0c0.08477783 0.92892456 -5.1917725 2.1697083 -11.785522 2.7713928l0 0c-6.593811 0.6016846 -12.007874 0.33642578 -12.092651 -0.5924988z" fill-rule="nonzero"></path><path stroke="#b45f06" stroke-width="2.0" stroke-linejoin="round" stroke-linecap="butt" d="m578.84644 422.3317l0 0c-0.04071045 -0.44607544 1.1781006 -0.98864746 3.3883057 -1.5083923c2.210205 -0.5197449 5.230835 -0.97406006 8.397278 -1.2630005l0 0c6.59375 -0.6016846 12.0078125 -0.33642578 12.09259 0.5924988l0 0c0.08477783 0.92892456 -5.1917725 2.1697083 -11.785522 2.7713928l0 0c-6.593811 0.6016846 -12.007874 0.33642578 -12.092651 -0.5924988z" fill-rule="nonzero"></path><path fill="#b45f06" d="m569.30707 432.96613l25.618774 -2.3377075l0.88848877 9.733154l-25.618774 2.3377075z" fill-rule="nonzero"></path><path stroke="#b45f06" stroke-width="2.0" stroke-linejoin="round" stroke-linecap="butt" d="m569.30707 432.96613l25.618774 -2.3377075l0.88848877 9.733154l-25.618774 2.3377075z" fill-rule="nonzero"></path><path fill="#b45f06" d="m592.27313 430.84186l0 0c10.507324 -0.9621582 19.225464 0.45144653 19.472473 3.157318c0.24700928 2.705902 -8.070679 5.679413 -18.578003 6.6415405l0 0c2.8773804 -3.5056152 2.5698853 -6.8739624 -0.8944702 -9.798859z" fill-rule="nonzero"></path><path stroke="#b45f06" stroke-width="2.0" stroke-linejoin="round" stroke-linecap="butt" d="m592.27313 430.84186l0 0c10.507324 -0.9621582 19.225464 0.45144653 19.472473 3.157318c0.24700928 2.705902 -8.070679 5.679413 -18.578003 6.6415405l0 0c2.8773804 -3.5056152 2.5698853 -6.8739624 -0.8944702 -9.798859z" fill-rule="nonzero"></path><path fill="#666666" d="m572.6095 432.62848l19.210571 -1.7529602l0.89990234 9.858612l-19.21051 1.7529907z" fill-rule="nonzero"></path><path stroke="#666666" stroke-width="2.0" stroke-linejoin="round" stroke-linecap="butt" d="m572.6095 432.62848l19.210571 -1.7529602l0.89990234 9.858612l-19.21051 1.7529907z" fill-rule="nonzero"></path><path fill="#b45f06" d="m580.1965 437.12128l0 0c-0.04071045 -0.44607544 1.1781006 -0.988678 3.3883057 -1.5084229c2.210205 -0.51971436 5.230835 -0.97402954 8.397278 -1.26297l0 0c6.59375 -0.6016846 12.0078125 -0.33642578 12.09259 0.5924988l0 0c0.08477783 0.92889404 -5.1917725 2.1696777 -11.785522 2.7713928l0 0c-6.593811 0.6016846 -12.007874 0.33639526 -12.092651 -0.5924988z" fill-rule="nonzero"></path><path stroke="#b45f06" stroke-width="2.0" stroke-linejoin="round" stroke-linecap="butt" d="m580.1965 437.12128l0 0c-0.04071045 -0.44607544 1.1781006 -0.988678 3.3883057 -1.5084229c2.210205 -0.51971436 5.230835 -0.97402954 8.397278 -1.26297l0 0c6.59375 -0.6016846 12.0078125 -0.33642578 12.09259 0.5924988l0 0c0.08477783 0.92889404 -5.1917725 2.1696777 -11.785522 2.7713928l0 0c-6.593811 0.6016846 -12.007874 0.33639526 -12.092651 -0.5924988z" fill-rule="nonzero"></path><path fill="#666666" d="m572.14813 427.78455l19.423645 -1.7723999l0.44232178 4.845642l-19.423645 1.7724304z" fill-rule="nonzero"></path><path stroke="#666666" stroke-width="2.0" stroke-linejoin="round" stroke-linecap="butt" d="m572.14813 427.78455l19.423645 -1.7723999l0.44232178 4.845642l-19.423645 1.7724304z" fill-rule="nonzero"></path><path fill="#666666" d="m573.49817 442.57413l19.423645 -1.7724304l0.44232178 4.8456726l-19.423645 1.7724304z" fill-rule="nonzero"></path><path stroke="#666666" stroke-width="2.0" stroke-linejoin="round" stroke-linecap="butt" d="m573.49817 442.57413l19.423645 -1.7724304l0.44232178 4.8456726l-19.423645 1.7724304z" fill-rule="nonzero"></path><path fill="#b45f06" d="m570.6571 447.7557l25.618774 -2.337738l0.88848877 9.733154l-25.618774 2.337738z" fill-rule="nonzero"></path><path stroke="#b45f06" stroke-width="2.0" stroke-linejoin="round" stroke-linecap="butt" d="m570.6571 447.7557l25.618774 -2.337738l0.88848877 9.733154l-25.618774 2.337738z" fill-rule="nonzero"></path><path fill="#b45f06" d="m593.62317 445.6314l0 0c10.507324 -0.9621277 19.225464 0.45144653 19.472473 3.1573486c0.24700928 2.7058716 -8.070618 5.679413 -18.578003 6.6415405l0 0c2.8773804 -3.5056152 2.5698853 -6.873993 -0.8944702 -9.798889z" fill-rule="nonzero"></path><path stroke="#b45f06" stroke-width="2.0" stroke-linejoin="round" stroke-linecap="butt" d="m593.62317 445.6314l0 0c10.507324 -0.9621277 19.225464 0.45144653 19.472473 3.1573486c0.24700928 2.7058716 -8.070618 5.679413 -18.578003 6.6415405l0 0c2.8773804 -3.5056152 2.5698853 -6.873993 -0.8944702 -9.798889z" fill-rule="nonzero"></path><path fill="#666666" d="m573.9596 447.41806l19.21051 -1.7529907l0.89990234 9.858643l-19.21051 1.7529602z" fill-rule="nonzero"></path><path stroke="#666666" stroke-width="2.0" stroke-linejoin="round" stroke-linecap="butt" d="m573.9596 447.41806l19.21051 -1.7529907l0.89990234 9.858643l-19.21051 1.7529602z" fill-rule="nonzero"></path><path fill="#b45f06" d="m581.5465 451.91083l0 0c-0.04071045 -0.44607544 1.1781006 -0.98864746 3.3883057 -1.5083923c2.210266 -0.5197449 5.230835 -0.97406006 8.397278 -1.2630005l0 0c6.59375 -0.6016846 12.0078125 -0.33642578 12.09259 0.5924988l0 0c0.08477783 0.92889404 -5.1917725 2.1697083 -11.785522 2.7713928l0 0c-6.593811 0.6016846 -12.007874 0.33642578 -12.092651 -0.5924988z" fill-rule="nonzero"></path><path stroke="#b45f06" stroke-width="2.0" stroke-linejoin="round" stroke-linecap="butt" d="m581.5465 451.91083l0 0c-0.04071045 -0.44607544 1.1781006 -0.98864746 3.3883057 -1.5083923c2.210266 -0.5197449 5.230835 -0.97406006 8.397278 -1.2630005l0 0c6.59375 -0.6016846 12.0078125 -0.33642578 12.09259 0.5924988l0 0c0.08477783 0.92889404 -5.1917725 2.1697083 -11.785522 2.7713928l0 0c-6.593811 0.6016846 -12.007874 0.33642578 -12.092651 -0.5924988z" fill-rule="nonzero"></path><path fill="#b45f06" d="m572.00714 462.54526l25.618774 -2.337738l0.88848877 9.733154l-25.618774 2.337738z" fill-rule="nonzero"></path><path stroke="#b45f06" stroke-width="2.0" stroke-linejoin="round" stroke-linecap="butt" d="m572.00714 462.54526l25.618774 -2.337738l0.88848877 9.733154l-25.618774 2.337738z" fill-rule="nonzero"></path><path fill="#b45f06" d="m594.9732 460.42096l0 0c10.507385 -0.9621277 19.225464 0.45147705 19.472473 3.1573486c0.24700928 2.705902 -8.070618 5.679413 -18.578003 6.6415405l0 0c2.8773804 -3.5056152 2.5698853 -6.8739624 -0.8944702 -9.798889z" fill-rule="nonzero"></path><path stroke="#b45f06" stroke-width="2.0" stroke-linejoin="round" stroke-linecap="butt" d="m594.9732 460.42096l0 0c10.507385 -0.9621277 19.225464 0.45147705 19.472473 3.1573486c0.24700928 2.705902 -8.070618 5.679413 -18.578003 6.6415405l0 0c2.8773804 -3.5056152 2.5698853 -6.8739624 -0.8944702 -9.798889z" fill-rule="nonzero"></path><path fill="#666666" d="m575.30963 462.2076l19.21051 -1.7529907l0.89990234 9.858643l-19.21051 1.7529907z" fill-rule="nonzero"></path><path stroke="#666666" stroke-width="2.0" stroke-linejoin="round" stroke-linecap="butt" d="m575.30963 462.2076l19.21051 -1.7529907l0.89990234 9.858643l-19.21051 1.7529907z" fill-rule="nonzero"></path><path fill="#b45f06" d="m582.89655 466.7004l0 0c-0.04071045 -0.44607544 1.1781006 -0.988678 3.3883057 -1.5084229c2.210266 -0.51971436 5.230835 -0.97402954 8.397278 -1.26297l0 0c6.59375 -0.6016846 12.0078125 -0.33642578 12.09259 0.59246826l0 0c0.08477783 0.92892456 -5.1917725 2.1697083 -11.785522 2.7713928l0 0c-6.593811 0.6017151 -12.0078125 0.33642578 -12.092651 -0.59246826z" fill-rule="nonzero"></path><path stroke="#b45f06" stroke-width="2.0" stroke-linejoin="round" stroke-linecap="butt" d="m582.89655 466.7004l0 0c-0.04071045 -0.44607544 1.1781006 -0.988678 3.3883057 -1.5084229c2.210266 -0.51971436 5.230835 -0.97402954 8.397278 -1.26297l0 0c6.59375 -0.6016846 12.0078125 -0.33642578 12.09259 0.59246826l0 0c0.08477783 0.92892456 -5.1917725 2.1697083 -11.785522 2.7713928l0 0c-6.593811 0.6017151 -12.0078125 0.33642578 -12.092651 -0.59246826z" fill-rule="nonzero"></path><path fill="#666666" d="m574.8482 457.36368l19.423645 -1.7724304l0.44232178 4.8456726l-19.423645 1.7724304z" fill-rule="nonzero"></path><path stroke="#666666" stroke-width="2.0" stroke-linejoin="round" stroke-linecap="butt" d="m574.8482 457.36368l19.423645 -1.7724304l0.44232178 4.8456726l-19.423645 1.7724304z" fill-rule="nonzero"></path><path fill="#666666" d="m576.19824 472.15326l19.423645 -1.7724304l0.44232178 4.8456726l-19.423645 1.7724304z" fill-rule="nonzero"></path><path stroke="#666666" stroke-width="2.0" stroke-linejoin="round" stroke-linecap="butt" d="m576.19824 472.15326l19.423645 -1.7724304l0.44232178 4.8456726l-19.423645 1.7724304z" fill-rule="nonzero"></path><path fill="#b45f06" d="m573.35724 477.33484l25.618713 -2.337738l0.88848877 9.733154l-25.618774 2.337738z" fill-rule="nonzero"></path><path stroke="#b45f06" stroke-width="2.0" stroke-linejoin="round" stroke-linecap="butt" d="m573.35724 477.33484l25.618713 -2.337738l0.88848877 9.733154l-25.618774 2.337738z" fill-rule="nonzero"></path><path fill="#b45f06" d="m596.32324 475.21054l0 0c10.507385 -0.9621277 19.225525 0.45144653 19.472473 3.1573486c0.24700928 2.7058716 -8.070618 5.6793823 -18.578003 6.6415405l0 0c2.8773804 -3.5056152 2.5698853 -6.873993 -0.8944702 -9.798889z" fill-rule="nonzero"></path><path stroke="#b45f06" stroke-width="2.0" stroke-linejoin="round" stroke-linecap="butt" d="m596.32324 475.21054l0 0c10.507385 -0.9621277 19.225525 0.45144653 19.472473 3.1573486c0.24700928 2.7058716 -8.070618 5.6793823 -18.578003 6.6415405l0 0c2.8773804 -3.5056152 2.5698853 -6.873993 -0.8944702 -9.798889z" fill-rule="nonzero"></path><path fill="#666666" d="m576.65967 476.9972l19.21051 -1.7529907l0.89990234 9.858643l-19.21051 1.7529602z" fill-rule="nonzero"></path><path stroke="#666666" stroke-width="2.0" stroke-linejoin="round" stroke-linecap="butt" d="m576.65967 476.9972l19.21051 -1.7529907l0.89990234 9.858643l-19.21051 1.7529602z" fill-rule="nonzero"></path><path fill="#b45f06" d="m584.2466 481.48996l0 0c-0.04071045 -0.44607544 1.1781006 -0.988678 3.3883057 -1.5083923c2.210266 -0.5197449 5.230835 -0.97406006 8.397278 -1.2630005l0 0c6.59375 -0.6016846 12.0078125 -0.33642578 12.09259 0.5924988l0 0c0.08477783 0.92889404 -5.1917725 2.1697083 -11.785522 2.7713928l0 0c-6.593811 0.6016846 -12.0078125 0.33642578 -12.092651 -0.5924988z" fill-rule="nonzero"></path><path stroke="#b45f06" stroke-width="2.0" stroke-linejoin="round" stroke-linecap="butt" d="m584.2466 481.48996l0 0c-0.04071045 -0.44607544 1.1781006 -0.988678 3.3883057 -1.5083923c2.210266 -0.5197449 5.230835 -0.97406006 8.397278 -1.2630005l0 0c6.59375 -0.6016846 12.0078125 -0.33642578 12.09259 0.5924988l0 0c0.08477783 0.92889404 -5.1917725 2.1697083 -11.785522 2.7713928l0 0c-6.593811 0.6016846 -12.0078125 0.33642578 -12.092651 -0.5924988z" fill-rule="nonzero"></path><path fill="#b45f06" d="m574.7073 492.1244l25.618713 -2.337738l0.88848877 9.733154l-25.618774 2.337738z" fill-rule="nonzero"></path><path stroke="#b45f06" stroke-width="2.0" stroke-linejoin="round" stroke-linecap="butt" d="m574.7073 492.1244l25.618713 -2.337738l0.88848877 9.733154l-25.618774 2.337738z" fill-rule="nonzero"></path><path fill="#b45f06" d="m597.6733 490.0001l0 0c10.507385 -0.9621277 19.225525 0.45147705 19.472473 3.1573486c0.24700928 2.705902 -8.070618 5.679413 -18.578003 6.6415405l0 0c2.8773804 -3.5056152 2.5698853 -6.8739624 -0.8944702 -9.798889z" fill-rule="nonzero"></path><path stroke="#b45f06" stroke-width="2.0" stroke-linejoin="round" stroke-linecap="butt" d="m597.6733 490.0001l0 0c10.507385 -0.9621277 19.225525 0.45147705 19.472473 3.1573486c0.24700928 2.705902 -8.070618 5.679413 -18.578003 6.6415405l0 0c2.8773804 -3.5056152 2.5698853 -6.8739624 -0.8944702 -9.798889z" fill-rule="nonzero"></path><path fill="#666666" d="m578.0097 491.78674l19.21051 -1.7529907l0.89990234 9.858643l-19.21051 1.7529602z" fill-rule="nonzero"></path><path stroke="#666666" stroke-width="2.0" stroke-linejoin="round" stroke-linecap="butt" d="m578.0097 491.78674l19.21051 -1.7529907l0.89990234 9.858643l-19.21051 1.7529602z" fill-rule="nonzero"></path><path fill="#b45f06" d="m585.5966 496.27954l0 0c-0.04071045 -0.44607544 1.1781006 -0.988678 3.3883057 -1.5084229c2.210266 -0.5197449 5.230835 -0.97402954 8.397278 -1.26297l0 0c6.59375 -0.6017151 12.0078125 -0.33642578 12.09259 0.59246826l0 0c0.08483887 0.92892456 -5.1917725 2.1697083 -11.785522 2.7713928l0 0c-6.593811 0.6016846 -12.0078125 0.33642578 -12.092651 -0.59246826z" fill-rule="nonzero"></path><path stroke="#b45f06" stroke-width="2.0" stroke-linejoin="round" stroke-linecap="butt" d="m585.5966 496.27954l0 0c-0.04071045 -0.44607544 1.1781006 -0.988678 3.3883057 -1.5084229c2.210266 -0.5197449 5.230835 -0.97402954 8.397278 -1.26297l0 0c6.59375 -0.6017151 12.0078125 -0.33642578 12.09259 0.59246826l0 0c0.08483887 0.92892456 -5.1917725 2.1697083 -11.785522 2.7713928l0 0c-6.593811 0.6016846 -12.0078125 0.33642578 -12.092651 -0.59246826z" fill-rule="nonzero"></path><path fill="#666666" d="m577.5483 486.9428l19.423645 -1.7724304l0.44232178 4.8456726l-19.423645 1.7724304z" fill-rule="nonzero"></path><path stroke="#666666" stroke-width="2.0" stroke-linejoin="round" stroke-linecap="butt" d="m577.5483 486.9428l19.423645 -1.7724304l0.44232178 4.8456726l-19.423645 1.7724304z" fill-rule="nonzero"></path><path fill="#666666" d="m578.8983 501.7324l19.423645 -1.7724304l0.44232178 4.8456726l-19.423645 1.7723999z" fill-rule="nonzero"></path><path stroke="#666666" stroke-width="2.0" stroke-linejoin="round" stroke-linecap="butt" d="m578.8983 501.7324l19.423645 -1.7724304l0.44232178 4.8456726l-19.423645 1.7723999z" fill-rule="nonzero"></path><path fill="#434343" d="m362.5166 392.49057l188.43646 -17.194977l6.5807495 72.09161l-188.43646 17.194977z" fill-rule="nonzero"></path><path stroke="#434343" stroke-width="2.0" stroke-linejoin="round" stroke-linecap="butt" d="m362.5166 392.49057l188.43646 -17.194977l6.5807495 72.09161l-188.43646 17.194977z" fill-rule="nonzero"></path><path fill="#434343" d="m369.72958 464.5245l2.9898071 32.75305l58.515594 -38.36548z" fill-rule="nonzero"></path><path stroke="#434343" stroke-width="2.0" stroke-linejoin="round" stroke-linecap="butt" d="m369.72958 464.5245l2.9898071 32.75305l58.515594 -38.36548z" fill-rule="nonzero"></path><path fill="#000000" fill-opacity="0.0" d="m427.89267 436.16656l128.23788 -11.701843" fill-rule="nonzero"></path><path stroke="#000000" stroke-width="2.0" stroke-linejoin="round" stroke-linecap="butt" d="m427.89267 436.16656l128.23788 -11.701843" fill-rule="nonzero"></path><path fill="#000000" fill-opacity="0.0" d="m429.20462 436.66968l2.030365 22.242401" fill-rule="nonzero"></path><path stroke="#000000" stroke-width="2.0" stroke-linejoin="round" stroke-linecap="butt" d="m429.20462 436.66968l2.030365 22.242401" fill-rule="nonzero"></path><path fill="#000000" fill-opacity="0.0" d="m455.30206 434.28842l2.030365 22.242432" fill-rule="nonzero"></path><path stroke="#000000" stroke-width="2.0" stroke-linejoin="round" stroke-linecap="butt" d="m455.30206 434.28842l2.030365 22.242432" fill-rule="nonzero"></path><path fill="#000000" fill-opacity="0.0" d="m438.53232 385.55408l6.5807495 72.09161" fill-rule="nonzero"></path><path stroke="#000000" stroke-width="2.0" stroke-linejoin="round" stroke-linecap="butt" d="m438.53232 385.55408l6.5807495 72.09161" fill-rule="nonzero"></path><path fill="#000000" fill-opacity="0.0" d="m438.2122 401.71527l57.585083 -5.2546997" fill-rule="nonzero"></path><path stroke="#000000" stroke-width="2.0" stroke-linejoin="round" stroke-linecap="butt" d="m438.2122 401.71527l57.585083 -5.2546997" fill-rule="nonzero"></path><path fill="#000000" fill-opacity="0.0" d="m439.2234 412.79288l57.585083 -5.2546997" fill-rule="nonzero"></path><path stroke="#000000" stroke-width="2.0" stroke-linejoin="round" stroke-linecap="butt" d="m439.2234 412.79288l57.585083 -5.2546997" fill-rule="nonzero"></path><path fill="#000000" fill-opacity="0.0" d="m493.8523 380.50607l4.550415 49.849213" fill-rule="nonzero"></path><path stroke="#000000" stroke-width="2.0" stroke-linejoin="round" stroke-linecap="butt" d="m493.8523 380.50607l4.550415 49.849213" fill-rule="nonzero"></path><path fill="#000000" d="m443.79483 386.39313l44.473785 -4.058258l0.72058105 7.8938904l-44.473785 4.058258z" fill-rule="nonzero"></path><path stroke="#000000" stroke-width="2.0" stroke-linejoin="round" stroke-linecap="butt" d="m443.79483 386.39313l44.473785 -4.058258l0.72058105 7.8938904l-44.473785 4.058258z" fill-rule="nonzero"></path><path fill="#000000" d="m504.14627 387.24158l48.394073 -4.4160156l2.7509766 30.136292l-48.394135 4.4160156z" fill-rule="nonzero"></path><path stroke="#000000" stroke-width="2.0" stroke-linejoin="round" stroke-linecap="butt" d="m504.14627 387.24158l48.394073 -4.4160156l2.7509766 30.136292l-48.394135 4.4160156z" fill-rule="nonzero"></path><path fill="#000000" d="m362.46252 391.89835l3.9203186 -0.35772705l9.566589 104.801056l-3.9203186 0.35772705z" fill-rule="nonzero"></path><path stroke="#000000" stroke-width="2.0" stroke-linejoin="round" stroke-linecap="butt" d="m362.46252 391.89835l3.9203186 -0.35772705l9.566589 104.801056l-3.9203186 0.35772705z" fill-rule="nonzero"></path><path fill="#b45f06" d="m512.17487 333.10803l-13.921692 53.2157l-10.105896 72.03366l6.8719177 17.784393l28.697296 -37.815155l16.603638 -62.99945z" fill-rule="nonzero"></path><path stroke="#000000" stroke-width="2.0" stroke-linejoin="round" stroke-linecap="butt" d="m512.17487 333.10803l-13.921692 53.2157l-10.105896 72.03366l6.8719177 17.784393l28.697296 -37.815155l16.603638 -62.99945z" fill-rule="nonzero"></path></g></svg>

